<?xml version="1.0" standalone="no"?>
<!DOCTYPE svg PUBLIC "-//W3C//DTD SVG 20010904//EN"
 "http://www.w3.org/TR/2001/REC-SVG-20010904/DTD/svg10.dtd">
<svg version="1.0" xmlns="http://www.w3.org/2000/svg"
 width="1024.000000pt" height="576.000000pt" viewBox="0 0 1024.000000 576.000000"
 preserveAspectRatio="xMidYMid meet">

<g transform="translate(0.000000,576.000000) scale(0.100000,-0.100000)"
fill="#000000" stroke="none">
<path d="M4905 4860 c-54 -21 -117 -75 -143 -124 -11 -20 -16 -54 -16 -98 0
-62 3 -72 40 -125 51 -75 100 -103 179 -103 74 0 148 30 138 55 -5 14 -14 16
-62 9 -118 -17 -162 1 -201 81 -28 58 -21 69 46 62 41 -4 58 -2 69 10 22 22
13 29 -55 42 -35 7 -63 18 -67 27 -26 68 104 136 199 105 42 -14 68 -6 68 20
0 46 -117 70 -195 39z"/>
<path d="M5273 4873 c-24 -9 -13 -49 43 -158 l55 -110 -3 -95 c-3 -89 -2 -95
17 -95 16 0 22 13 37 75 9 41 20 84 22 96 3 11 40 49 81 84 70 58 88 87 59 97
-5 2 -41 -24 -80 -57 -38 -33 -77 -60 -86 -60 -12 0 -35 34 -74 113 -31 61
-57 113 -57 113 -1 1 -8 -1 -14 -3z"/>
<path d="M5817 4683 c-42 -84 -139 -342 -135 -360 2 -10 10 -19 19 -21 16 -3
41 45 130 256 32 78 47 102 59 99 8 -3 48 -15 88 -28 63 -19 75 -20 83 -8 5 8
7 19 6 24 -3 10 -190 84 -214 85 -7 0 -23 -21 -36 -47z"/>
<path d="M6150 4453 c-45 -19 -87 -59 -111 -105 -27 -52 -26 -165 1 -218 29
-56 99 -102 178 -115 40 -6 42 -5 42 17 0 21 -8 27 -54 41 -91 29 -136 98
-118 183 10 50 30 54 75 15 35 -31 77 -41 77 -19 0 7 -21 34 -47 60 l-46 47
17 26 c17 26 21 27 93 23 74 -3 75 -4 112 -46 37 -43 74 -55 84 -28 9 24 -48
92 -95 115 -53 25 -154 27 -208 4z"/>
<path d="M3879 4406 c-9 -20 -6 -38 20 -102 17 -44 53 -137 79 -209 57 -151
75 -166 80 -63 3 64 4 68 47 107 25 23 53 42 62 42 10 1 33 2 52 3 19 0 36 6
38 12 6 19 -101 90 -325 215 -41 24 -40 24 -53 -5z m190 -136 c28 -22 51 -45
51 -49 0 -5 -19 -25 -41 -45 -37 -31 -43 -33 -56 -20 -17 17 -43 96 -43 131 0
35 30 29 89 -17z"/>
<path d="M5005 4309 c-156 -11 -307 -49 -459 -114 -393 -169 -703 -525 -820
-940 -42 -152 -50 -212 -50 -395 1 -141 5 -195 22 -276 51 -236 152 -452 293
-626 341 -419 879 -619 1399 -518 310 60 571 204 791 438 179 190 306 436 364
702 25 119 31 363 11 499 -89 600 -555 1088 -1150 1205 -142 28 -262 36 -401
25z m382 -109 c340 -68 641 -263 845 -546 249 -347 320 -806 188 -1214 -30
-90 -109 -255 -160 -331 -197 -293 -480 -489 -837 -581 -77 -20 -114 -22 -298
-23 -195 0 -217 2 -315 27 -278 70 -489 193 -679 394 -247 261 -371 573 -371
933 0 164 19 292 65 428 161 481 561 829 1055 917 47 9 103 17 125 20 79 8
286 -5 382 -24z"/>
<path d="M4445 3929 c-102 -50 -150 -136 -170 -299 -12 -103 -14 -108 -90
-247 -57 -106 -82 -143 -96 -143 -16 0 -19 8 -19 51 0 43 5 57 34 92 18 23 38
51 44 63 16 31 27 170 14 178 -16 10 -78 -50 -101 -98 -26 -53 -28 -179 -5
-276 20 -83 20 -94 5 -224 -6 -59 -12 -169 -12 -242 0 -131 0 -134 -20 -124
-34 19 -41 57 -34 180 6 109 5 117 -17 160 -14 25 -31 45 -39 45 -19 0 -59
-158 -52 -205 12 -74 75 -171 126 -191 18 -7 33 -13 35 -14 10 -8 181 -419
176 -426 -10 -17 -51 -9 -71 14 -12 12 -24 44 -29 72 -8 59 -36 107 -93 158
-44 40 -65 46 -75 21 -11 -30 -6 -60 20 -113 32 -64 134 -152 197 -170 23 -7
53 -16 67 -20 14 -4 70 -44 125 -88 55 -44 143 -105 195 -135 52 -30 95 -61
95 -69 0 -10 -15 -15 -50 -17 -49 -3 -52 -1 -83 37 -35 44 -102 79 -169 88
-40 5 -43 4 -43 -17 0 -14 20 -43 53 -75 51 -52 53 -53 127 -59 56 -5 96 -2
157 12 l82 18 132 -62 c73 -35 136 -61 141 -58 4 3 2 19 -5 37 -12 28 -20 33
-63 40 -126 21 -224 61 -224 93 0 8 -11 30 -24 47 -13 18 -26 48 -30 68 -16
90 -110 193 -189 206 -35 5 -37 4 -37 -20 0 -14 5 -38 10 -53 14 -37 90 -105
148 -134 58 -28 91 -66 92 -103 l0 -29 -67 38 c-127 70 -221 135 -264 181
l-42 46 6 130 c8 163 -6 267 -40 308 -36 42 -58 38 -71 -12 -12 -48 0 -96 53
-213 45 -100 47 -179 3 -143 -8 7 -52 96 -96 199 -78 176 -82 190 -82 258 0
77 3 82 115 208 12 12 35 67 53 121 26 78 31 108 26 141 -9 55 -28 60 -69 20
-47 -46 -66 -106 -71 -229 -3 -84 -8 -109 -25 -132 -11 -16 -25 -26 -31 -23
-16 10 -3 255 17 334 20 74 84 219 106 236 8 7 41 19 74 29 33 9 91 32 130 51
56 27 79 45 113 90 41 55 55 104 30 104 -7 0 -40 -13 -73 -28 -64 -30 -108
-74 -157 -154 -16 -26 -35 -48 -41 -48 -7 0 -23 -3 -36 -7 -21 -5 -23 -4 -16
18 25 81 189 255 330 352 45 30 59 35 143 41 60 4 117 16 159 31 145 55 156
95 24 95 -102 0 -138 -12 -212 -68 -34 -26 -96 -71 -138 -100 -41 -30 -108
-85 -149 -123 -41 -38 -78 -69 -83 -69 -5 0 -9 15 -9 33 0 28 14 46 96 127 94
94 134 150 134 190 0 25 -23 25 -75 -1z"/>
<path d="M5735 3939 c-16 -25 47 -119 136 -203 86 -81 90 -87 87 -122 l-3 -38
-93 82 c-50 45 -118 99 -150 120 -31 22 -77 56 -102 77 -74 62 -133 85 -222
85 -133 0 -143 -21 -35 -75 62 -31 91 -38 188 -49 l115 -12 79 -59 c105 -77
187 -156 241 -231 43 -61 70 -114 56 -114 -29 0 -82 24 -87 39 -9 30 -82 121
-116 147 -48 35 -117 60 -131 46 -17 -17 9 -68 66 -127 45 -46 63 -55 161 -89
61 -21 116 -40 123 -42 21 -6 90 -164 111 -255 34 -142 40 -329 11 -329 -4 0
-18 15 -29 34 -17 27 -21 50 -21 118 0 102 -17 172 -54 221 -80 104 -113 18
-58 -152 23 -72 37 -96 97 -165 l70 -81 0 -75 c-1 -69 -5 -85 -58 -205 -76
-173 -119 -258 -134 -263 -23 -7 -15 88 11 141 46 90 68 168 61 215 -8 56 -28
63 -68 24 -27 -28 -32 -41 -44 -134 -9 -72 -10 -112 -3 -132 17 -50 12 -157
-9 -192 -24 -40 -132 -121 -247 -184 -96 -53 -114 -59 -114 -35 0 28 44 76 90
100 62 31 140 102 156 142 22 50 18 73 -10 73 -83 0 -187 -107 -210 -216 -4
-17 -18 -46 -32 -65 -13 -18 -24 -40 -24 -50 0 -24 -108 -70 -189 -79 -66 -9
-101 -31 -101 -66 0 -24 28 -16 154 44 l121 58 85 -18 c60 -13 106 -16 155
-12 63 5 75 10 111 42 50 45 78 87 69 103 -11 17 -86 4 -144 -25 -29 -15 -58
-39 -71 -61 -21 -33 -24 -35 -77 -35 -81 0 -68 22 57 98 103 63 180 118 230
164 43 40 73 58 100 58 66 1 200 102 242 183 21 42 22 118 1 124 -15 5 -87
-59 -125 -111 -21 -30 -28 -50 -28 -87 0 -39 -4 -51 -26 -68 -29 -23 -74 -28
-74 -8 0 6 39 103 86 215 84 195 88 203 128 225 46 25 94 90 115 155 13 39 13
53 -3 130 -25 122 -45 138 -79 66 -13 -27 -17 -65 -17 -172 -1 -141 -6 -161
-44 -175 -18 -7 -18 -3 -12 80 4 52 2 143 -6 223 -16 169 -15 227 5 315 30
128 19 214 -35 293 -31 45 -49 58 -71 49 -10 -4 -11 -24 -6 -85 7 -76 9 -84
54 -142 45 -58 47 -64 40 -106 -5 -35 -10 -44 -23 -42 -9 2 -51 66 -98 152
-81 148 -82 148 -86 235 -8 148 -69 253 -176 303 -43 20 -58 22 -67 7z"/>
<path d="M4975 3603 c-158 -38 -315 -125 -424 -236 -145 -148 -203 -295 -203
-508 1 -363 191 -622 537 -732 44 -14 93 -28 108 -32 l28 -6 -3 56 -3 57 -85
31 c-234 89 -367 216 -424 406 -9 30 -16 76 -16 103 l0 48 165 0 165 0 0 43
c0 72 0 72 -180 75 l-162 3 7 42 c22 147 58 227 144 319 80 85 153 134 280
185 l106 42 3 56 c3 57 2 59 -43 48z"/>
<path d="M5224 3596 c-3 -7 -4 -33 -2 -57 3 -42 4 -44 53 -61 149 -54 257
-120 339 -209 70 -75 110 -152 130 -252 25 -118 40 -107 -154 -107 l-171 0 3
-62 3 -63 165 -3 166 -2 -7 -63 c-24 -222 -180 -395 -441 -488 l-88 -32 0 -53
c0 -43 3 -54 16 -54 9 0 64 16 122 35 313 105 493 321 532 636 28 222 -37 430
-183 585 -105 113 -216 181 -379 235 -105 34 -97 33 -104 15z"/>
<path d="M3540 4085 c-10 -12 -10 -24 -1 -55 6 -22 16 -58 22 -81 8 -28 9 -43
1 -51 -6 -6 -47 -14 -93 -19 -74 -7 -98 -17 -99 -40 0 -13 332 -239 351 -239
61 0 0 70 -134 153 -54 33 -77 53 -77 67 0 18 7 20 76 20 l76 0 -7 60 c-9 77
1 78 100 9 75 -53 105 -58 105 -20 0 15 -38 45 -145 116 -80 52 -150 95 -154
95 -5 0 -14 -7 -21 -15z"/>
<path d="M6517 3981 c-86 -53 -165 -105 -174 -114 -16 -16 -16 -18 -1 -33 15
-16 24 -12 125 48 59 36 120 68 136 72 24 6 27 4 27 -19 0 -37 -30 -165 -46
-196 -7 -15 -36 -41 -64 -59 -34 -22 -49 -38 -46 -47 4 -8 6 -17 6 -19 0 -13
37 5 166 83 98 59 144 92 144 104 0 29 -17 31 -61 9 -22 -12 -43 -19 -46 -16
-3 2 7 64 21 137 14 73 23 136 20 140 -13 21 -59 1 -207 -90z"/>
<path d="M3317 3583 c-14 -13 -6 -32 38 -85 61 -74 60 -99 -2 -117 -129 -37
-173 -52 -179 -62 -19 -32 74 -26 200 13 55 16 84 19 140 14 39 -3 81 -9 94
-12 17 -5 22 -2 22 13 0 15 -15 24 -67 42 -64 21 -72 27 -142 112 -70 84 -88
98 -104 82z"/>
<path d="M6757 3513 c-146 -58 -187 -79 -185 -91 2 -9 11 -18 19 -20 14 -3
299 101 382 139 34 15 32 43 -3 46 -14 1 -110 -32 -213 -74z"/>
<path d="M6655 3068 c3 -79 8 -158 11 -176 l5 -32 32 17 c18 9 108 51 201 94
92 42 180 86 195 97 45 35 44 35 -314 117 -60 14 -116 25 -123 25 -10 0 -12
-29 -7 -142z m290 28 c20 -5 26 -12 23 -28 -2 -17 -28 -34 -121 -76 -65 -30
-120 -52 -123 -49 -3 2 -7 49 -11 104 l-6 100 106 -22 c58 -12 117 -25 132
-29z"/>
<path d="M3182 3130 c-47 -29 -62 -73 -62 -185 l0 -95 189 0 c104 0 203 -3
220 -6 28 -6 31 -4 31 20 0 25 -2 26 -62 26 -89 1 -98 10 -98 101 0 41 -6 85
-13 99 -28 57 -141 79 -205 40z m133 -65 c22 -21 25 -33 25 -95 l0 -70 -75 0
-75 0 0 74 c0 69 2 76 26 95 35 28 69 26 99 -4z"/>
<path d="M6794 2730 c-17 -5 -52 -28 -77 -50 -162 -143 -40 -410 178 -387 206
21 270 298 95 413 -44 29 -140 41 -196 24z m131 -53 c77 -30 115 -85 115 -168
0 -73 -37 -129 -104 -154 -119 -46 -236 34 -236 160 0 76 43 134 117 160 46
17 68 17 108 2z"/>
<path d="M3478 2602 c-128 -67 -308 -190 -308 -212 0 -10 8 -21 18 -24 58 -17
460 -62 469 -52 3 3 -11 74 -31 159 -20 85 -36 157 -36 161 0 16 -45 3 -112
-32z m77 -112 c6 -30 15 -68 19 -84 l7 -29 -108 5 c-60 3 -123 11 -142 19
l-34 15 42 33 c59 47 162 101 186 98 15 -1 22 -14 30 -57z"/>
<path d="M6526 2138 c-9 -5 -16 -13 -16 -18 0 -5 38 -31 83 -59 l84 -50 38
-96 c30 -76 41 -95 57 -95 24 0 22 17 -16 105 -21 50 -33 104 -23 105 1 1 57
9 125 19 68 10 125 21 129 24 3 4 3 14 -1 23 -7 18 -45 17 -206 -7 l-85 -12
-76 35 c-54 25 -81 33 -93 26z"/>
<path d="M3528 2039 c-98 -56 -175 -105 -172 -110 15 -25 77 -3 224 79 121 68
156 92 158 110 3 16 -2 22 -15 22 -10 0 -98 -45 -195 -101z"/>
<path d="M3872 1630 c-43 -18 -51 -88 -13 -117 24 -19 76 -16 94 5 49 54 -13
139 -81 112z"/>
<path d="M6312 1617 c-29 -30 -28 -62 3 -92 27 -28 45 -31 78 -14 30 16 37 28
37 65 0 61 -75 87 -118 41z"/>
<path d="M5796 1418 c-12 -20 -86 -359 -86 -395 0 -24 37 -13 118 32 88 50
120 55 147 25 18 -20 45 -27 45 -12 0 4 -4 23 -10 41 -8 27 -6 38 5 51 21 23
19 30 -7 30 -13 0 -28 4 -34 8 -6 4 -37 60 -68 125 -60 125 -80 142 -110 95z
m89 -168 c19 -38 35 -74 35 -79 0 -13 -106 -91 -124 -91 -26 0 -27 16 -5 105
25 105 35 135 49 135 5 0 26 -31 45 -70z"/>
<path d="M4401 1415 c-31 -14 -33 -17 -27 -50 6 -29 0 -47 -37 -112 -84 -148
-99 -183 -86 -199 30 -36 46 -17 129 149 57 115 81 172 78 192 -4 35 -14 38
-57 20z"/>
<path d="M4738 1305 c-60 -33 -84 -114 -52 -180 23 -48 69 -69 138 -62 l56 6
0 -33 c0 -21 -8 -40 -22 -53 -51 -46 -97 -54 -150 -27 -47 24 -59 2 -18 -36
27 -25 40 -30 84 -30 54 0 107 24 138 63 24 30 26 253 3 297 -33 63 -114 89
-177 55z m113 -54 c19 -15 24 -29 24 -66 0 -37 -5 -51 -24 -66 -56 -46 -141
-6 -141 66 0 72 85 112 141 66z"/>
<path d="M5200 1281 c-5 -11 -10 -60 -10 -109 0 -107 10 -118 73 -76 46 30 86
28 124 -8 31 -29 33 -113 2 -152 -17 -22 -28 -26 -67 -26 -26 0 -56 7 -66 15
-26 20 -36 19 -36 -3 0 -30 51 -52 125 -52 58 0 69 3 90 26 28 30 49 111 40
153 -15 70 -76 111 -165 111 -55 0 -67 11 -56 53 7 30 44 47 100 47 35 0 45 4
49 20 5 19 0 20 -94 20 -87 0 -99 -2 -109 -19z"/>
</g>
</svg>
