<?xml version="1.0" standalone="no"?>
<!DOCTYPE svg PUBLIC "-//W3C//DTD SVG 20010904//EN"
 "http://www.w3.org/TR/2001/REC-SVG-20010904/DTD/svg10.dtd">
<svg version="1.0" xmlns="http://www.w3.org/2000/svg"
 width="300.000000pt" height="169.000000pt" viewBox="0 0 300.000000 169.000000"
 preserveAspectRatio="xMidYMid meet">
<metadata>
Created by potrace 1.10, written by Peter Selinger 2001-2011
</metadata>
<g transform="translate(0.000000,169.000000) scale(0.100000,-0.100000)"
fill="#000000" stroke="none">
<path d="M1411 1411 c-52 -52 5 -141 73 -115 26 10 18 25 -9 18 -18 -4 -32 -1
-45 11 -21 19 -18 37 4 29 8 -3 17 -1 21 5 3 7 -2 11 -14 11 -29 0 -27 28 2
35 13 4 28 5 34 3 6 -2 13 2 15 7 7 20 -60 17 -81 -4z"/>
<path d="M1540 1418 c1 -7 7 -24 15 -38 8 -14 14 -40 15 -58 0 -20 4 -31 10
-27 6 3 10 15 10 25 0 11 12 30 27 44 15 14 24 28 20 32 -4 4 -16 -1 -28 -12
-20 -18 -21 -18 -35 1 -8 10 -14 25 -14 32 0 7 -4 13 -10 13 -5 0 -10 -6 -10
-12z"/>
<path d="M1691 1348 c-27 -64 -33 -88 -23 -88 5 0 20 25 32 55 19 47 25 53 40
45 23 -12 40 -13 40 -1 0 7 -51 31 -67 31 -2 0 -12 -19 -22 -42z"/>
<path d="M1780 1290 c-20 -20 -25 -45 -14 -75 8 -21 61 -48 69 -35 3 6 -5 14
-19 19 -23 9 -44 46 -32 58 3 3 12 0 21 -7 9 -7 19 -10 23 -6 4 4 -1 13 -11
20 -9 7 -17 16 -17 20 0 13 54 5 72 -11 15 -13 18 -14 18 -2 0 41 -75 54 -110
19z"/>
<path d="M1130 1296 c0 -10 44 -122 52 -130 4 -6 8 2 8 17 0 27 25 48 48 40 6
-3 12 0 12 6 0 6 -24 24 -52 41 -50 28 -68 35 -68 26z"/>
<path d="M1427 1260 c-220 -37 -381 -261 -346 -482 35 -229 257 -395 480 -359
231 38 395 255 360 478 -29 184 -167 329 -346 362 -65 12 -79 12 -148 1z m237
-58 c91 -42 149 -100 194 -190 35 -72 37 -81 37 -172 0 -91 -2 -100 -37 -172
-45 -91 -103 -147 -196 -191 -61 -29 -76 -32 -163 -32 -90 0 -99 2 -171 38
-244 120 -301 422 -120 628 43 48 133 102 198 119 72 18 187 5 258 -28z"/>
<path d="M1282 1137 c-12 -13 -26 -45 -31 -73 -8 -43 -8 -47 5 -30 7 10 11 23
8 28 -3 5 10 27 30 48 20 22 36 42 36 45 0 13 -29 2 -48 -18z"/>
<path d="M1359 1132 c-24 -16 -53 -40 -64 -53 l-20 -24 25 21 c34 29 64 44 89
44 25 0 71 20 71 32 0 18 -59 6 -101 -20z"/>
<path d="M1546 1152 c-6 -10 26 -22 95 -36 29 -6 119 -86 119 -106 0 -7 -16 3
-35 23 -20 21 -43 37 -52 37 -28 0 9 -43 58 -67 32 -15 49 -32 61 -60 19 -41
26 -140 8 -113 -5 8 -10 31 -10 51 0 34 -14 59 -33 59 -16 0 2 -62 28 -102 14
-21 25 -42 25 -48 0 -20 -54 -143 -58 -132 -2 7 4 31 13 54 11 30 13 44 5 52
-17 17 -30 -12 -30 -73 0 -43 -5 -60 -22 -80 l-23 -25 35 25 c19 13 48 31 65
39 31 16 64 64 52 76 -10 11 -44 -24 -51 -52 -4 -13 -11 -24 -16 -24 -13 0
-13 1 11 57 11 26 32 60 47 76 19 20 26 37 25 63 -1 40 -7 49 -22 39 -6 -3
-11 -29 -11 -57 0 -28 -2 -49 -5 -46 -3 3 -6 61 -6 129 -1 115 -8 149 -30 149
-14 0 -10 -34 7 -58 8 -12 14 -30 12 -39 -2 -11 -14 2 -32 37 -46 88 -205 193
-230 152z"/>
<path d="M1680 1147 c0 -7 16 -29 36 -48 l37 -34 -7 30 c-10 43 -66 87 -66 52z"/>
<path d="M1196 1048 c-15 -24 -17 -38 -10 -100 4 -40 9 -64 11 -53 13 65 26
86 61 101 38 15 82 51 82 66 0 17 -24 6 -57 -27 -19 -19 -38 -33 -42 -30 -5 2
-14 -7 -21 -20 -7 -14 -17 -25 -22 -25 -12 0 -10 13 8 38 8 12 14 35 12 50
l-3 27 -19 -27z"/>
<path d="M1404 1036 c-170 -79 -175 -316 -9 -399 58 -28 75 -30 75 -9 0 13
-10 24 -30 31 -68 23 -108 66 -124 134 -6 27 -6 27 44 27 38 0 50 4 50 15 0
11 -12 15 -50 15 -57 0 -59 5 -31 66 21 45 56 77 107 96 22 8 34 19 34 30 0
23 -5 23 -66 -6z"/>
<path d="M1530 1043 c0 -12 12 -23 34 -31 51 -19 86 -51 107 -96 29 -63 26
-68 -31 -64 -45 3 -50 1 -50 -17 0 -18 5 -20 50 -17 57 4 60 -1 31 -64 -21
-45 -56 -77 -107 -96 -22 -8 -34 -19 -34 -31 0 -14 5 -17 23 -11 126 39 195
148 168 268 -18 81 -79 143 -168 170 -18 6 -23 3 -23 -11z"/>
<path d="M1220 914 c-6 -14 -10 -38 -10 -54 0 -31 -15 -48 -24 -28 -3 7 -3 -2
0 -21 4 -23 3 -31 -5 -27 -6 4 -11 29 -11 56 0 49 -13 73 -24 44 -14 -36 -5
-74 22 -102 15 -16 36 -50 46 -76 10 -26 20 -45 22 -43 3 2 -5 25 -16 51 -25
60 -25 90 0 124 24 33 38 102 21 102 -6 0 -16 -12 -21 -26z"/>
<path d="M1234 739 c18 -89 1 -115 -32 -50 -19 40 -42 52 -42 24 0 -22 49 -73
70 -73 7 0 25 -10 38 -22 l25 -23 -17 27 c-12 18 -16 37 -12 55 7 35 -6 85
-23 91 -10 3 -12 -3 -7 -29z"/>
<path d="M1300 646 c0 -8 17 -28 37 -45 28 -23 34 -34 26 -42 -9 -9 -22 -7
-54 9 -49 24 -61 21 -34 -8 13 -15 31 -20 67 -20 27 0 65 -7 85 -15 37 -16 50
-14 38 4 -3 6 -17 11 -31 11 -23 0 -64 31 -64 49 0 13 -50 71 -61 71 -5 0 -9
-6 -9 -14z"/>
<path d="M1674 646 c-11 -8 -29 -33 -39 -55 -15 -35 -24 -42 -56 -47 -21 -4
-40 -13 -43 -20 -7 -18 12 -17 44 1 14 8 50 14 81 15 54 0 79 12 79 36 0 15
-35 7 -51 -12 -13 -16 -45 -19 -54 -4 -3 5 0 7 7 5 8 -3 22 2 33 10 19 16 19
16 -2 6 -38 -19 -38 -12 0 23 50 45 50 76 1 42z"/>
<path d="M1035 1200 c-3 -5 -1 -18 5 -29 15 -28 13 -31 -18 -31 -16 0 -32 -3
-35 -6 -6 -6 96 -84 108 -84 16 0 0 23 -30 42 -39 26 -44 38 -15 38 11 0 20 7
20 15 0 8 4 15 9 15 5 0 14 -7 21 -15 14 -17 30 -20 30 -6 0 15 -89 71 -95 61z"/>
<path d="M1903 1167 c-29 -18 -53 -35 -53 -39 0 -14 25 -8 50 12 14 11 29 20
34 20 16 0 -4 -62 -26 -80 -31 -26 -12 -25 40 2 40 22 60 47 26 34 -14 -5 -15
0 -10 39 4 25 4 45 -1 44 -4 0 -32 -15 -60 -32z"/>
<path d="M970 1049 c0 -9 7 -22 15 -29 19 -16 12 -26 -25 -33 -16 -4 -30 -11
-30 -17 0 -7 9 -9 22 -4 12 4 45 10 73 13 44 6 47 8 25 15 -14 5 -37 23 -52
40 -19 22 -27 26 -28 15z"/>
<path d="M1995 1040 c-22 -11 -48 -21 -59 -24 -10 -2 -15 -9 -12 -15 7 -11
118 31 124 48 5 15 -5 13 -53 -9z"/>
<path d="M1950 890 c0 -27 2 -50 4 -50 17 0 136 64 129 70 -7 7 -102 30 -123
30 -6 0 -10 -22 -10 -50z m78 20 c23 0 12 -16 -23 -33 l-35 -17 0 31 c0 28 3
31 23 25 12 -3 28 -6 35 -6z"/>
<path d="M925 914 c-10 -10 -15 -29 -13 -48 3 -31 4 -31 66 -34 38 -2 62 1 62
8 0 5 -9 10 -20 10 -15 0 -20 7 -20 24 0 27 -24 56 -45 56 -7 0 -21 -7 -30
-16z m55 -45 c0 -14 -7 -19 -25 -19 -27 0 -35 26 -13 48 15 15 38 -3 38 -29z"/>
<path d="M1984 798 c-47 -22 -50 -93 -5 -117 74 -40 140 56 75 108 -30 23 -39
24 -70 9z m58 -25 c33 -30 17 -83 -26 -83 -23 0 -56 27 -56 47 0 16 36 53 52
53 6 0 20 -7 30 -17z"/>
<path d="M990 748 c-29 -18 -55 -38 -57 -44 -4 -12 49 -24 106 -24 33 0 33 0
26 38 -12 64 -15 65 -75 30z m52 -23 c5 -23 2 -25 -33 -25 -46 0 -49 9 -11 32
36 23 39 22 44 -7z"/>
<path d="M1032 599 c-30 -17 -51 -33 -48 -37 8 -7 116 49 116 61 0 12 -13 8
-68 -24z"/>
<path d="M1910 623 c0 -5 11 -16 25 -23 13 -7 27 -26 30 -41 4 -16 11 -29 17
-29 6 0 8 8 5 18 -13 46 -13 47 26 50 57 5 44 23 -15 20 -29 -1 -61 1 -70 6
-11 5 -18 4 -18 -1z"/>
<path d="M1125 470 c-4 -7 -3 -16 3 -22 14 -14 45 -2 40 15 -6 16 -34 21 -43
7z"/>
<path d="M1845 470 c-4 -7 -3 -16 3 -22 14 -14 45 -2 40 15 -6 16 -34 21 -43
7z"/>
<path d="M1280 405 c0 -9 -9 -33 -20 -55 -12 -23 -16 -41 -10 -45 9 -5 60 83
60 105 0 5 -7 10 -15 10 -8 0 -15 -7 -15 -15z"/>
<path d="M1682 358 c-6 -34 -10 -64 -8 -66 3 -2 16 4 30 13 14 9 33 14 43 11
14 -4 19 -1 19 14 0 11 -4 20 -8 20 -5 0 -16 16 -25 35 -9 19 -22 35 -28 35
-6 0 -17 -28 -23 -62z m42 5 c4 -9 0 -23 -8 -32 -20 -19 -26 -13 -19 22 6 31
18 35 27 10z"/>
<path d="M1380 376 c-21 -26 -8 -61 23 -64 39 -5 28 -27 -12 -25 -38 1 -37
-20 1 -25 33 -4 58 22 58 59 0 59 -40 90 -70 55z m48 -27 c4 -19 -19 -31 -38
-19 -18 11 -4 42 17 38 10 -2 19 -10 21 -19z"/>
<path d="M1548 382 c-24 -3 -28 -8 -28 -38 0 -36 8 -42 29 -21 10 10 15 8 26
-6 19 -27 8 -50 -22 -44 -15 3 -22 0 -20 -7 2 -6 16 -12 30 -14 20 -3 30 3 38
21 15 34 -3 67 -37 67 -32 0 -27 22 7 30 31 7 13 17 -23 12z"/>
</g>
</svg>
