<?xml version="1.0" encoding="UTF-8"?>
<!DOCTYPE svg PUBLIC "-//W3C//DTD SVG 1.1//EN" "http://www.w3.org/Graphics/SVG/1.1/DTD/svg11.dtd">
<svg xmlns="http://www.w3.org/2000/svg" version="1.1" width="225px" height="224px" style="shape-rendering:geometricPrecision; text-rendering:geometricPrecision; image-rendering:optimizeQuality; fill-rule:evenodd; clip-rule:evenodd" xmlns:xlink="http://www.w3.org/1999/xlink">
<g><path style="opacity:1" fill="#fdfcfc" d="M -0.5,-0.5 C 35.1667,-0.5 70.8333,-0.5 106.5,-0.5C 56.6598,4.48987 22.8265,30.4899 5,77.5C 3.13448,84.9621 1.30115,92.2954 -0.5,99.5C -0.5,66.1667 -0.5,32.8333 -0.5,-0.5 Z"/></g>
<g><path style="opacity:1" fill="#fdfcfc" d="M 117.5,-0.5 C 153.167,-0.5 188.833,-0.5 224.5,-0.5C 224.5,33.1667 224.5,66.8333 224.5,100.5C 213.731,40.3965 178.064,6.72983 117.5,-0.5 Z"/></g>
<g><path style="opacity:1" fill="#891f17" d="M 106.5,-0.5 C 110.167,-0.5 113.833,-0.5 117.5,-0.5C 178.064,6.72983 213.731,40.3965 224.5,100.5C 224.5,107.167 224.5,113.833 224.5,120.5C 217.791,170.378 190.457,203.211 142.5,219C 135.367,220.516 128.367,222.016 121.5,223.5C 115.5,223.5 109.5,223.5 103.5,223.5C 58.7447,217.866 26.9114,194.532 8,153.5C 4.19913,142.954 1.3658,132.288 -0.5,121.5C -0.5,114.167 -0.5,106.833 -0.5,99.5C 1.30115,92.2954 3.13448,84.9621 5,77.5C 22.8265,30.4899 56.6598,4.48987 106.5,-0.5 Z"/></g>
<g><path style="opacity:1" fill="#b27b79" d="M 153.5,13.5 C 153.664,16.1873 153.497,18.854 153,21.5C 152.283,20.9558 151.783,20.2891 151.5,19.5C 152.167,17.5 152.833,15.5 153.5,13.5 Z"/></g>
<g><path style="opacity:1" fill="#f2e9e8" d="M 159.5,15.5 C 159.56,14.9569 159.893,14.6236 160.5,14.5C 165.333,17.0821 170,19.9155 174.5,23C 170.275,22.9802 166.442,24.1469 163,26.5C 162.667,23.8333 162.333,21.1667 162,18.5C 161.623,17.0577 160.79,16.0577 159.5,15.5 Z"/></g>
<g><path style="opacity:1" fill="#ddc4c2" d="M 154.5,14.5 C 157.452,15.3589 159.285,17.3589 160,20.5C 160.966,24.1177 160.466,27.451 158.5,30.5C 156.026,25.4657 154.693,20.1324 154.5,14.5 Z"/></g>
<g><path style="opacity:1" fill="#faf6f6" d="M 153.5,13.5 C 152.833,15.5 152.167,17.5 151.5,19.5C 149.977,16.5446 147.977,15.7113 145.5,17C 144.473,23.3524 144.473,29.5191 145.5,35.5C 142.634,33.5675 139.634,31.9009 136.5,30.5C 130.387,28.0549 124.054,26.3882 117.5,25.5C 117.597,18.8599 114.931,13.6932 109.5,10C 107.5,9.33333 105.5,9.33333 103.5,10C 105.95,12.3887 107.117,15.222 107,18.5C 103.006,13.4186 97.8392,10.9186 91.5,11C 93.7624,16.5269 97.4291,20.8602 102.5,24C 101.167,24.6667 99.8333,24.6667 98.5,24C 94.4755,17.2431 88.6422,13.0764 81,11.5C 80.9776,15.2927 82.4776,18.4593 85.5,21C 85,21.1667 84.5,21.3333 84,21.5C 81.4741,17.9682 78.1408,15.6348 74,14.5C 73.1667,14.8333 72.3333,15.1667 71.5,15.5C 71.6236,16.1067 71.9569,16.44 72.5,16.5C 72.7993,19.6421 74.4659,21.8088 77.5,23C 76.9056,23.4643 76.2389,23.631 75.5,23.5C 70.3322,21.088 64.9988,18.9214 59.5,17C 82.3248,4.25156 106.658,0.251561 132.5,5C 139.357,6.38062 146.023,8.38062 152.5,11C 153.252,11.6708 153.586,12.5041 153.5,13.5 Z"/></g>
<g><path style="opacity:1" fill="#e6d4d3" d="M 55.5,19.5 C 60.7594,19.3092 65.4261,20.8092 69.5,24C 63.3685,25.2658 57.7019,24.2658 52.5,21C 53.7375,20.7679 54.7375,20.2679 55.5,19.5 Z"/></g>
<g><path style="opacity:1" fill="#ebdddc" d="M 146.5,17.5 C 149.815,19.4408 151.649,22.4408 152,26.5C 152.827,30.5411 152.66,34.5411 151.5,38.5C 148.956,35.7247 147.456,32.3914 147,28.5C 146.501,24.8484 146.335,21.1817 146.5,17.5 Z"/></g>
<g><path style="opacity:1" fill="#f3eaea" d="M 49.5,22.5 C 53.1486,23.8279 56.8153,25.1612 60.5,26.5C 58.1833,29.3174 55.6833,31.9841 53,34.5C 51.6,39.6372 48.9334,43.9705 45,47.5C 46.2037,42.6365 46.537,37.6365 46,32.5C 45.5814,31.3279 44.9147,30.3279 44,29.5C 44.024,31.7632 44.1907,34.0965 44.5,36.5C 44.6147,39.388 43.9481,42.0547 42.5,44.5C 39.7975,40.5656 38.9642,36.2322 40,31.5C 43.0359,28.2956 46.2026,25.2956 49.5,22.5 Z"/></g>
<g><path style="opacity:1" fill="#dfc9c8" d="M 80.5,26.5 C 80.5,26.8333 80.5,27.1667 80.5,27.5C 77.4787,30.4151 74.812,30.0817 72.5,26.5C 75.0436,26.0509 77.7102,26.0509 80.5,26.5 Z"/></g>
<g><path style="opacity:1" fill="#e1cbc9" d="M 64.5,26.5 C 66.288,26.2148 67.9547,26.5481 69.5,27.5C 67.1501,30.5573 64.1501,31.2239 60.5,29.5C 61.9014,28.4793 63.2347,27.4793 64.5,26.5 Z"/></g>
<g><path style="opacity:1" fill="#f0e5e4" d="M 168.5,26.5 C 172.637,26.1463 176.637,26.6463 180.5,28C 174.662,33.0035 167.996,34.8368 160.5,33.5C 162.595,30.398 165.262,28.0647 168.5,26.5 Z"/></g>
<g><path style="opacity:1" fill="#a86159" d="M 168.5,28.5 C 170.199,28.3398 171.866,28.5065 173.5,29C 170.155,30.3312 166.822,31.3312 163.5,32C 165.233,30.8111 166.9,29.6444 168.5,28.5 Z"/></g>
<g><path style="opacity:1" fill="#f8f2f2" d="M 87.5,29.5 C 94.3257,32.4837 99.8257,37.1503 104,43.5C 105.277,47.0969 105.61,50.7636 105,54.5C 103.765,58.6308 102.265,62.6308 100.5,66.5C 99.5416,66.9528 98.7083,67.6195 98,68.5C 95,66.1667 92,63.8333 89,61.5C 88.5172,60.552 88.3505,59.552 88.5,58.5C 85.5357,60.3735 83.0357,62.7068 81,65.5C 74.4378,62.4248 73.2711,58.0915 77.5,52.5C 79.4192,51.3875 81.0858,50.0542 82.5,48.5C 84.6178,45.6533 87.2844,44.9866 90.5,46.5C 90.4226,47.7498 89.756,48.5831 88.5,49C 90.4273,52.4605 91.7607,52.2939 92.5,48.5C 95.7121,45.9787 96.2121,42.9787 94,39.5C 89.5053,34.8364 84.0053,32.1697 77.5,31.5C 80.6022,29.8173 83.9356,29.1506 87.5,29.5 Z"/></g>
<g><path style="opacity:1" fill="#ae6d67" d="M 149.5,27.5 C 151.203,29.8512 151.703,32.5178 151,35.5C 150.178,32.8832 149.678,30.2165 149.5,27.5 Z"/></g>
<g><path style="opacity:1" fill="#faf6f6" d="M 189.5,185.5 C 184.411,181.185 179.578,176.519 175,171.5C 174.517,170.552 174.351,169.552 174.5,168.5C 192.425,144.945 197.425,118.945 189.5,90.5C 185.382,74.0922 177.049,60.2589 164.5,49C 167.361,46.7806 169.361,43.9473 170.5,40.5C 170.043,39.7025 169.376,39.3691 168.5,39.5C 168.158,38.6618 167.492,38.3284 166.5,38.5C 163.482,38.6646 160.482,38.498 157.5,38C 157.833,37.6667 158.167,37.3333 158.5,37C 163.051,35.7852 167.718,35.1186 172.5,35C 176.16,32.9976 179.827,31.331 183.5,30C 221.017,65.9101 230.183,108.077 211,156.5C 206.415,165.342 201.082,173.675 195,181.5C 193.549,183.464 191.716,184.797 189.5,185.5 Z"/></g>
<g><path style="opacity:1" fill="#e5d2d1" d="M 154.5,31.5 C 156.252,31.4176 157.252,32.2509 157.5,34C 156.73,35.7748 155.563,37.2748 154,38.5C 153.982,36.2028 154.149,33.8695 154.5,31.5 Z"/></g>
<g><path style="opacity:1" fill="#f0e6e5" d="M 136.5,32.5 C 137.107,36.9028 135.44,38.2361 131.5,36.5C 129.852,43.7766 130.518,50.7766 133.5,57.5C 134.74,58.973 135.74,60.6396 136.5,62.5C 133.546,64.1475 131.38,63.4808 130,60.5C 127.395,51.5188 124.895,42.5188 122.5,33.5C 124.343,33.2448 126.343,33.0781 128.5,33C 126.003,32.5883 124.003,31.4216 122.5,29.5C 126.623,28.5521 129.956,29.8855 132.5,33.5C 132.833,32.8333 133.167,32.1667 133.5,31.5C 134.417,32.1272 135.417,32.4606 136.5,32.5 Z"/></g>
<g><path style="opacity:1" fill="#f2e9e9" d="M 82.5,48.5 C 80.5183,48.9954 78.5183,49.4954 76.5,50C 73.7477,53.078 71.4144,56.4113 69.5,60C 68.2068,60.49 66.8734,60.6567 65.5,60.5C 65.3862,63.994 64.2196,66.994 62,69.5C 59.3612,68.0056 56.5279,67.3389 53.5,67.5C 55.7197,64.2351 56.8864,60.5685 57,56.5C 61.438,53.2395 64.438,48.9062 66,43.5C 68.3444,40.7891 70.5111,37.9557 72.5,35C 80.5755,33.3589 87.4088,35.5256 93,41.5C 93.4828,42.448 93.6495,43.448 93.5,44.5C 92.448,44.6495 91.448,44.4828 90.5,44C 86.6456,38.0734 81.3123,36.0734 74.5,38C 77.6978,38.8485 80.5311,40.3485 83,42.5C 83.4901,44.5454 83.3235,46.5454 82.5,48.5 Z"/></g>
<g><path style="opacity:1" fill="#dac1c0" d="M 57.5,32.5 C 58.9778,32.238 60.3112,32.5713 61.5,33.5C 59.6394,36.1169 57.3061,37.1169 54.5,36.5C 55.5244,35.1482 56.5244,33.8149 57.5,32.5 Z"/></g>
<g><path style="opacity:1" fill="#f7f2f2" d="M 65.5,34.5 C 67.0281,34.5173 67.5281,35.184 67,36.5C 63.551,39.3737 60.551,42.707 58,46.5C 54.4746,51.5521 51.4746,56.8855 49,62.5C 49.3492,66.4592 47.6826,69.1259 44,70.5C 42.1308,64.6182 41.1308,58.6182 41,52.5C 48.6124,45.624 56.779,39.624 65.5,34.5 Z"/></g>
<g><path style="opacity:1" fill="#e3d0cf" d="M 34.5,36.5 C 34.8204,39.8984 34.487,43.2317 33.5,46.5C 32.0405,42.8604 32.3739,39.5271 34.5,36.5 Z"/></g>
<g><path style="opacity:1" fill="#d7bcbb" d="M 141.5,44.5 C 139.501,45.8565 138.335,45.1899 138,42.5C 137.161,39.8604 137.661,37.5271 139.5,35.5C 141.272,36.2697 142.272,37.6031 142.5,39.5C 141.954,41.1347 141.62,42.8014 141.5,44.5 Z"/></g>
<g><path style="opacity:1" fill="#eee2e1" d="M 145.5,52.5 C 145.254,49.7067 145.087,46.7067 145,43.5C 143.663,47.0257 143.163,50.6924 143.5,54.5C 141.867,52.0669 141.2,48.7335 141.5,44.5C 142.751,42.6181 143.918,40.6181 145,38.5C 148.155,43.0814 148.321,47.748 145.5,52.5 Z"/></g>
<g><path style="opacity:1" fill="#b17b79" d="M 166.5,38.5 C 167.492,38.3284 168.158,38.6618 168.5,39.5C 168.5,39.8333 168.5,40.1667 168.5,40.5C 166.5,40.5 164.5,40.5 162.5,40.5C 163.833,39.8333 165.167,39.1667 166.5,38.5 Z"/></g>
<g><path style="opacity:1" fill="#f4edec" d="M 162.5,40.5 C 164.5,40.5 166.5,40.5 168.5,40.5C 164.416,48.2021 158.083,50.8687 149.5,48.5C 152.443,43.5304 156.777,40.8637 162.5,40.5 Z"/></g>
<g><path style="opacity:1" fill="#e9dad9" d="M 29.5,40.5 C 30.7879,42.0348 30.7879,43.7015 29.5,45.5C 28.2322,46.4279 26.8989,46.5946 25.5,46C 27.4388,44.5679 28.7721,42.7346 29.5,40.5 Z"/></g>
<g><path style="opacity:1" fill="#8d2a1f" d="M 74.5,42.5 C 79.3157,40.4195 81.6491,42.0861 81.5,47.5C 79.4727,47.6621 77.4727,47.4955 75.5,47C 76.7932,46.51 78.1266,46.3433 79.5,46.5C 79.2542,43.5299 77.5876,42.1966 74.5,42.5 Z"/></g>
<g><path style="opacity:1" fill="#ede0e0" d="M 34.5,36.5 C 35.1217,35.3734 35.955,34.3734 37,33.5C 38.2942,39.1652 38.7942,44.8319 38.5,50.5C 37.0222,50.762 35.6888,50.4287 34.5,49.5C 37.0218,44.9973 37.0218,40.664 34.5,36.5 Z"/></g>
<g><path style="opacity:1" fill="#95403a" d="M 71.5,43.5 C 72.0431,43.56 72.3764,43.8933 72.5,44.5C 71.635,45.5827 70.635,45.7494 69.5,45C 70.4158,44.7216 71.0825,44.2216 71.5,43.5 Z"/></g>
<g><path style="opacity:1" fill="#a2554c" d="M 156.5,46.5 C 158.179,44.8253 160.179,43.992 162.5,44C 160.842,45.6625 158.842,46.4959 156.5,46.5 Z"/></g>
<g><path style="opacity:1" fill="#d7bcbb" d="M 39.5,44.5 C 42.1567,45.4793 42.8234,47.146 41.5,49.5C 39.7826,48.3315 39.1159,46.6648 39.5,44.5 Z"/></g>
<g><path style="opacity:1" fill="#ebdbda" d="M 140.5,56.5 C 139.851,57.6063 139.517,58.6063 139.5,59.5C 138.148,58.4756 136.815,57.4756 135.5,56.5C 132.725,51.1709 131.892,45.5042 133,39.5C 137.528,44.2449 140.028,49.9115 140.5,56.5 Z"/></g>
<g><path style="opacity:1" fill="#bc8a87" d="M 145.5,52.5 C 145.167,53.5 144.5,54.1667 143.5,54.5C 143.163,50.6924 143.663,47.0257 145,43.5C 145.087,46.7067 145.254,49.7067 145.5,52.5 Z"/></g>
<g><path style="opacity:1" fill="#a65b51" d="M 156.5,46.5 C 155.201,48.0986 153.535,48.5986 151.5,48C 153.025,46.9914 154.692,46.4914 156.5,46.5 Z"/></g>
<g><path style="opacity:1" fill="#ae6f68" d="M 71.5,47.5 C 72.675,47.281 73.675,47.6143 74.5,48.5C 73.277,49.6139 71.9437,49.7805 70.5,49C 71.056,48.6174 71.3893,48.1174 71.5,47.5 Z"/></g>
<g><path style="opacity:1" fill="#b17570" d="M 90.5,46.5 C 91.1667,47.1667 91.8333,47.8333 92.5,48.5C 91.7607,52.2939 90.4273,52.4605 88.5,49C 89.756,48.5831 90.4226,47.7498 90.5,46.5 Z"/></g>
<g><path style="opacity:1" fill="#8b241b" d="M 187.5,42.5 C 189.983,45.1551 192.316,47.9884 194.5,51C 194.15,52.2575 193.483,52.5908 192.5,52C 190.641,50.4422 189.141,48.6089 188,46.5C 185.085,49.1284 185.252,51.7951 188.5,54.5C 188.192,55.3081 187.692,55.9747 187,56.5C 185.954,54.9095 184.787,53.4095 183.5,52C 181.924,51.6124 180.591,52.1124 179.5,53.5C 181.226,55.2279 182.559,57.2279 183.5,59.5C 183.192,60.3081 182.692,60.9747 182,61.5C 179.833,58.6667 177.667,55.8333 175.5,53C 179.693,49.6349 183.693,46.1349 187.5,42.5 Z"/></g>
<g><path style="opacity:1" fill="#e0cbca" d="M 25.5,48.5 C 27.288,48.2148 28.9547,48.5481 30.5,49.5C 27.961,52.0403 24.961,52.8737 21.5,52C 22.7305,50.5952 24.0639,49.4286 25.5,48.5 Z"/></g>
<g><path style="opacity:1" fill="#913429" d="M 135.5,49.5 C 137.175,51.1788 138.008,53.1788 138,55.5C 136.337,53.8421 135.504,51.8421 135.5,49.5 Z"/></g>
<g><path style="opacity:1" fill="#f7f2f2" d="M 166.5,69.5 C 159.176,70.4288 151.842,70.9288 144.5,71C 143.271,69.4708 141.771,68.3041 140,67.5C 139.333,66.5 139.333,65.5 140,64.5C 143.916,64.4303 147.75,64.0969 151.5,63.5C 155.936,62.4011 159.603,60.0678 162.5,56.5C 158.03,54.8619 153.363,54.0286 148.5,54C 149.328,53.0853 150.328,52.4186 151.5,52C 155.538,51.4386 159.538,51.1053 163.5,51C 168.335,55.1882 172.335,60.0215 175.5,65.5C 172.496,66.9891 169.496,68.3224 166.5,69.5 Z"/></g>
<g><path style="opacity:1" fill="#8e2e25" d="M 65.5,50.5 C 66.643,55.2013 64.643,57.368 59.5,57C 62.3859,55.6155 64.3859,53.4488 65.5,50.5 Z"/></g>
<g><path style="opacity:1" fill="#fcfaf9" d="M 19.5,54.5 C 21.1992,54.3398 22.8659,54.5065 24.5,55C 23.1667,56 23.1667,57 24.5,58C 28.1697,58.6382 31.6697,58.1382 35,56.5C 35.1667,56.8333 35.3333,57.1667 35.5,57.5C 23.8234,75.7151 19.4901,95.5484 22.5,117C 22.5771,119.051 22.0771,120.884 21,122.5C 18.8333,119.667 16.6667,116.833 14.5,114C 11.2686,112.534 7.93527,111.367 4.5,110.5C 3.7768,90.3309 8.7768,71.6642 19.5,54.5 Z"/></g>
<g><path style="opacity:1" fill="#e1cccb" d="M 29.5,52.5 C 38.5197,52.8559 38.5197,54.1893 29.5,56.5C 28.5,56.1667 27.5,55.8333 26.5,55.5C 27.3398,54.265 28.3398,53.265 29.5,52.5 Z"/></g>
<g><path style="opacity:1" fill="#851e17" d="M 67.5,54.5 C 68.525,54.8966 68.6917,55.5632 68,56.5C 67.1627,58.0074 65.9961,58.5074 64.5,58C 65.7101,56.9609 66.7101,55.7942 67.5,54.5 Z"/></g>
<g><path style="opacity:1" fill="#ead9d8" d="M 146.5,61.5 C 145.127,61.6567 143.793,61.49 142.5,61C 143.252,60.3292 143.586,59.4959 143.5,58.5C 148.617,56.5025 153.95,56.0025 159.5,57C 155.56,59.5702 151.227,61.0702 146.5,61.5 Z"/></g>
<g><path style="opacity:1" fill="#f8f4f4" d="M 34.5,100.5 C 35.9649,103.366 36.9649,106.366 37.5,109.5C 38.9378,114.28 41.6045,118.28 45.5,121.5C 40.9347,124.442 36.7681,123.775 33,119.5C 28.4113,111.68 25.578,103.346 24.5,94.5C 25.6889,80.4319 30.5223,67.7652 39,56.5C 40.3068,60.0605 41.1402,63.7272 41.5,67.5C 41.6738,69.6934 41.0071,71.5267 39.5,73C 41.4206,74.2408 41.754,75.7408 40.5,77.5C 38.7105,76.1228 36.7105,75.1228 34.5,74.5C 33.6725,78.7956 33.1725,83.1289 33,87.5C 30.3009,90.1235 30.8009,92.6235 34.5,95C 33.3128,96.0195 32.3128,97.1861 31.5,98.5C 32.0047,99.9185 33.0047,100.585 34.5,100.5 Z"/></g>
<g><path style="opacity:1" fill="#aa655f" d="M 146.5,58.5 C 150.339,58.6121 150.339,59.2787 146.5,60.5C 145.537,60.0302 145.537,59.3635 146.5,58.5 Z"/></g>
<g><path style="opacity:1" fill="#a9625b" d="M 58.5,60.5 C 61.0628,61.9979 61.0628,63.6646 58.5,65.5C 58.1928,64.1125 58.1928,62.4458 58.5,60.5 Z"/></g>
<g><path style="opacity:1" fill="#994a43" d="M 62.5,62.5 C 63.522,63.8917 63.1887,65.225 61.5,66.5C 61.1667,66.3333 60.8333,66.1667 60.5,66C 61.305,64.8873 61.9717,63.7206 62.5,62.5 Z"/></g>
<g><path style="opacity:1" fill="#f1e7e7" d="M 174.5,80.5 C 174.833,79.1667 175.167,77.8333 175.5,76.5C 176.321,73.3586 176.821,70.0252 177,66.5C 179.087,69.6728 180.921,73.0061 182.5,76.5C 180.357,78.7765 177.69,80.1099 174.5,80.5 Z"/></g>
<g><path style="opacity:1" fill="#ede1e0" d="M 49.5,67.5 C 50.3764,67.3691 51.0431,67.7025 51.5,68.5C 50.8678,70.9647 49.3678,72.6314 47,73.5C 46.3333,72.5 46.3333,71.5 47,70.5C 48.045,69.6266 48.8783,68.6266 49.5,67.5 Z"/></g>
<g><path style="opacity:1" fill="#85140d" d="M 198.5,60.5 C 199.497,60.4701 200.164,60.9701 200.5,62C 199.421,64.1552 198.087,66.1552 196.5,68C 199.226,68.1816 201.893,68.6816 204.5,69.5C 200.878,70.3253 197.211,70.8253 193.5,71C 191.919,71.7065 190.419,72.5399 189,73.5C 188.308,72.9747 187.808,72.3081 187.5,71.5C 192.188,68.812 195.855,65.1453 198.5,60.5 Z"/></g>
<g><path style="opacity:1" fill="#ebdedd" d="M 175.5,76.5 C 174.5,76.8333 173.833,77.5 173.5,78.5C 173.071,77.0473 172.904,75.3806 173,73.5C 172.333,74.8333 171.667,76.1667 171,77.5C 170.536,76.9056 170.369,76.2389 170.5,75.5C 170.69,72.1228 172.19,69.4561 175,67.5C 175.498,70.4816 175.665,73.4816 175.5,76.5 Z"/></g>
<g><path style="opacity:1" fill="#f5efee" d="M 166.5,69.5 C 167.873,69.3433 169.207,69.51 170.5,70C 169.277,72.0521 168.277,74.2188 167.5,76.5C 165.932,74.7997 164.099,73.4664 162,72.5C 160.42,75.9717 160.087,79.6384 161,83.5C 161.697,85.5844 162.864,87.2511 164.5,88.5C 165.435,91.1128 165.602,93.7795 165,96.5C 160.082,88.4151 154.582,80.7485 148.5,73.5C 154.722,72.5811 160.722,71.2477 166.5,69.5 Z"/></g>
<g><path style="opacity:1" fill="#eedfde" d="M 35.5,77.5 C 39.0198,78.1828 41.5198,80.1828 43,83.5C 44.434,87.4065 44.7673,91.4065 44,95.5C 37.6467,91.128 34.8133,85.128 35.5,77.5 Z"/></g>
<g><path style="opacity:1" fill="#e7d7d6" d="M 167.5,84.5 C 165.955,83.7703 165.122,82.437 165,80.5C 164.768,81.7375 164.268,82.7375 163.5,83.5C 162.532,80.5547 162.366,77.5547 163,74.5C 166.406,76.9788 167.906,80.3121 167.5,84.5 Z"/></g>
<g><path style="opacity:1" fill="#aa6761" d="M 173.5,78.5 C 172.655,80.7619 171.322,81.4286 169.5,80.5C 169.216,78.5853 169.549,76.9187 170.5,75.5C 170.369,76.2389 170.536,76.9056 171,77.5C 171.667,76.1667 172.333,74.8333 173,73.5C 172.904,75.3806 173.071,77.0473 173.5,78.5 Z"/></g>
<g><path style="opacity:1" fill="#f5eeee" d="M 187.5,91.5 C 184.262,90.3668 180.929,89.5334 177.5,89C 178.71,87.9609 179.71,86.7942 180.5,85.5C 181.594,83.6406 182.427,81.6406 183,79.5C 185.385,83.153 186.885,87.153 187.5,91.5 Z"/></g>
<g><path style="opacity:1" fill="#dabcb9" d="M 178.5,85.5 C 170.552,90.2402 169.219,89.2402 174.5,82.5C 176.84,81.914 179.007,80.914 181,79.5C 181.028,81.7866 180.195,83.7866 178.5,85.5 Z"/></g>
<g><path style="opacity:1" fill="#871b13" d="M 205.5,82.5 C 207.451,82.2267 208.951,82.8934 210,84.5C 213.052,91.6037 210.885,94.7704 203.5,94C 202.056,92.2365 201.056,90.2365 200.5,88C 198.203,87.9822 195.869,88.1489 193.5,88.5C 193.5,87.5 193.5,86.5 193.5,85.5C 197.837,85.4159 201.837,84.4159 205.5,82.5 Z"/></g>
<g><path style="opacity:1" fill="#953e35" d="M 39.5,84.5 C 41.1747,86.1788 42.008,88.1788 42,90.5C 40.3375,88.8421 39.5041,86.8421 39.5,84.5 Z"/></g>
<g><path style="opacity:1" fill="#f2e9e9" d="M 205.5,85.5 C 206.496,85.4142 207.329,85.7476 208,86.5C 208.494,88.1341 208.66,89.8008 208.5,91.5C 203.331,91.4576 202.331,89.4576 205.5,85.5 Z"/></g>
<g><path style="opacity:1" fill="#eee1e0" d="M 32.5,89.5 C 35.0014,89.8256 36.1681,91.1589 36,93.5C 34.3732,92.4677 33.2066,91.1344 32.5,89.5 Z"/></g>
<g><path style="opacity:1" fill="#e1cccb" d="M 33.5,97.5 C 34.9778,97.238 36.3112,97.5713 37.5,98.5C 36.8333,98.8333 36.1667,99.1667 35.5,99.5C 34.2867,99.2528 33.62,98.5862 33.5,97.5 Z"/></g>
<g><path style="opacity:1" fill="#f1e6e6" d="M 46.5,103.5 C 45.5416,103.047 44.7083,102.381 44,101.5C 44.4509,103.52 45.2843,105.52 46.5,107.5C 42.791,105.777 40.791,102.777 40.5,98.5C 43.7124,98.7124 45.7124,100.379 46.5,103.5 Z"/></g>
<g><path style="opacity:1" fill="#c99c97" d="M 46.5,103.5 C 48.3003,104.895 48.6336,106.561 47.5,108.5C 46.8933,108.376 46.56,108.043 46.5,107.5C 45.2843,105.52 44.4509,103.52 44,101.5C 44.7083,102.381 45.5416,103.047 46.5,103.5 Z"/></g>
<g><path style="opacity:1" fill="#ecdfde" d="M 28.5,114.5 C 28.631,115.239 28.4643,115.906 28,116.5C 27.1376,114.913 26.4709,113.246 26,111.5C 25.8333,112.167 25.6667,112.833 25.5,113.5C 26.4669,115.762 27.1336,118.095 27.5,120.5C 25.8639,119.251 24.6972,117.584 24,115.5C 22.5334,101.24 24.0334,100.906 28.5,114.5 Z"/></g>
<g><path style="opacity:1" fill="#aa6965" d="M 34.5,100.5 C 35.5,100.5 36.5,100.5 37.5,100.5C 37.5,103.5 37.5,106.5 37.5,109.5C 36.9649,106.366 35.9649,103.366 34.5,100.5 Z"/></g>
<g><path style="opacity:1" fill="#e2cdcc" d="M 44.5,112.5 C 44.5654,112.938 44.3988,113.272 44,113.5C 43.0814,110.598 42.2481,110.265 41.5,112.5C 39.0394,110.256 38.3728,107.589 39.5,104.5C 41.977,106.647 43.6437,109.314 44.5,112.5 Z"/></g>
<g><path style="opacity:1" fill="#be8882" d="M 44.5,112.5 C 45.782,113.708 45.782,115.042 44.5,116.5C 42.7118,115.717 41.7118,114.384 41.5,112.5C 42.2481,110.265 43.0814,110.598 44,113.5C 44.3988,113.272 44.5654,112.938 44.5,112.5 Z"/></g>
<g><path style="opacity:1" fill="#f2eae9" d="M 15.5,120.5 C 15.5654,120.938 15.3988,121.272 15,121.5C 13.2599,119.046 11.0933,117.546 8.5,117C 10.7059,119.037 12.7059,121.203 14.5,123.5C 10.0388,123.21 7.20549,120.877 6,116.5C 5.33333,115.167 5.33333,113.833 6,112.5C 9.99492,114.34 13.1616,117.006 15.5,120.5 Z"/></g>
<g><path style="opacity:1" fill="#871c14" d="M 198.5,105.5 C 203.136,106.149 207.802,106.649 212.5,107C 216.408,110.542 216.408,114.209 212.5,118C 207.676,118.196 203.009,118.363 198.5,118.5C 198.5,116.833 198.5,115.167 198.5,113.5C 201.494,114.154 204.494,114.821 207.5,115.5C 212.75,115.345 213.75,113.178 210.5,109C 206.285,108.341 202.285,108.841 198.5,110.5C 198.5,108.833 198.5,107.167 198.5,105.5 Z"/></g>
<g><path style="opacity:1" fill="#c79892" d="M 28.5,114.5 C 29.7969,116.693 29.7969,119.027 28.5,121.5C 27.8933,121.376 27.56,121.043 27.5,120.5C 27.1336,118.095 26.4669,115.762 25.5,113.5C 25.6667,112.833 25.8333,112.167 26,111.5C 26.4709,113.246 27.1376,114.913 28,116.5C 28.4643,115.906 28.631,115.239 28.5,114.5 Z"/></g>
<g><path style="opacity:1" fill="#892018" d="M 136.5,30.5 C 136.5,31.1667 136.5,31.8333 136.5,32.5C 135.417,32.4606 134.417,32.1272 133.5,31.5C 133.167,32.1667 132.833,32.8333 132.5,33.5C 129.956,29.8855 126.623,28.5521 122.5,29.5C 124.003,31.4216 126.003,32.5883 128.5,33C 126.343,33.0781 124.343,33.2448 122.5,33.5C 124.895,42.5188 127.395,51.5188 130,60.5C 131.38,63.4808 133.546,64.1475 136.5,62.5C 135.74,60.6396 134.74,58.973 133.5,57.5C 134.167,57.1667 134.833,56.8333 135.5,56.5C 136.815,57.4756 138.148,58.4756 139.5,59.5C 139.517,58.6063 139.851,57.6063 140.5,56.5C 141.5,57.1667 142.5,57.8333 143.5,58.5C 143.586,59.4959 143.252,60.3292 142.5,61C 143.793,61.49 145.127,61.6567 146.5,61.5C 147.93,62.5375 149.597,63.2041 151.5,63.5C 147.75,64.0969 143.916,64.4303 140,64.5C 139.333,65.5 139.333,66.5 140,67.5C 141.771,68.3041 143.271,69.4708 144.5,71C 151.842,70.9288 159.176,70.4288 166.5,69.5C 160.722,71.2477 154.722,72.5811 148.5,73.5C 154.582,80.7485 160.082,88.4151 165,96.5C 165.602,93.7795 165.435,91.1128 164.5,88.5C 164.5,87.8333 164.833,87.5 165.5,87.5C 166.401,86.7095 167.068,85.7095 167.5,84.5C 168.167,83.1667 168.833,81.8333 169.5,80.5C 171.322,81.4286 172.655,80.7619 173.5,78.5C 173.833,77.5 174.5,76.8333 175.5,76.5C 175.167,77.8333 174.833,79.1667 174.5,80.5C 174.5,81.1667 174.5,81.8333 174.5,82.5C 169.219,89.2402 170.552,90.2402 178.5,85.5C 179.167,85.5 179.833,85.5 180.5,85.5C 179.71,86.7942 178.71,87.9609 177.5,89C 180.929,89.5334 184.262,90.3668 187.5,91.5C 188.492,91.6716 189.158,91.3382 189.5,90.5C 197.425,118.945 192.425,144.945 174.5,168.5C 172.892,169.538 171.892,168.871 171.5,166.5C 171.624,165.893 171.957,165.56 172.5,165.5C 172.435,165.938 172.601,166.272 173,166.5C 178.88,160.44 183.38,153.44 186.5,145.5C 186.03,144.537 185.363,144.537 184.5,145.5C 179.598,150.821 175.598,156.821 172.5,163.5C 171.141,162.993 170.141,161.993 169.5,160.5C 168.73,164.395 169.563,168.062 172,171.5C 176.031,176.696 180.531,181.363 185.5,185.5C 184.833,185.5 184.5,185.833 184.5,186.5C 178.866,182.533 173.866,177.866 169.5,172.5C 160.791,180.856 150.791,187.189 139.5,191.5C 139.5,190.833 139.167,190.5 138.5,190.5C 142.986,188.339 147.486,186.006 152,183.5C 152.084,174.833 150.417,166.499 147,158.5C 143.18,162.481 138.68,165.481 133.5,167.5C 133.167,168.333 132.833,169.167 132.5,170C 133.583,177.026 134.917,183.859 136.5,190.5C 136.158,191.338 135.492,191.672 134.5,191.5C 133.551,184.088 132.217,176.754 130.5,169.5C 128.139,169.674 125.806,170.007 123.5,170.5C 123.907,176.199 124.573,181.866 125.5,187.5C 123.618,182.495 121.951,177.328 120.5,172C 117.032,171.958 113.532,172.125 110,172.5C 106.523,172.672 103.356,172.006 100.5,170.5C 106.833,170.5 113.167,170.5 119.5,170.5C 119.5,169.5 119.5,168.5 119.5,167.5C 106.68,169.88 94.6803,167.88 83.5,161.5C 94.4958,165.499 105.829,166.999 117.5,166C 118.428,165.612 119.095,164.945 119.5,164C 118.591,162.211 118.424,160.377 119,158.5C 119.813,160.436 120.313,162.436 120.5,164.5C 123.206,164.425 125.873,164.092 128.5,163.5C 128.149,161.131 127.982,158.797 128,156.5C 129.009,158.025 129.509,159.692 129.5,161.5C 134.898,159.963 139.565,157.13 143.5,153C 139.857,147.68 135.19,143.513 129.5,140.5C 121.953,147.104 113.62,152.437 104.5,156.5C 104.5,155.833 104.167,155.5 103.5,155.5C 107.429,153.865 111.096,151.699 114.5,149C 110.846,141.346 105.179,135.679 97.5,132C 90.5707,129.373 83.404,127.873 76,127.5C 69.5005,126.548 66.5005,129.214 67,135.5C 69.7007,139.683 72.5341,143.683 75.5,147.5C 78.0531,146.195 80.7198,145.195 83.5,144.5C 84.2508,143.624 84.7508,142.624 85,141.5C 86.0458,143.09 87.2125,144.59 88.5,146C 93.2738,146.654 97.9404,146.154 102.5,144.5C 105.485,144.993 108.152,146.16 110.5,148C 109.737,148.944 108.737,149.444 107.5,149.5C 100.97,147.28 94.303,146.947 87.5,148.5C 88.167,150.819 88.3336,153.153 88,155.5C 87.0138,153.222 86.1805,150.889 85.5,148.5C 84.6667,148.167 83.8333,147.833 83,147.5C 79.6547,149.141 76.1547,149.641 72.5,149C 71.283,147.352 70.4497,145.519 70,143.5C 68.4878,142.743 67.1545,141.743 66,140.5C 65.8464,135.104 64.6797,129.937 62.5,125C 62.8333,124 63.1667,123 63.5,122C 62.0713,111.039 60.738,100.039 59.5,89C 59.5852,87.8926 59.9186,86.8926 60.5,86C 67.5906,87.1786 71.2573,84.3453 71.5,77.5C 68.9556,77.1043 66.7889,77.771 65,79.5C 64.8333,79.1667 64.6667,78.8333 64.5,78.5C 65.7114,76.0502 67.378,74.0502 69.5,72.5C 72.3378,74.1015 75.3378,74.6015 78.5,74C 76.4497,73.5838 75.1164,72.4171 74.5,70.5C 72.2181,69.6103 69.8848,69.4436 67.5,70C 63,75.8333 58.5,81.6667 54,87.5C 53.3333,86.1667 53.3333,84.8333 54,83.5C 55.7424,80.5995 57.2424,77.5995 58.5,74.5C 58.2483,72.9271 57.5817,71.5938 56.5,70.5C 55.2825,69.8386 53.9492,69.1719 52.5,68.5C 52.6236,67.8933 52.9569,67.56 53.5,67.5C 56.5279,67.3389 59.3612,68.0056 62,69.5C 64.2196,66.994 65.3862,63.994 65.5,60.5C 66.8734,60.6567 68.2068,60.49 69.5,60C 71.4144,56.4113 73.7477,53.078 76.5,50C 78.5183,49.4954 80.5183,48.9954 82.5,48.5C 81.0858,50.0542 79.4192,51.3875 77.5,52.5C 73.2711,58.0915 74.4378,62.4248 81,65.5C 83.0357,62.7068 85.5357,60.3735 88.5,58.5C 88.3505,59.552 88.5172,60.552 89,61.5C 92,63.8333 95,66.1667 98,68.5C 98.7083,67.6195 99.5416,66.9528 100.5,66.5C 102.265,62.6308 103.765,58.6308 105,54.5C 105.61,50.7636 105.277,47.0969 104,43.5C 99.8257,37.1503 94.3257,32.4837 87.5,29.5C 85.2854,28.7321 82.9521,28.0654 80.5,27.5C 80.5,27.1667 80.5,26.8333 80.5,26.5C 78.9275,25.3127 77.2608,24.3127 75.5,23.5C 76.2389,23.631 76.9056,23.4643 77.5,23C 74.4659,21.8088 72.7993,19.6421 72.5,16.5C 71.9569,16.44 71.6236,16.1067 71.5,15.5C 72.3333,15.1667 73.1667,14.8333 74,14.5C 78.1408,15.6348 81.4741,17.9682 84,21.5C 84.5,21.3333 85,21.1667 85.5,21C 82.4776,18.4593 80.9776,15.2927 81,11.5C 88.6422,13.0764 94.4755,17.2431 98.5,24C 99.8333,24.6667 101.167,24.6667 102.5,24C 97.4291,20.8602 93.7624,16.5269 91.5,11C 97.8392,10.9186 103.006,13.4186 107,18.5C 107.117,15.222 105.95,12.3887 103.5,10C 105.5,9.33333 107.5,9.33333 109.5,10C 114.931,13.6932 117.597,18.8599 117.5,25.5C 124.054,26.3882 130.387,28.0549 136.5,30.5 Z"/></g>
<g><path style="opacity:1" fill="#f3ebeb" d="M 140.5,115.5 C 141.675,115.281 142.675,115.614 143.5,116.5C 140.453,119.545 137.787,122.878 135.5,126.5C 134.386,125.277 134.219,123.944 135,122.5C 136.666,120.004 138.5,117.671 140.5,115.5 Z"/></g>
<g><path style="opacity:1" fill="#ede0e0" d="M 71.5,113.5 C 73.3841,113.712 74.7174,114.712 75.5,116.5C 72.3349,117.344 69.3349,118.177 66.5,119C 68.3734,117.296 70.0401,115.463 71.5,113.5 Z"/></g>
<g><path style="opacity:1" fill="#d0b3b2" d="M 140.5,112.5 C 141.376,112.369 142.043,112.702 142.5,113.5C 140.192,114.873 139.525,114.54 140.5,112.5 Z"/></g>
<g><path style="opacity:1" fill="#eee2e2" d="M 173.5,109.5 C 176.187,109.336 178.854,109.503 181.5,110C 185.33,110.407 185.997,111.74 183.5,114C 178.465,114.384 173.632,114.551 169,114.5C 168.333,113.833 168.333,113.167 169,112.5C 170.652,111.601 172.152,110.601 173.5,109.5 Z"/></g>
<g><path style="opacity:1" fill="#8e332b" d="M 174.5,111.5 C 176.527,111.338 178.527,111.505 180.5,112C 177.515,112.868 174.515,113.201 171.5,113C 172.737,112.768 173.737,112.268 174.5,111.5 Z"/></g>
<g><path style="opacity:1" fill="#ebdcdb" d="M 85.5,107.5 C 88.0764,107.722 88.9098,109.055 88,111.5C 87.1253,114.215 85.2919,115.548 82.5,115.5C 82.9565,112.594 83.9565,109.928 85.5,107.5 Z"/></g>
<g><path style="opacity:1" fill="#e3cdcc" d="M 150.5,106.5 C 153.467,106.989 156.133,108.155 158.5,110C 160.037,111.11 160.703,112.61 160.5,114.5C 155.595,113.724 152.262,111.057 150.5,106.5 Z"/></g>
<g><path style="opacity:1" fill="#e8d6d5" d="M 136.5,106.5 C 138.701,106.858 140.035,108.192 140.5,110.5C 138.955,111.452 137.288,111.785 135.5,111.5C 135.366,109.708 135.699,108.042 136.5,106.5 Z"/></g>
<g><path style="opacity:1" fill="#f5eeed" d="M 97.5,102.5 C 99.2252,102.843 99.7252,103.843 99,105.5C 98.0614,108.94 95.8947,111.273 92.5,112.5C 91.4173,111.635 91.2506,110.635 92,109.5C 93.6665,107.004 95.4998,104.671 97.5,102.5 Z"/></g>
<g><path style="opacity:1" fill="#f6f0f0" d="M 127.5,99.5 C 133.666,98.8145 135.833,101.481 134,107.5C 130.395,110.432 127.561,113.932 125.5,118C 126.137,119.713 127.137,119.879 128.5,118.5C 130.58,116.007 132.414,113.341 134,110.5C 135.109,113.947 134.109,116.614 131,118.5C 130.626,120.898 130.626,123.231 131,125.5C 130.5,125 130,124.5 129.5,124C 126.667,123.833 123.833,123.667 121,123.5C 113.805,124.173 106.638,125.173 99.5,126.5C 90.5199,124.726 81.5199,123.059 72.5,121.5C 73.6651,120.416 74.9984,119.583 76.5,119C 82.8477,118.082 89.1811,117.082 95.5,116C 97.7122,113.957 99.7122,111.791 101.5,109.5C 102.331,111.473 102.498,113.473 102,115.5C 104.361,111.433 107.194,107.767 110.5,104.5C 110.833,105 111.167,105.5 111.5,106C 110.303,108.894 108.97,111.727 107.5,114.5C 107.833,114.833 108.167,115.167 108.5,115.5C 111.524,111.966 114.19,108.133 116.5,104C 119.979,101.791 123.646,100.291 127.5,99.5 Z"/></g>
<g><path style="opacity:1" fill="#8a241b" d="M 127.5,103.5 C 128.497,103.47 129.164,103.97 129.5,105C 127.819,109.85 124.819,113.683 120.5,116.5C 119.479,115.998 119.312,115.332 120,114.5C 122.51,110.805 125.01,107.138 127.5,103.5 Z"/></g>
<g><path style="opacity:1" fill="#881d16" d="M 118.5,104.5 C 119.833,104.5 121.167,104.5 122.5,104.5C 121.668,108.814 119.335,112.147 115.5,114.5C 115.217,110.994 116.217,107.661 118.5,104.5 Z"/></g>
<g><path style="opacity:1" fill="#f9f4f4" d="M 134.5,95.5 C 138.737,98.2281 142.571,101.561 146,105.5C 148.727,111.227 153.06,115.227 159,117.5C 160.024,122.366 159.024,126.699 156,130.5C 148.811,118.778 141.645,107.111 134.5,95.5 Z"/></g>
<g><path style="opacity:1" fill="#aa6c69" d="M 110.5,97.5 C 108.5,98.1667 106.5,98.8333 104.5,99.5C 103.957,99.44 103.624,99.1067 103.5,98.5C 105.743,97.5258 108.076,97.1924 110.5,97.5 Z"/></g>
<g><path style="opacity:1" fill="#f8f4f4" d="M 180.5,131.5 C 178.606,132.048 176.94,133.048 175.5,134.5C 174.131,132.876 172.464,132.376 170.5,133C 167.926,135.243 165.092,137.076 162,138.5C 160.167,138 159,136.833 158.5,135C 160.088,130.323 162.088,125.823 164.5,121.5C 167.879,120.459 170.879,120.459 173.5,121.5C 171.2,119.611 168.534,118.277 165.5,117.5C 170.111,117.152 174.778,116.985 179.5,117C 182.965,116.35 185.965,114.85 188.5,112.5C 182.549,107.169 175.882,106.169 168.5,109.5C 167.511,107.412 167.844,105.412 169.5,103.5C 174.818,103.044 179.818,101.544 184.5,99C 186.049,97.786 187.215,96.286 188,94.5C 191.123,102.507 192.123,110.841 191,119.5C 188.351,124.311 184.851,128.311 180.5,131.5 Z"/></g>
<g><path style="opacity:1" fill="#ede0e0" d="M 170.5,99.5 C 167.292,100.975 166.792,100.308 169,97.5C 173.922,92.7981 179.755,91.2981 186.5,93C 182.405,98.853 177.072,101.02 170.5,99.5 Z"/></g>
<g><path style="opacity:1" fill="#8e3127" d="M 170.5,99.5 C 172.317,96.4254 174.984,95.2587 178.5,96C 175.929,97.4538 173.262,98.6205 170.5,99.5 Z"/></g>
<g><path style="opacity:1" fill="#f3ebea" d="M 64.5,95.5 C 66.5113,97.667 67.6779,100.334 68,103.5C 69.2082,112.396 67.8749,112.73 64,104.5C 63.2642,101.408 63.4309,98.408 64.5,95.5 Z"/></g>
<g><path style="opacity:1" fill="#e7d4d2" d="M 149.5,93.5 C 149.369,92.6236 149.702,91.9569 150.5,91.5C 157.449,93.787 161.282,98.4536 162,105.5C 156.644,102.642 152.477,98.6422 149.5,93.5 Z"/></g>
<g><path style="opacity:1" fill="#8c271e" d="M 154.5,97.5 C 154.897,96.475 155.563,96.3083 156.5,97C 158.329,98.1133 159.163,99.6133 159,101.5C 157.629,99.9586 156.129,98.6253 154.5,97.5 Z"/></g>
<g><path style="opacity:1" fill="#f8f3f3" d="M 86.5,90.5 C 95.5059,88.8475 99.8393,92.5142 99.5,101.5C 96.9158,101.431 94.9158,100.265 93.5,98C 91.8659,97.5065 90.1992,97.3398 88.5,97.5C 88.5614,99.5922 89.5614,101.092 91.5,102C 86.9297,105.24 83.5964,104.073 81.5,98.5C 82.3709,95.304 84.0375,92.6373 86.5,90.5 Z"/></g>
<g><path style="opacity:1" fill="#f6f0f0" d="M 76.5,88.5 C 79.5184,88.3354 82.5184,88.502 85.5,89C 79.3535,94.3756 79.0201,100.042 84.5,106C 83.7894,107.255 82.956,108.421 82,109.5C 78.7204,105.342 76.3871,100.675 75,95.5C 76.9103,101.282 77.577,107.282 77,113.5C 69.7527,107.932 66.9194,100.599 68.5,91.5C 71.8306,91.9819 74.4973,90.9819 76.5,88.5 Z"/></g>
<g><path style="opacity:1" fill="#ad6d68" d="M 167.5,84.5 C 167.068,85.7095 166.401,86.7095 165.5,87.5C 164.833,86.1667 164.167,84.8333 163.5,83.5C 164.268,82.7375 164.768,81.7375 165,80.5C 165.122,82.437 165.955,83.7703 167.5,84.5 Z"/></g>
<g><path style="opacity:1" fill="#eadcdb" d="M 91.5,85.5 C 94.462,85.1167 95.462,86.1167 94.5,88.5C 93.2054,87.9017 91.8721,87.4017 90.5,87C 91.056,86.6174 91.3893,86.1174 91.5,85.5 Z"/></g>
<g><path style="opacity:1" fill="#e8d8d7" d="M 130.5,80.5 C 132.385,82.7954 132.885,85.462 132,88.5C 129.496,86.1673 128.996,83.5007 130.5,80.5 Z"/></g>
<g><path style="opacity:1" fill="#f4ecec" d="M 83.5,75.5 C 86.4073,76.7341 88.7407,78.7341 90.5,81.5C 87.4775,84.5626 83.8109,85.7293 79.5,85C 77.7174,83.9335 77.2174,82.4335 78,80.5C 79.4055,78.2563 81.2389,76.5897 83.5,75.5 Z"/></g>
<g><path style="opacity:1" fill="#f1e8e8" d="M 104.5,99.5 C 106.5,98.8333 108.5,98.1667 110.5,97.5C 114.225,97.2204 115.392,95.2204 114,91.5C 110.692,85.0504 106.526,79.217 101.5,74C 101.833,73.8333 102.167,73.6667 102.5,73.5C 112.033,79.1381 117.033,87.3048 117.5,98C 113.28,100.263 108.947,100.763 104.5,99.5 Z"/></g>
<g><path style="opacity:1" fill="#f9f5f5" d="M 149.5,93.5 C 150.008,96.8515 151.342,99.8515 153.5,102.5C 142.436,101.275 135.936,94.9421 134,83.5C 132.158,74.8041 135.658,71.6375 144.5,74C 150.159,78.5011 154.493,84.0011 157.5,90.5C 154.681,90.7423 151.681,90.7423 148.5,90.5C 148.263,91.791 148.596,92.791 149.5,93.5 Z"/></g>
<g><path style="opacity:1" fill="#f7f2f1" d="M 104.5,72.5 C 108.852,70.8677 112.852,71.7011 116.5,75C 122.909,80.6726 128.243,87.1726 132.5,94.5C 129.648,96.7182 126.315,97.7182 122.5,97.5C 120.183,86.5389 114.183,78.2056 104.5,72.5 Z"/></g>
<g><path style="opacity:1" fill="#e9d8d7" d="M 136.5,69.5 C 138.484,69.3832 140.15,70.0499 141.5,71.5C 139.5,72.8333 137.5,72.8333 135.5,71.5C 135.863,70.8165 136.196,70.1499 136.5,69.5 Z"/></g>
<g><path style="opacity:1" fill="#ebdcdb" d="M 131.5,65.5 C 134.956,66.5362 135.29,68.2029 132.5,70.5C 131.548,68.9547 131.215,67.288 131.5,65.5 Z"/></g>
<g><path style="opacity:1" fill="#e8d8d7" d="M 74.5,70.5 C 74.1814,68.2495 74.6814,66.2495 76,64.5C 78.0564,67.1614 77.5564,69.1614 74.5,70.5 Z"/></g>
<g><path style="opacity:1" fill="#f7f1f1" d="M 85.5,63.5 C 88.0045,65.1443 90.6711,66.6443 93.5,68C 99.6925,74.8915 105.526,82.0581 111,89.5C 112.128,91.3453 112.628,93.3453 112.5,95.5C 110.801,95.6602 109.134,95.4935 107.5,95C 105.333,92.8333 103.167,90.6667 101,88.5C 98.8606,82.8878 96.1939,77.5545 93,72.5C 91.2197,71.4063 89.3864,70.4063 87.5,69.5C 88.843,67.2159 88.1764,66.3826 85.5,67C 83.9852,71.4974 83.1519,71.3307 83,66.5C 84.045,65.6266 84.8783,64.6266 85.5,63.5 Z"/></g>
<g><path style="opacity:1" fill="#ab6c69" d="M 88.5,58.5 C 89.209,57.596 90.209,57.2627 91.5,57.5C 92.0031,52.5 92.3364,52.8333 92.5,58.5C 91.1667,58.5 89.8333,58.5 88.5,58.5 Z"/></g>
<g><path style="opacity:1" fill="#96423b" d="M 86.5,50.5 C 88.9828,50.73 89.4828,51.3966 88,52.5C 86.9701,52.1639 86.4701,51.4972 86.5,50.5 Z"/></g>
<g><path style="opacity:1" fill="#dabebc" d="M 114.5,51.5 C 114.189,52.4778 113.522,53.1445 112.5,53.5C 111.374,52.1916 111.374,50.8583 112.5,49.5C 113.554,45.5688 115.554,42.0688 118.5,39C 119.5,38.3333 120.5,38.3333 121.5,39C 119.269,43.302 116.936,47.4686 114.5,51.5 Z"/></g>
<g><path style="opacity:1" fill="#ede0df" d="M 111.5,27.5 C 117.709,27.9097 117.709,29.4097 111.5,32C 109.833,32.6667 108.167,32.6667 106.5,32C 108.063,30.264 109.73,28.764 111.5,27.5 Z"/></g>
<g><path style="opacity:1" fill="#f9f6f6" d="M 112.5,49.5 C 111.374,50.8583 111.374,52.1916 112.5,53.5C 113.522,53.1445 114.189,52.4778 114.5,51.5C 118.694,48.9685 121.361,45.3019 122.5,40.5C 125.745,46.8704 127.079,53.5371 126.5,60.5C 122.693,58.3947 118.693,57.2281 114.5,57C 119.602,58.5885 124.435,60.7552 129,63.5C 131.387,68.6216 130.887,73.2882 127.5,77.5C 126.277,78.6139 124.944,78.7805 123.5,78C 116.983,70.487 109.15,68.3203 100,71.5C 99.6155,69.8034 99.7822,68.1368 100.5,66.5C 107.309,57.7652 108.143,48.4319 103,38.5C 100.617,35.7272 97.7833,33.5605 94.5,32C 93.273,30.4126 93.6063,29.0793 95.5,28C 99.2113,27.1747 102.878,27.3414 106.5,28.5C 105.752,30.3325 104.752,31.9991 103.5,33.5C 109.042,34.9915 113.876,33.6582 118,29.5C 121.15,31.1285 121.983,33.4618 120.5,36.5C 115.038,39.0859 112.372,43.4192 112.5,49.5 Z"/></g>
<g><path style="opacity:1" fill="#dbc4c2" d="M 83.5,23.5 C 86.1569,23.162 88.4902,23.8287 90.5,25.5C 88.9255,26.6309 87.2588,26.7975 85.5,26C 84.244,25.5831 83.5774,24.7498 83.5,23.5 Z"/></g>
<g><path style="opacity:1" fill="#dec7c6" d="M 82.5,14.5 C 87.923,14.7387 92.2563,17.4054 95.5,22.5C 93.477,23.041 91.477,22.541 89.5,21C 86.6424,19.3059 84.309,17.1393 82.5,14.5 Z"/></g>
<g><path style="opacity:1" fill="#e1cccb" d="M 72.5,16.5 C 76.1849,16.1861 79.1849,17.8527 81.5,21.5C 79.8125,22.568 78.1459,22.4014 76.5,21C 75.2668,19.3333 73.9335,17.8333 72.5,16.5 Z"/></g>
<g><path style="opacity:1" fill="#e4cfce" d="M 94.5,12.5 C 100.958,14.3995 105.958,18.2328 109.5,24C 102.69,22.7079 97.6896,18.8746 94.5,12.5 Z"/></g>
<g><path style="opacity:1" fill="#e5d2d2" d="M 106.5,12.5 C 106.897,11.475 107.563,11.3083 108.5,12C 112.998,15.5046 115.498,20.0046 116,25.5C 111.846,21.8465 108.679,17.5132 106.5,12.5 Z"/></g>
<g><path style="opacity:1" fill="#a45a52" d="M 15.5,120.5 C 16.7152,121.779 16.3818,122.779 14.5,123.5C 12.7059,121.203 10.7059,119.037 8.5,117C 11.0933,117.546 13.2599,119.046 15,121.5C 15.3988,121.272 15.5654,120.938 15.5,120.5 Z"/></g>
<g><path style="opacity:1" fill="#f1e7e7" d="M 143.5,121.5 C 144.675,121.281 145.675,121.614 146.5,122.5C 144.798,125.037 142.631,127.037 140,128.5C 139.5,128.167 139,127.833 138.5,127.5C 139.843,125.163 141.51,123.163 143.5,121.5 Z"/></g>
<g><path style="opacity:1" fill="#fdfcfc" d="M -0.5,121.5 C 1.3658,132.288 4.19913,142.954 8,153.5C 26.9114,194.532 58.7447,217.866 103.5,223.5C 68.8333,223.5 34.1667,223.5 -0.5,223.5C -0.5,189.5 -0.5,155.5 -0.5,121.5 Z"/></g>
<g><path style="opacity:1" fill="#f9f5f5" d="M 20.5,124.5 C 29.0156,125.451 37.5156,125.451 46,124.5C 48.7561,124.424 49.9228,125.757 49.5,128.5C 47.8333,128.5 46.1667,128.5 44.5,128.5C 45.6827,137.522 50.6827,143.355 59.5,146C 61.019,147.351 62.3523,148.851 63.5,150.5C 63,150.833 62.5,151.167 62,151.5C 52.9917,148.079 44.1583,144.246 35.5,140C 29.1598,138.584 22.8264,137.251 16.5,136C 14.3754,134.263 13.542,132.096 14,129.5C 15.9651,127.45 18.1318,125.783 20.5,124.5 Z"/></g>
<g><path style="opacity:1" fill="#fdfcfc" d="M 224.5,120.5 C 224.5,154.833 224.5,189.167 224.5,223.5C 190.167,223.5 155.833,223.5 121.5,223.5C 128.367,222.016 135.367,220.516 142.5,219C 190.457,203.211 217.791,170.378 224.5,120.5 Z"/></g>
<g><path style="opacity:1" fill="#ebdad8" d="M 4.5,121.5 C 6.5952,122.412 8.5952,123.579 10.5,125C 13.3099,128.047 12.6432,129.38 8.5,129C 5.60261,127.285 4.26928,124.785 4.5,121.5 Z"/></g>
<g><path style="opacity:1" fill="#e5d3d2" d="M 145.5,126.5 C 146.239,126.369 146.906,126.536 147.5,127C 146,128.5 144.5,130 143,131.5C 142.751,129.332 143.584,127.665 145.5,126.5 Z"/></g>
<g><path style="opacity:1" fill="#f7f1f1" d="M 74.5,70.5 C 75.1164,72.4171 76.4497,73.5838 78.5,74C 75.3378,74.6015 72.3378,74.1015 69.5,72.5C 67.378,74.0502 65.7114,76.0502 64.5,78.5C 64.6667,78.8333 64.8333,79.1667 65,79.5C 66.7889,77.771 68.9556,77.1043 71.5,77.5C 71.2573,84.3453 67.5906,87.1786 60.5,86C 59.9186,86.8926 59.5852,87.8926 59.5,89C 60.738,100.039 62.0713,111.039 63.5,122C 63.1667,123 62.8333,124 62.5,125C 64.6797,129.937 65.8464,135.104 66,140.5C 67.1545,141.743 68.4878,142.743 70,143.5C 70.4497,145.519 71.283,147.352 72.5,149C 76.1547,149.641 79.6547,149.141 83,147.5C 83.8333,147.833 84.6667,148.167 85.5,148.5C 86.1805,150.889 87.0138,153.222 88,155.5C 88.3336,153.153 88.167,150.819 87.5,148.5C 94.303,146.947 100.97,147.28 107.5,149.5C 108.737,149.444 109.737,148.944 110.5,148C 108.152,146.16 105.485,144.993 102.5,144.5C 97.9404,146.154 93.2738,146.654 88.5,146C 87.2125,144.59 86.0458,143.09 85,141.5C 84.7508,142.624 84.2508,143.624 83.5,144.5C 80.7198,145.195 78.0531,146.195 75.5,147.5C 72.5341,143.683 69.7007,139.683 67,135.5C 66.5005,129.214 69.5005,126.548 76,127.5C 83.404,127.873 90.5707,129.373 97.5,132C 105.179,135.679 110.846,141.346 114.5,149C 111.096,151.699 107.429,153.865 103.5,155.5C 89.9388,159.557 77.4388,157.557 66,149.5C 58.4711,141.264 53.8045,131.597 52,120.5C 51.6149,108.297 50.7816,96.1301 49.5,84C 49.4067,80.0497 49.9067,76.2164 51,72.5C 52.4443,70.8446 54.2776,70.178 56.5,70.5C 57.5817,71.5938 58.2483,72.9271 58.5,74.5C 57.2424,77.5995 55.7424,80.5995 54,83.5C 53.3333,84.8333 53.3333,86.1667 54,87.5C 58.5,81.6667 63,75.8333 67.5,70C 69.8848,69.4436 72.2181,69.6103 74.5,70.5 Z"/></g>
<g><path style="opacity:1" fill="#871b13" d="M 53.5,112.5 C 54.8221,112.33 55.9887,112.663 57,113.5C 57.5957,122.07 58.9291,130.403 61,138.5C 56.021,130.59 53.521,121.923 53.5,112.5 Z"/></g>
<g><path style="opacity:1" fill="#f8f3f3" d="M 127.5,128.5 C 128.5,128.5 129.5,128.5 130.5,128.5C 128.614,134.764 127.614,134.764 127.5,128.5 Z"/></g>
<g><path style="opacity:1" fill="#f9f5f5" d="M 134.5,130.5 C 137.778,131.809 140.778,133.642 143.5,136C 147.833,141 152.167,146 156.5,151C 162.775,154.549 169.442,155.549 176.5,154C 168.6,159.212 159.933,160.879 150.5,159C 146.127,151.62 140.627,145.12 134,139.5C 132.142,136.238 132.309,133.238 134.5,130.5 Z"/></g>
<g><path style="opacity:1" fill="#f6efee" d="M 148.5,130.5 C 150.549,130.706 150.883,131.539 149.5,133C 150.833,133.333 152.167,133.667 153.5,134C 155.311,136.978 157.644,139.478 160.5,141.5C 164.5,139.167 168.5,136.833 172.5,134.5C 172.833,134.833 173.167,135.167 173.5,135.5C 170.479,138.686 167.646,142.02 165,145.5C 160.676,150.932 156.676,150.599 153,144.5C 151.431,140.928 149.098,137.928 146,135.5C 145.294,133.045 146.127,131.378 148.5,130.5 Z"/></g>
<g><path style="opacity:1" fill="#871a12" d="M 196.5,130.5 C 201.773,131.818 207.107,132.818 212.5,133.5C 212.288,138.014 211.288,142.348 209.5,146.5C 205.298,144.866 200.965,143.699 196.5,143C 194.595,142.174 194.261,141.007 195.5,139.5C 199.731,140.974 204.064,141.974 208.5,142.5C 209.231,140.401 209.231,138.401 208.5,136.5C 204.649,134.871 200.649,133.871 196.5,133.5C 196.5,132.5 196.5,131.5 196.5,130.5 Z"/></g>
<g><path style="opacity:1" fill="#f5eded" d="M 186.5,131.5 C 187.675,131.281 188.675,131.614 189.5,132.5C 184.72,134.78 181.553,138.446 180,143.5C 176.667,145.5 174,148.167 172,151.5C 171.257,148.217 171.924,145.217 174,142.5C 177.767,138.224 181.934,134.557 186.5,131.5 Z"/></g>
<g><path style="opacity:1" fill="#f7f1f1" d="M 112.5,133.5 C 125.463,133.868 127.463,138.368 118.5,147C 117.216,147.684 116.049,147.517 115,146.5C 113.669,143.166 111.835,140.166 109.5,137.5C 110.524,136.148 111.524,134.815 112.5,133.5 Z"/></g>
<g><path style="opacity:1" fill="#e4ccca" d="M 47.5,131.5 C 51.964,132.298 54.2973,134.964 54.5,139.5C 50.8124,138.139 48.479,135.472 47.5,131.5 Z"/></g>
<g><path style="opacity:1" fill="#e1cccc" d="M 10.5,133.5 C 13.129,136.726 12.629,139.726 9,142.5C 6.84692,139.094 7.34692,136.094 10.5,133.5 Z"/></g>
<g><path style="opacity:1" fill="#e5d3d2" d="M 180.5,131.5 C 182.255,130.928 183.922,130.094 185.5,129C 187.167,128.333 188.833,128.333 190.5,129C 180,132.833 172.833,140 169,150.5C 168.516,148.087 168.85,145.754 170,143.5C 173.336,139.332 176.836,135.332 180.5,131.5 Z"/></g>
<g><path style="opacity:1" fill="#ddc1bf" d="M 17.5,140.5 C 18.9778,140.238 20.3112,140.571 21.5,141.5C 19.1203,144.881 16.1203,147.547 12.5,149.5C 11.5923,148.21 11.759,146.877 13,145.5C 14.7073,143.963 16.2073,142.296 17.5,140.5 Z"/></g>
<g><path style="opacity:1" fill="#f3ebea" d="M 28.5,140.5 C 31.7473,142.738 31.7473,144.071 28.5,144.5C 28.5,143.167 28.5,141.833 28.5,140.5 Z"/></g>
<g><path style="opacity:1" fill="#f9f4f4" d="M 83.5,161.5 C 83.3893,160.883 83.056,160.383 82.5,160C 89.9035,159.159 97.2368,157.992 104.5,156.5C 113.62,152.437 121.953,147.104 129.5,140.5C 135.19,143.513 139.857,147.68 143.5,153C 139.565,157.13 134.898,159.963 129.5,161.5C 129.509,159.692 129.009,158.025 128,156.5C 127.982,158.797 128.149,161.131 128.5,163.5C 125.873,164.092 123.206,164.425 120.5,164.5C 120.313,162.436 119.813,160.436 119,158.5C 118.424,160.377 118.591,162.211 119.5,164C 119.095,164.945 118.428,165.612 117.5,166C 105.829,166.999 94.4958,165.499 83.5,161.5 Z"/></g>
<g><path style="opacity:1" fill="#8c271d" d="M 64.5,143.5 C 67.9826,144.919 69.6493,147.253 69.5,150.5C 67.4275,148.432 65.7608,146.099 64.5,143.5 Z"/></g>
<g><path style="opacity:1" fill="#fcfaf9" d="M 44.5,167.5 C 46.0941,170.764 48.4275,173.431 51.5,175.5C 63.9089,185.539 77.9089,192.706 93.5,197C 94.7525,199.633 96.0858,202.133 97.5,204.5C 99.4053,208.216 100.739,212.216 101.5,216.5C 100.486,217.765 98.9855,218.431 97,218.5C 57.4348,211.814 29.2681,190.314 12.5,154C 12.7804,152.605 13.4471,151.438 14.5,150.5C 17.8753,149.294 20.8753,147.46 23.5,145C 24.8333,144.333 26.1667,144.333 27.5,145C 30.7084,149.247 33.5417,153.747 36,158.5C 38.3868,161.957 41.2202,164.957 44.5,167.5 Z"/></g>
<g><path style="opacity:1" fill="#f7f2f1" d="M 86.5,190.5 C 86.6716,189.508 86.3382,188.842 85.5,188.5C 83.6759,183.178 80.0092,179.678 74.5,178C 71.4499,173.777 67.4499,170.944 62.5,169.5C 60.9574,166.914 59.2907,164.414 57.5,162C 55.7536,161.529 54.087,160.862 52.5,160C 50.8333,157.667 49.1667,155.333 47.5,153C 44.7513,151.877 42.2513,150.377 40,148.5C 39.3877,146.763 40.0543,145.763 42,145.5C 43.5,146 45,146.5 46.5,147C 65.0233,158.69 80.0233,173.857 91.5,192.5C 91.1667,192.833 90.8333,193.167 90.5,193.5C 89.1482,192.476 87.8149,191.476 86.5,190.5 Z"/></g>
<g><path style="opacity:1" fill="#eee2e2" d="M 184.5,145.5 C 181.21,147.124 178.543,149.457 176.5,152.5C 175.167,151.167 175.167,149.833 176.5,148.5C 181.425,146.074 184.758,142.24 186.5,137C 187.332,136.312 187.998,136.479 188.5,137.5C 186.628,139.91 185.295,142.577 184.5,145.5 Z"/></g>
<g><path style="opacity:1" fill="#f3ebeb" d="M 172.5,165.5 C 172.5,164.833 172.5,164.167 172.5,163.5C 175.598,156.821 179.598,150.821 184.5,145.5C 185.363,144.537 186.03,144.537 186.5,145.5C 183.38,153.44 178.88,160.44 173,166.5C 172.601,166.272 172.435,165.938 172.5,165.5 Z"/></g>
<g><path style="opacity:1" fill="#f1e6e5" d="M 36.5,147.5 C 38.4754,150.961 41.4754,153.127 45.5,154C 47.7433,156.488 49.7433,159.154 51.5,162C 52.8333,162.333 54.1667,162.667 55.5,163C 57.9961,165.656 59.9961,168.656 61.5,172C 67.3982,172.779 71.7315,175.779 74.5,181C 78.9651,182.548 82.6318,185.048 85.5,188.5C 86.3382,188.842 86.6716,189.508 86.5,190.5C 86.631,191.239 86.4643,191.906 86,192.5C 79.6683,187.159 73.1683,181.992 66.5,177C 63.7558,176.197 61.0891,175.197 58.5,174C 57.1258,171.417 55.6258,168.917 54,166.5C 49.0722,163.246 44.5722,159.58 40.5,155.5C 38.1093,153.385 36.7759,150.719 36.5,147.5 Z"/></g>
<g><path style="opacity:1" fill="#a1564f" d="M 36.5,147.5 C 36.7759,150.719 38.1093,153.385 40.5,155.5C 39.8333,155.5 39.5,155.833 39.5,156.5C 37.412,154.664 36.0787,152.331 35.5,149.5C 35.2465,147.599 35.5798,146.933 36.5,147.5 Z"/></g>
<g><path style="opacity:1" fill="#f3ebea" d="M 35.5,149.5 C 36.0787,152.331 37.412,154.664 39.5,156.5C 41.2292,157.117 42.7292,158.117 44,159.5C 46,164.167 49.3333,167.5 54,169.5C 55.8186,174.336 59.3186,177.169 64.5,178C 68.7143,182.357 73.5476,185.857 79,188.5C 79.6877,189.332 79.521,189.998 78.5,190.5C 69.1362,186.159 60.4695,180.825 52.5,174.5C 50.4309,171.427 47.7642,169.094 44.5,167.5C 41.5802,162.732 38.4135,158.066 35,153.5C 34.235,151.934 34.4017,150.601 35.5,149.5 Z"/></g>
<g><path style="opacity:1" fill="#f5eeed" d="M 96.5,184.5 C 97.3382,184.842 97.6716,185.508 97.5,186.5C 98.3257,189.485 99.659,192.151 101.5,194.5C 98.7328,195.932 96.0662,195.599 93.5,193.5C 90.1692,186.834 86.3359,180.501 82,174.5C 76.1667,168.667 70.3333,162.833 64.5,157C 68.8763,157.514 72.8763,159.181 76.5,162C 84.1462,168.802 90.8128,176.302 96.5,184.5 Z"/></g>
<g><path style="opacity:1" fill="#881e16" d="M 189.5,152.5 C 194.667,154.58 199.334,157.414 203.5,161C 203.167,161.5 202.833,162 202.5,162.5C 200.587,161.627 198.753,160.627 197,159.5C 195.833,161.333 194.667,163.167 193.5,165C 195.5,166.333 197.5,167.667 199.5,169C 198.874,169.75 198.374,170.584 198,171.5C 193.249,168.541 188.416,165.707 183.5,163C 185.831,161.249 188.164,161.415 190.5,163.5C 191.892,162.395 193.059,161.061 194,159.5C 194.688,158.668 194.521,158.002 193.5,157.5C 191.668,156.752 190.001,155.752 188.5,154.5C 188.863,153.817 189.196,153.15 189.5,152.5 Z"/></g>
<g><path style="opacity:1" fill="#efe5e4" d="M 143.5,155.5 C 144.376,155.369 145.043,155.702 145.5,156.5C 141.728,160.766 137.228,164.099 132,166.5C 131.5,166 131,165.5 130.5,165C 135.256,162.301 139.589,159.134 143.5,155.5 Z"/></g>
<g><path style="opacity:1" fill="#fcfafa" d="M 138.5,190.5 C 137.833,190.5 137.167,190.5 136.5,190.5C 134.917,183.859 133.583,177.026 132.5,170C 132.833,169.167 133.167,168.333 133.5,167.5C 138.68,165.481 143.18,162.481 147,158.5C 150.417,166.499 152.084,174.833 152,183.5C 147.486,186.006 142.986,188.339 138.5,190.5 Z"/></g>
<g><path style="opacity:1" fill="#fbf9f9" d="M 151.5,161.5 C 156.544,161.173 161.544,161.506 166.5,162.5C 169.236,166.77 168.903,170.603 165.5,174C 162.18,176.994 158.513,179.494 154.5,181.5C 152.855,174.921 151.855,168.255 151.5,161.5 Z"/></g>
<g><path style="opacity:1" fill="#efe4e3" d="M 83.5,161.5 C 94.6803,167.88 106.68,169.88 119.5,167.5C 119.5,168.5 119.5,169.5 119.5,170.5C 113.167,170.5 106.833,170.5 100.5,170.5C 94.4298,168.863 88.4298,166.696 82.5,164C 79.6677,162.092 80.001,161.259 83.5,161.5 Z"/></g>
<g><path style="opacity:1" fill="#e6d4d3" d="M 125.5,165.5 C 126.978,165.238 128.311,165.571 129.5,166.5C 127.133,168.395 124.466,168.895 121.5,168C 122.858,167.066 124.192,166.232 125.5,165.5 Z"/></g>
<g><path style="opacity:1" fill="#a35a51" d="M 44.5,167.5 C 47.7642,169.094 50.4309,171.427 52.5,174.5C 51.8333,174.5 51.5,174.833 51.5,175.5C 48.4275,173.431 46.0941,170.764 44.5,167.5 Z"/></g>
<g><path style="opacity:1" fill="#fbf8f8" d="M 100.5,170.5 C 103.356,172.006 106.523,172.672 110,172.5C 113.532,172.125 117.032,171.958 120.5,172C 121.951,177.328 123.618,182.495 125.5,187.5C 125.5,189.833 125.5,192.167 125.5,194.5C 117.442,195.644 109.442,195.644 101.5,194.5C 101.206,191.246 99.873,188.579 97.5,186.5C 97.6716,185.508 97.3382,184.842 96.5,184.5C 93.7222,178.455 90.0555,172.955 85.5,168C 90.3595,169.136 95.3595,169.969 100.5,170.5 Z"/></g>
<g><path style="opacity:1" fill="#f7f1f1" d="M 134.5,191.5 C 132.45,191.961 130.45,192.628 128.5,193.5C 127.792,191.255 126.792,189.255 125.5,187.5C 124.573,181.866 123.907,176.199 123.5,170.5C 125.806,170.007 128.139,169.674 130.5,169.5C 132.217,176.754 133.551,184.088 134.5,191.5 Z"/></g>
<g><path style="opacity:1" fill="#fdfbfb" d="M 184.5,186.5 C 185.627,187.122 186.627,187.955 187.5,189C 163.654,211.34 135.32,221.507 102.5,219.5C 102.737,218.209 102.404,217.209 101.5,216.5C 100.739,212.216 99.4053,208.216 97.5,204.5C 97.1667,202.5 96.8333,200.5 96.5,198.5C 103.5,197.833 110.5,197.167 117.5,196.5C 125.018,195.597 132.351,193.93 139.5,191.5C 150.791,187.189 160.791,180.856 169.5,172.5C 173.866,177.866 178.866,182.533 184.5,186.5 Z"/></g>
<g><path style="opacity:1" fill="#e1c7c5" d="M 172.5,163.5 C 172.5,164.167 172.5,164.833 172.5,165.5C 171.957,165.56 171.624,165.893 171.5,166.5C 171.892,168.871 172.892,169.538 174.5,168.5C 174.351,169.552 174.517,170.552 175,171.5C 179.578,176.519 184.411,181.185 189.5,185.5C 189.631,186.376 189.298,187.043 188.5,187.5C 187.482,186.807 186.482,186.141 185.5,185.5C 180.531,181.363 176.031,176.696 172,171.5C 169.563,168.062 168.73,164.395 169.5,160.5C 170.141,161.993 171.141,162.993 172.5,163.5 Z"/></g>
<g><path style="opacity:1" fill="#923830" d="M 97.5,186.5 C 99.873,188.579 101.206,191.246 101.5,194.5C 99.659,192.151 98.3257,189.485 97.5,186.5 Z"/></g>
<g><path style="opacity:1" fill="#b17673" d="M 117.5,196.5 C 110.5,197.167 103.5,197.833 96.5,198.5C 95.9569,198.44 95.6236,198.107 95.5,197.5C 102.803,196.503 110.137,196.169 117.5,196.5 Z"/></g>
</svg>
