<?xml version="1.0" encoding="iso-8859-1"?>
<!-- Uploaded to: SVG Repo, www.svgrepo.com, Generator: SVG Repo Mixer Tools -->
<svg version="1.1" id="Layer_1" xmlns="http://www.w3.org/2000/svg" xmlns:xlink="http://www.w3.org/1999/xlink" 
	 viewBox="0 0 512.02 512.02" xml:space="preserve">
<polygon style="fill:#D8D6D6;" points="0,512.014 143.52,474.462 512,105.982 406.032,0.014 37.552,368.494 "/>
<polyline style="fill:#6B6B6B;" points="20.592,433.31 0,512.014 78.704,491.422 "/>
<rect x="392.114" y="36.946" transform="matrix(0.7071 -0.7071 0.7071 0.7071 38.084 315.6899)" width="16" height="149.855"/>
<rect x="22.293" y="181.499" transform="matrix(0.7071 -0.7071 0.7071 0.7071 -106.4656 255.821)" width="466.556" height="149.855"/>
<rect x="377.481" y="11.843" transform="matrix(0.7071 -0.7071 0.7071 0.7071 63.1987 326.116)" style="fill:#E04F5F;" width="95.551" height="149.855"/>
<g style="opacity:0.25;">
	<polygon style="fill:#FFFFFF;" points="0,512.014 461,54.982 406.032,0.022 37.616,368.43 	"/>
</g>
<g>
	<polygon style="fill:#666666;" points="127.512,458.318 124.68,455.494 170.368,409.806 170.368,389.822 265.184,295.006 
		290.496,295.006 360.32,225.166 390.808,225.166 390.808,229.166 361.976,229.166 292.152,299.006 266.84,299.006 174.368,391.478 
		174.368,411.462 	"/>
	<polygon style="fill:#666666;" points="57.512,384.99 54.68,382.166 222.68,214.158 222.68,201.23 312.88,111.046 312.88,91.166 
		316.88,91.166 316.88,112.702 226.68,202.886 226.68,215.814 	"/>
</g>
</svg>