<?xml version="1.0" encoding="UTF-8"?>
<!DOCTYPE svg PUBLIC "-//W3C//DTD SVG 1.1//EN" "http://www.w3.org/Graphics/SVG/1.1/DTD/svg11.dtd">
<svg xmlns="http://www.w3.org/2000/svg" version="1.1" width="280px" height="449px" style="shape-rendering:geometricPrecision; text-rendering:geometricPrecision; image-rendering:optimizeQuality; fill-rule:evenodd; clip-rule:evenodd" xmlns:xlink="http://www.w3.org/1999/xlink">
<g><path style="opacity:1" fill="#fbf7f7" d="M 129.5,119.5 C 129.5,119.833 129.5,120.167 129.5,120.5C 132.185,126.032 135.518,131.198 139.5,136C 135.682,135.823 132.849,137.323 131,140.5C 115.249,116.996 103.249,91.6624 95,64.5C 92.4276,54.8686 90.5943,45.2019 89.5,35.5C 87.4276,25.1721 87.2609,14.8388 89,4.5C 90.7859,1.63841 93.1192,0.971743 96,2.5C 97.1805,44.5211 108.347,83.5211 129.5,119.5 Z"/></g>
<g><path style="opacity:0.008" fill="#c99594" d="M 80.5,8.5 C 79.8333,7.16667 79.8333,7.16667 80.5,8.5 Z"/></g>
<g><path style="opacity:0.004" fill="#f0e1e1" d="M 78.5,9.5 C 77.8333,8.16667 77.8333,8.16667 78.5,9.5 Z"/></g>
<g><path style="opacity:1" fill="#faf5f5" d="M 87.5,33.5 C 93.1886,72.4576 106.855,108.291 128.5,141C 126.667,141.5 125.5,142.667 125,144.5C 118.2,137.356 112.533,129.356 108,120.5C 92.257,91.7697 82.4237,61.103 78.5,28.5C 78.3342,23.8215 78.5008,19.1548 79,14.5C 80.2725,11.7776 82.4392,10.4443 85.5,10.5C 85.8382,18.2456 86.5049,25.9123 87.5,33.5 Z"/></g>
<g><path style="opacity:1" fill="#f9f3f3" d="M 77.5,35.5 C 82.9232,73.179 96.2565,107.846 117.5,139.5C 116.833,140.833 115.833,141.833 114.5,142.5C 111.81,140.644 109.644,138.311 108,135.5C 91.6911,109.544 80.3577,81.544 74,51.5C 71.9936,42.1631 71.4936,32.8297 72.5,23.5C 73.4674,22.1938 74.8007,21.5271 76.5,21.5C 76.1805,26.3633 76.5139,31.03 77.5,35.5 Z"/></g>
<g><path style="opacity:0.004" fill="#e4d5cf" d="M 61.5,37.5 C 60.8333,36.1667 60.8333,36.1667 61.5,37.5 Z"/></g>
<g><path style="opacity:1" fill="#b64352" d="M 88.5,-0.5 C 91.8333,-0.5 95.1667,-0.5 98.5,-0.5C 98.8033,27.6874 104.137,54.6874 114.5,80.5C 116.843,86.5336 119.176,92.5336 121.5,98.5C 121.461,101.089 122.461,103.089 124.5,104.5C 125.142,106.296 126.142,108.296 127.5,110.5C 128.5,112.5 129.5,114.5 130.5,116.5C 166.167,117.167 201.833,117.833 237.5,118.5C 201.329,118.168 165.329,118.502 129.5,119.5C 108.347,83.5211 97.1805,44.5211 96,2.5C 93.1192,0.971743 90.7859,1.63841 89,4.5C 87.2609,14.8388 87.4276,25.1721 89.5,35.5C 88.8333,34.8333 88.1667,34.1667 87.5,33.5C 86.5049,25.9123 85.8382,18.2456 85.5,10.5C 82.4392,10.4443 80.2725,11.7776 79,14.5C 78.5008,19.1548 78.3342,23.8215 78.5,28.5C 77.5318,30.6074 77.1984,32.9407 77.5,35.5C 76.5139,31.03 76.1805,26.3633 76.5,21.5C 74.8007,21.5271 73.4674,22.1938 72.5,23.5C 72.6716,22.5084 72.3382,21.8417 71.5,21.5C 71.3893,20.8826 71.056,20.3826 70.5,20C 72.0806,19.2935 73.5806,18.4601 75,17.5C 75.9211,14.6642 77.0877,11.9976 78.5,9.5C 79.4916,9.67158 80.1583,9.33825 80.5,8.5C 82.0295,7.93323 83.5295,7.26656 85,6.5C 85.6809,3.80435 86.8476,1.47102 88.5,-0.5 Z"/></g>
<g><path style="opacity:0.004" fill="#e9e0d9" d="M 53.5,66.5 C 52.8333,65.1667 52.8333,65.1667 53.5,66.5 Z"/></g>
<g><path style="opacity:0.004" fill="#d0aaa5" d="M 114.5,79.5 C 115.833,80.1667 115.833,80.1667 114.5,79.5 Z"/></g>
<g><path style="opacity:0.004" fill="#e4d5ce" d="M 50.5,81.5 C 49.8333,80.1667 49.8333,80.1667 50.5,81.5 Z"/></g>
<g><path style="opacity:0.004" fill="#ece0dc" d="M 50.5,87.5 C 49.8333,88.1667 49.8333,88.1667 50.5,87.5 Z"/></g>
<g><path style="opacity:0.004" fill="#c06b77" d="M 48.5,92.5 C 47.8333,91.1667 47.8333,91.1667 48.5,92.5 Z"/></g>
<g><path style="opacity:0.278" fill="#c39a90" d="M 121.5,98.5 C 123.008,100.181 124.008,102.181 124.5,104.5C 122.461,103.089 121.461,101.089 121.5,98.5 Z"/></g>
<g><path style="opacity:0.004" fill="#b8676d" d="M 127.5,109.5 C 128.833,110.167 128.833,110.167 127.5,109.5 Z"/></g>
<g><path style="opacity:1" fill="#f7ecec" d="M 50.5,127.5 C 49.99,124.461 49.3234,121.461 48.5,118.5C 48.372,116.345 48.872,114.345 50,112.5C 57.4446,130.721 65.9446,148.388 75.5,165.5C 75.3333,166.167 75.1667,166.833 75,167.5C 71.9908,164.823 69.3242,161.823 67,158.5C 61.1996,148.234 55.6996,137.9 50.5,127.5 Z"/></g>
<g><path style="opacity:0.345" fill="#d2929c" d="M 130.5,116.5 C 166.5,116.5 202.5,116.5 238.5,116.5C 238.5,132.833 238.5,149.167 238.5,165.5C 237.504,150.009 237.17,134.342 237.5,118.5C 201.833,117.833 166.167,117.167 130.5,116.5 Z"/></g>
<g><path style="opacity:1" fill="#c96f81" d="M -0.5,116.5 C 14.8333,116.5 30.1667,116.5 45.5,116.5C 46.0431,116.56 46.3764,116.893 46.5,117.5C 30.8475,118.499 15.1808,118.833 -0.5,118.5C -0.5,117.833 -0.5,117.167 -0.5,116.5 Z"/></g>
<g><path style="opacity:1" fill="#a4082d" d="M 237.5,118.5 C 237.17,134.342 237.504,150.009 238.5,165.5C 239.609,165.557 240.609,165.89 241.5,166.5C 243.606,168.719 244.606,171.385 244.5,174.5C 243.833,175.833 243.167,177.167 242.5,178.5C 243.378,172 240.711,168.333 234.5,167.5C 234.5,168.5 234.5,169.5 234.5,170.5C 233.833,171.833 233.167,173.167 232.5,174.5C 232.279,171.721 232.612,169.054 233.5,166.5C 234.496,151.676 234.829,136.676 234.5,121.5C 200.5,121.5 166.5,121.5 132.5,121.5C 133.076,119.217 132.076,118.883 129.5,120.5C 129.5,120.167 129.5,119.833 129.5,119.5C 165.329,118.502 201.329,118.168 237.5,118.5 Z"/></g>
<g><path style="opacity:0.974" fill="#aa0b34" d="M 45.5,116.5 C 45.5,116.167 45.5,115.833 45.5,115.5C 46.8999,116.1 47.8999,117.1 48.5,118.5C 49.3234,121.461 49.99,124.461 50.5,127.5C 49.8333,126.833 49.1667,126.167 48.5,125.5C 48.6716,124.508 48.3382,123.842 47.5,123.5C 33.2048,121.517 18.5381,120.85 3.5,121.5C 3.33334,175.501 3.50001,229.501 4,283.5C 4.64169,279.509 5.14169,275.509 5.5,271.5C 5.83333,271.5 6.16667,271.5 6.5,271.5C 5.67365,282.813 5.34031,294.146 5.5,305.5C 5.19845,308.059 5.53178,310.393 6.5,312.5C 6.16757,318.501 7.83423,323.834 11.5,328.5C 11.7471,331.939 11.4137,335.272 10.5,338.5C 10.6716,339.492 10.3382,340.158 9.5,340.5C 9.5,339.5 9.5,338.5 9.5,337.5C 10.3287,334.531 10.4954,331.531 10,328.5C 8.02203,326.028 6.52203,323.361 5.5,320.5C 5.56214,315.924 4.89548,311.591 3.5,307.5C 2.50126,351.997 2.16793,396.664 2.5,441.5C 3.79105,441.737 4.79105,441.404 5.5,440.5C 5.5,438.167 5.5,435.833 5.5,433.5C 8.64543,428.946 11.1454,423.946 13,418.5C 16.1361,406.655 18.3027,394.655 19.5,382.5C 19.8333,382.5 20.1667,382.5 20.5,382.5C 23.4102,383.814 25.9102,383.147 28,380.5C 29.1447,382.926 30.478,385.259 32,387.5C 40.1068,392.273 46.1068,398.94 50,407.5C 53,409.5 56,411.5 59,413.5C 60.092,416.044 60.7586,418.711 61,421.5C 63.8774,423.404 67.0441,424.404 70.5,424.5C 71.4404,427.714 72.9404,430.714 75,433.5C 75.1829,436.365 75.6829,439.031 76.5,441.5C 78.7224,441.178 80.5557,441.845 82,443.5C 88.2111,428.778 91.2111,413.445 91,397.5C 90.5128,394.199 89.0128,391.533 86.5,389.5C 87.7417,387.75 89.2417,386.083 91,384.5C 92.1524,381.56 93.1524,378.56 94,375.5C 94.4658,363.226 96.4658,351.226 100,339.5C 101.927,334.419 105.093,330.419 109.5,327.5C 110.107,327.624 110.44,327.957 110.5,328.5C 108.871,329.625 107.371,330.959 106,332.5C 102.383,340.017 99.5492,347.85 97.5,356C 97.6667,356.5 97.8333,357 98,357.5C 100.274,356.189 102.44,356.189 104.5,357.5C 104.187,361.042 104.521,364.375 105.5,367.5C 105.401,376.521 105.734,385.521 106.5,394.5C 107.167,395.167 107.833,395.833 108.5,396.5C 107.397,401.31 106.397,406.143 105.5,411C 106.473,418.392 108.306,425.558 111,432.5C 118.239,433.803 125.072,436.303 131.5,440C 133.473,440.495 135.473,440.662 137.5,440.5C 141.167,440.5 144.833,440.5 148.5,440.5C 155.344,441.819 162.344,441.819 169.5,440.5C 169.043,439.702 168.376,439.369 167.5,439.5C 167.5,439.167 167.5,438.833 167.5,438.5C 174.061,439.629 180.061,441.963 185.5,445.5C 186.263,446.268 187.263,446.768 188.5,447C 185.672,447.969 183.338,447.303 181.5,445C 149.331,444.169 117.331,444.336 85.5,445.5C 84.5987,446.29 83.9321,447.29 83.5,448.5C 82.8333,448.5 82.1667,448.5 81.5,448.5C 81.5858,447.504 81.2524,446.671 80.5,446C 53.5021,445.5 26.5021,445.333 -0.5,445.5C -0.5,336.5 -0.5,227.5 -0.5,118.5C 15.1808,118.833 30.8475,118.499 46.5,117.5C 46.3764,116.893 46.0431,116.56 45.5,116.5 Z"/></g>
<g><path style="opacity:1" fill="#7b8aac" d="M 132.5,121.5 C 166.5,121.5 200.5,121.5 234.5,121.5C 234.829,136.676 234.496,151.676 233.5,166.5C 233.5,151.833 233.5,137.167 233.5,122.5C 199.996,122.168 166.662,122.502 133.5,123.5C 132.662,123.158 132.328,122.492 132.5,121.5 Z"/></g>
<g><path style="opacity:1" fill="#8691bc" d="M 47.5,123.5 C 33.2452,122.518 18.9118,122.184 4.5,122.5C 4.16783,171.003 4.50117,219.336 5.5,267.5C 5.5,268.833 5.5,270.167 5.5,271.5C 5.14169,275.509 4.64169,279.509 4,283.5C 3.50001,229.501 3.33334,175.501 3.5,121.5C 18.5381,120.85 33.2048,121.517 47.5,123.5 Z"/></g>
<g><path style="opacity:1" fill="#7dbee8" d="M 47.5,123.5 C 48.3382,123.842 48.6716,124.508 48.5,125.5C 53.7997,139.601 60.7997,152.767 69.5,165C 67.4164,166.501 66.0831,168.501 65.5,171C 68.7598,179.685 72.4265,188.185 76.5,196.5C 75.349,200.52 75.1823,204.52 76,208.5C 74.6703,209.582 73.1703,210.249 71.5,210.5C 71.6309,209.624 71.2975,208.957 70.5,208.5C 65.45,205.883 60.1167,205.05 54.5,206C 26.9015,217.441 10.5681,237.941 5.5,267.5C 4.50117,219.336 4.16783,171.003 4.5,122.5C 18.9118,122.184 33.2452,122.518 47.5,123.5 Z"/></g>
<g><path style="opacity:1" fill="#7dbee8" d="M 233.5,166.5 C 232.612,169.054 232.279,171.721 232.5,174.5C 232.618,188.181 232.284,201.848 231.5,215.5C 227.153,241.54 218.82,266.207 206.5,289.5C 203.801,290.729 201.135,290.729 198.5,289.5C 190.543,281.539 182.877,273.206 175.5,264.5C 175.833,264.167 176.167,263.833 176.5,263.5C 180.58,266.581 184.747,266.914 189,264.5C 190.538,259.88 189.038,256.713 184.5,255C 178.725,252.075 172.725,249.742 166.5,248C 165.572,247.612 164.905,246.945 164.5,246C 160.9,233.434 159.733,220.601 161,207.5C 165.218,178.043 157.218,152.377 137,130.5C 135.807,128.114 134.64,125.78 133.5,123.5C 166.662,122.502 199.996,122.168 233.5,122.5C 233.5,137.167 233.5,151.833 233.5,166.5 Z"/></g>
<g><path style="opacity:1" fill="#ae2d41" d="M 71.5,21.5 C 72.3382,21.8417 72.6716,22.5084 72.5,23.5C 71.4936,32.8297 71.9936,42.1631 74,51.5C 80.3577,81.544 91.6911,109.544 108,135.5C 109.644,138.311 111.81,140.644 114.5,142.5C 115.833,141.833 116.833,140.833 117.5,139.5C 96.2565,107.846 82.9232,73.179 77.5,35.5C 77.1984,32.9407 77.5318,30.6074 78.5,28.5C 82.4237,61.103 92.257,91.7697 108,120.5C 112.533,129.356 118.2,137.356 125,144.5C 125.5,142.667 126.667,141.5 128.5,141C 106.855,108.291 93.1886,72.4576 87.5,33.5C 88.1667,34.1667 88.8333,34.8333 89.5,35.5C 90.5943,45.2019 92.4276,54.8686 95,64.5C 103.249,91.6624 115.249,116.996 131,140.5C 132.849,137.323 135.682,135.823 139.5,136C 135.518,131.198 132.185,126.032 129.5,120.5C 132.076,118.883 133.076,119.217 132.5,121.5C 132.328,122.492 132.662,123.158 133.5,123.5C 134.64,125.78 135.807,128.114 137,130.5C 157.218,152.377 165.218,178.043 161,207.5C 159.733,220.601 160.9,233.434 164.5,246C 164.905,246.945 165.572,247.612 166.5,248C 172.725,249.742 178.725,252.075 184.5,255C 189.038,256.713 190.538,259.88 189,264.5C 184.747,266.914 180.58,266.581 176.5,263.5C 176.167,263.833 175.833,264.167 175.5,264.5C 182.877,273.206 190.543,281.539 198.5,289.5C 195.312,291.657 191.979,291.99 188.5,290.5C 191.187,290.664 193.854,290.497 196.5,290C 187.054,281.56 178.721,272.227 171.5,262C 167.627,261.762 163.96,260.929 160.5,259.5C 157.357,260.633 157.191,262.633 160,265.5C 162.733,263.109 165.4,263.109 168,265.5C 169.982,271.733 169.816,277.733 167.5,283.5C 166.662,283.158 166.328,282.492 166.5,281.5C 161.246,279.58 161.579,277.913 167.5,276.5C 158.167,275.167 158.167,273.833 167.5,272.5C 165.167,271.833 162.833,271.167 160.5,270.5C 162.5,269.5 164.5,268.5 166.5,267.5C 165.667,267.167 164.833,266.833 164,266.5C 160.449,267.714 157.116,269.38 154,271.5C 152.943,270.373 151.777,269.873 150.5,270C 145.711,274.798 140.377,278.798 134.5,282C 127.167,282.333 119.833,282.667 112.5,283C 109.077,284.904 105.41,285.737 101.5,285.5C 99.129,276.086 95.629,267.086 91,258.5C 87.1434,259.979 86.1434,258.979 88,255.5C 88.8335,246.498 86.3335,238.498 80.5,231.5C 80.6667,231.167 80.8333,230.833 81,230.5C 83.0218,232.522 85.0218,234.522 87,236.5C 89.3899,235.722 91.5566,234.555 93.5,233C 90.5262,228.91 89.5262,224.41 90.5,219.5C 90.9412,229.442 96.1079,235.109 106,236.5C 106.5,236.167 107,235.833 107.5,235.5C 106.527,233.36 105.027,231.693 103,230.5C 102.506,228.866 102.34,227.199 102.5,225.5C 100.61,225.703 99.1096,225.037 98,223.5C 97.3987,222.035 97.8987,221.035 99.5,220.5C 102.943,225.147 106.276,229.814 109.5,234.5C 110.234,232.185 111.568,230.352 113.5,229C 111.833,227.833 110.167,226.667 108.5,225.5C 108.833,225.167 109.167,224.833 109.5,224.5C 117.779,227.375 118.279,226.708 111,222.5C 110.776,217.456 111.609,217.289 113.5,222C 115.65,223.59 117.983,224.257 120.5,224C 121.526,218.906 123.693,214.406 127,210.5C 129.933,205.085 128.266,202.418 122,202.5C 120.634,202.706 119.301,203.04 118,203.5C 115.213,201.189 112.046,199.522 108.5,198.5C 106.917,203.593 103.583,205.427 98.5,204C 97.2888,203.107 97.2888,202.274 98.5,201.5C 99.7362,202.246 101.07,202.579 102.5,202.5C 102.5,201.167 102.5,199.833 102.5,198.5C 100.94,198.481 99.4397,198.148 98,197.5C 96.3468,197.82 95.3468,198.82 95,200.5C 94.1764,203.882 94.343,207.216 95.5,210.5C 96.7946,211.098 98.1279,211.598 99.5,212C 95.6559,213.883 93.3225,212.549 92.5,208C 92.8138,203.913 93.8138,200.08 95.5,196.5C 98.1928,195.855 100.693,195.855 103,196.5C 103.915,197.328 104.581,198.328 105,199.5C 105.408,197.59 106.575,196.59 108.5,196.5C 115.381,198.97 122.381,200.97 129.5,202.5C 132.968,201.826 133.634,200.492 131.5,198.5C 132.603,198.002 133.603,197.669 134.5,197.5C 134.113,196.28 133.28,195.613 132,195.5C 130.838,196.187 129.672,196.353 128.5,196C 129.653,194.117 131.319,193.284 133.5,193.5C 133.649,192.448 133.483,191.448 133,190.5C 129.5,188.333 126.667,185.5 124.5,182C 123.127,181.125 121.627,180.625 120,180.5C 114.939,182.488 110.772,181.322 107.5,177C 99.225,174.312 92.225,176.312 86.5,183C 87.4061,184.699 87.7394,186.533 87.5,188.5C 86.325,188.719 85.325,188.386 84.5,187.5C 85.3256,186.549 85.4922,185.549 85,184.5C 83.8333,185.667 82.6667,186.833 81.5,188C 82.5348,189.507 82.3681,191.007 81,192.5C 80.6827,190.699 80.016,190.366 79,191.5C 76.3274,199.501 78.8274,204.835 86.5,207.5C 89.7533,204.662 90.7533,205.329 89.5,209.5C 85.2356,209.769 80.9023,209.936 76.5,210C 74.5448,210.953 72.8782,212.287 71.5,214C 57.2266,215.881 46.06,222.714 38,234.5C 37.5,234 37,233.5 36.5,233C 37.3366,231.989 37.67,230.822 37.5,229.5C 40.8953,226.098 44.562,223.098 48.5,220.5C 56.0556,216.765 63.7222,213.431 71.5,210.5C 73.1703,210.249 74.6703,209.582 76,208.5C 75.1823,204.52 75.349,200.52 76.5,196.5C 72.4265,188.185 68.7598,179.685 65.5,171C 66.0831,168.501 67.4164,166.501 69.5,165C 60.7997,152.767 53.7997,139.601 48.5,125.5C 49.1667,126.167 49.8333,126.833 50.5,127.5C 55.6996,137.9 61.1996,148.234 67,158.5C 69.3242,161.823 71.9908,164.823 75,167.5C 75.1667,166.833 75.3333,166.167 75.5,165.5C 65.9446,148.388 57.4446,130.721 50,112.5C 48.872,114.345 48.372,116.345 48.5,118.5C 47.8999,117.1 46.8999,116.1 45.5,115.5C 45.933,112.805 47.2663,110.638 49.5,109C 47.3459,103.622 47.0126,98.1217 48.5,92.5C 51.1917,91.4095 51.8584,89.7428 50.5,87.5C 50.5,85.5 50.5,83.5 50.5,81.5C 53.2283,77.0416 54.2283,72.0416 53.5,66.5C 54.1859,65.1516 55.1859,63.985 56.5,63C 55.8958,59.2672 55.2291,55.2672 54.5,51C 54.0616,44.795 56.7283,40.795 62.5,39C 61.944,38.6174 61.6107,38.1174 61.5,37.5C 62.4844,34.9487 63.4844,32.2821 64.5,29.5C 65.8498,28.0499 67.5165,27.3832 69.5,27.5C 69.0535,24.9899 69.7202,22.9899 71.5,21.5 Z"/></g>
<g><path style="opacity:1" fill="#fcfafa" d="M 134.5,138.5 C 138.95,138.142 142.45,139.808 145,143.5C 154.096,158.123 159.596,173.956 161.5,191C 159.054,203.731 158.221,216.565 159,229.5C 159.046,235.153 160.213,240.487 162.5,245.5C 151.444,246.161 140.444,247.327 129.5,249C 128.536,253.066 128.203,257.233 128.5,261.5C 133.671,260.916 138.838,260.25 144,259.5C 145.833,259.833 147.667,260.167 149.5,260.5C 150.265,262.295 150.932,264.128 151.5,266C 146.07,271.434 140.07,276.101 133.5,280C 128.203,279.562 122.87,279.562 117.5,280C 112.792,281.247 108.126,282.247 103.5,283C 100.354,273.541 96.5202,264.374 92,255.5C 91.6177,250.305 90.4511,245.305 88.5,240.5C 89.9606,237.504 92.4606,235.837 96,235.5C 99.9946,237.392 104.161,238.225 108.5,238C 109.931,237.535 111.097,236.701 112,235.5C 113.43,230.241 116.763,227.241 122,226.5C 123.333,222.5 124.667,218.5 126,214.5C 128.417,208.974 131.75,203.974 136,199.5C 137.027,194.684 136.027,190.35 133,186.5C 122.17,174.78 109.004,170.947 93.5,175C 87.0424,179.124 81.5424,184.29 77,190.5C 72.7763,184.719 69.6096,178.386 67.5,171.5C 67.9799,168.508 69.6466,167.341 72.5,168C 74.6998,170.234 76.5331,172.734 78,175.5C 78.7175,176.451 79.5509,176.617 80.5,176C 78.5441,172.405 78.0441,168.572 79,164.5C 79.5613,163.978 80.228,163.645 81,163.5C 84.3208,165.488 86.9875,168.154 89,171.5C 88.5013,167.484 87.668,163.484 86.5,159.5C 87.3204,152.919 90.1538,151.919 95,156.5C 96.5244,160.898 99.0244,164.565 102.5,167.5C 102.833,167.167 103.167,166.833 103.5,166.5C 98.9465,162.055 97.4465,156.721 99,150.5C 99.5613,149.978 100.228,149.645 101,149.5C 103.321,150.487 104.987,152.154 106,154.5C 107.639,159.112 109.806,163.446 112.5,167.5C 112.833,167 113.167,166.5 113.5,166C 109.394,159.36 107.56,152.193 108,144.5C 111.159,141.659 113.492,142.326 115,146.5C 116.823,152.153 119.656,157.153 123.5,161.5C 123.833,161.167 124.167,160.833 124.5,160.5C 120.592,155.11 118.259,149.11 117.5,142.5C 119.39,142.297 120.89,142.963 122,144.5C 124.936,149.373 127.603,154.373 130,159.5C 128.727,154.269 128.061,148.935 128,143.5C 131.23,146.297 133.73,149.63 135.5,153.5C 135.833,153.167 136.167,152.833 136.5,152.5C 133.683,148.117 133.017,143.45 134.5,138.5 Z"/></g>
<g><path style="opacity:1" fill="#f9f2f2" d="M 51.5,93.5 C 55.4421,103.49 58.9421,113.824 62,124.5C 67.8638,136.859 74.3638,148.859 81.5,160.5C 80.2643,161.357 78.931,162.023 77.5,162.5C 65.5193,145.102 56.6859,126.102 51,105.5C 50.2375,101.413 50.4042,97.4126 51.5,93.5 Z"/></g>
<g><path style="opacity:1" fill="#f9f2f2" d="M 54.5,79.5 C 61.0207,105.551 71.6873,129.885 86.5,152.5C 84.9293,154.882 84.096,157.549 84,160.5C 68.6508,137.294 58.4841,111.96 53.5,84.5C 53.5916,82.7422 53.925,81.0755 54.5,79.5 Z"/></g>
<g><path style="opacity:1" fill="#f6ebec" d="M 56.5,66.5 C 64.0379,96.7446 76.3712,124.911 93.5,151C 91.8333,151.667 90.1667,151.667 88.5,151C 72.6149,127.72 61.7815,102.22 56,74.5C 55.3985,71.7795 55.5651,69.1128 56.5,66.5 Z"/></g>
<g><path style="opacity:1" fill="#faf5f5" d="M 60.5,42.5 C 61.5,42.5 62.5,42.5 63.5,42.5C 63.8195,51.2683 64.9862,59.935 67,68.5C 74.344,96.3752 85.844,122.375 101.5,146.5C 98.8737,147.293 97.0404,148.96 96,151.5C 75.2263,121.445 62.393,88.2785 57.5,52C 57.5043,48.4981 58.5043,45.3314 60.5,42.5 Z"/></g>
<g><path style="opacity:1" fill="#faf5f5" d="M 68.5,30.5 C 71.6682,56.8533 78.8348,82.1866 90,106.5C 95.9126,117.993 102.079,129.327 108.5,140.5C 106.52,142.795 105.353,145.461 105,148.5C 85.3513,118.897 72.3513,86.5637 66,51.5C 65.3333,45.5 65.3333,39.5 66,33.5C 66.6979,32.3094 67.5313,31.3094 68.5,30.5 Z"/></g>
<g><path style="opacity:0.004" fill="#9d4c42" d="M 241.5,165.5 C 242.833,166.167 242.833,166.167 241.5,165.5 Z"/></g>
<g><path style="opacity:1" fill="#fbf7f8" d="M 242.5,178.5 C 246.11,225.476 234.944,268.476 209,307.5C 207.974,304.761 206.474,302.428 204.5,300.5C 212.157,284.747 218.99,268.414 225,251.5C 228.769,240.427 231.269,229.093 232.5,217.5C 233.321,214.359 233.821,211.025 234,207.5C 234.5,195.171 234.667,182.838 234.5,170.5C 234.5,169.5 234.5,168.5 234.5,167.5C 240.711,168.333 243.378,172 242.5,178.5 Z"/></g>
<g><path style="opacity:0.498" fill="#d4c2b4" d="M 244.5,174.5 C 245.451,175.919 245.784,177.585 245.5,179.5C 246.791,179.263 247.791,179.596 248.5,180.5C 247.167,180.5 245.833,180.5 244.5,180.5C 244.5,178.5 244.5,176.5 244.5,174.5 Z"/></g>
<g><path style="opacity:0.004" fill="#c8858b" d="M 260.5,191.5 C 261.833,192.167 261.833,192.167 260.5,191.5 Z"/></g>
<g><path style="opacity:1" fill="#fbf7f7" d="M 166.5,281.5 C 163.884,282.48 161.551,283.98 159.5,286C 155.833,286.333 152.167,286.667 148.5,287C 134.841,295.001 120.175,299.835 104.5,301.5C 99.258,301.629 94.758,299.962 91,296.5C 87.7489,291.245 83.7489,286.578 79,282.5C 73.7077,274.083 68.5411,265.583 63.5,257C 57.5103,253.333 56.6769,253.833 61,258.5C 61.2851,264.055 62.4518,269.388 64.5,274.5C 46.1303,273.964 36.4636,264.464 35.5,246C 35.5546,243.443 35.8879,240.943 36.5,238.5C 35.7435,237.227 35.0768,237.227 34.5,238.5C 33.8333,237.5 33.1667,236.5 32.5,235.5C 32.6463,233.058 31.813,232.391 30,233.5C 29.3224,235.598 29.4891,237.598 30.5,239.5C 30.7373,240.791 30.404,241.791 29.5,242.5C 27.0302,251.233 27.1969,260.233 30,269.5C 30.4186,270.672 31.0853,271.672 32,272.5C 32.1667,272.167 32.3333,271.833 32.5,271.5C 30.8833,267.986 29.8833,264.319 29.5,260.5C 30.1174,260.389 30.6174,260.056 31,259.5C 31.21,261.058 31.71,262.391 32.5,263.5C 35.5164,271.984 41.1831,278.15 49.5,282C 55.1667,282.667 60.8333,282.667 66.5,282C 69.4934,280.841 71.1601,278.675 71.5,275.5C 72.9649,276.406 73.9649,277.739 74.5,279.5C 71.7542,281.473 68.7542,282.973 65.5,284C 50.7716,288.433 35.7716,291.433 20.5,293C 22.1792,296.297 24.8459,297.297 28.5,296C 39.7705,293.557 50.9372,290.724 62,287.5C 63.3651,287.844 64.5318,288.511 65.5,289.5C 68.5344,286.984 71.8677,284.984 75.5,283.5C 76.4742,285.743 76.8076,288.076 76.5,290.5C 72.533,291.134 70.1997,293.467 69.5,297.5C 65.7024,300.796 62.0357,304.296 58.5,308C 52.5169,309.999 46.5169,311.999 40.5,314C 33.8905,320.286 26.5572,321.786 18.5,318.5C 20.8333,317.833 23.1667,317.167 25.5,316.5C 19.9931,315.411 14.9931,313.244 10.5,310C 15.3642,309.547 20.0309,310.381 24.5,312.5C 26.2705,311.965 26.6039,311.131 25.5,310C 19.7585,308.36 14.2585,306.194 9,303.5C 7.69736,303.978 6.53069,304.645 5.5,305.5C 5.34031,294.146 5.67365,282.813 6.5,271.5C 9.61628,248.749 20.2829,230.583 38.5,217C 43.0985,214.878 47.7651,213.044 52.5,211.5C 47.5,217.5 42.5,223.5 37.5,229.5C 37.67,230.822 37.3366,231.989 36.5,233C 37,233.5 37.5,234 38,234.5C 46.06,222.714 57.2266,215.881 71.5,214C 72.8782,212.287 74.5448,210.953 76.5,210C 80.9023,209.936 85.2356,209.769 89.5,209.5C 90.7533,205.329 89.7533,204.662 86.5,207.5C 78.8274,204.835 76.3274,199.501 79,191.5C 80.016,190.366 80.6827,190.699 81,192.5C 82.3681,191.007 82.5348,189.507 81.5,188C 82.6667,186.833 83.8333,185.667 85,184.5C 85.4922,185.549 85.3256,186.549 84.5,187.5C 85.325,188.386 86.325,188.719 87.5,188.5C 87.7394,186.533 87.4061,184.699 86.5,183C 92.225,176.312 99.225,174.312 107.5,177C 110.772,181.322 114.939,182.488 120,180.5C 121.627,180.625 123.127,181.125 124.5,182C 126.667,185.5 129.5,188.333 133,190.5C 133.483,191.448 133.649,192.448 133.5,193.5C 131.319,193.284 129.653,194.117 128.5,196C 129.672,196.353 130.838,196.187 132,195.5C 133.28,195.613 134.113,196.28 134.5,197.5C 133.603,197.669 132.603,198.002 131.5,198.5C 133.634,200.492 132.968,201.826 129.5,202.5C 122.381,200.97 115.381,198.97 108.5,196.5C 106.575,196.59 105.408,197.59 105,199.5C 104.581,198.328 103.915,197.328 103,196.5C 100.693,195.855 98.1928,195.855 95.5,196.5C 93.8138,200.08 92.8138,203.913 92.5,208C 93.3225,212.549 95.6559,213.883 99.5,212C 98.1279,211.598 96.7946,211.098 95.5,210.5C 94.343,207.216 94.1764,203.882 95,200.5C 95.3468,198.82 96.3468,197.82 98,197.5C 99.4397,198.148 100.94,198.481 102.5,198.5C 102.5,199.833 102.5,201.167 102.5,202.5C 101.07,202.579 99.7362,202.246 98.5,201.5C 97.2888,202.274 97.2888,203.107 98.5,204C 103.583,205.427 106.917,203.593 108.5,198.5C 112.046,199.522 115.213,201.189 118,203.5C 119.301,203.04 120.634,202.706 122,202.5C 128.266,202.418 129.933,205.085 127,210.5C 123.693,214.406 121.526,218.906 120.5,224C 117.983,224.257 115.65,223.59 113.5,222C 111.609,217.289 110.776,217.456 111,222.5C 118.279,226.708 117.779,227.375 109.5,224.5C 109.167,224.833 108.833,225.167 108.5,225.5C 110.167,226.667 111.833,227.833 113.5,229C 111.568,230.352 110.234,232.185 109.5,234.5C 106.276,229.814 102.943,225.147 99.5,220.5C 97.8987,221.035 97.3987,222.035 98,223.5C 99.1096,225.037 100.61,225.703 102.5,225.5C 102.34,227.199 102.506,228.866 103,230.5C 105.027,231.693 106.527,233.36 107.5,235.5C 107,235.833 106.5,236.167 106,236.5C 96.1079,235.109 90.9412,229.442 90.5,219.5C 89.5262,224.41 90.5262,228.91 93.5,233C 91.5566,234.555 89.3899,235.722 87,236.5C 85.0218,234.522 83.0218,232.522 81,230.5C 80.8333,230.833 80.6667,231.167 80.5,231.5C 86.3335,238.498 88.8335,246.498 88,255.5C 86.1434,258.979 87.1434,259.979 91,258.5C 95.629,267.086 99.129,276.086 101.5,285.5C 105.41,285.737 109.077,284.904 112.5,283C 119.833,282.667 127.167,282.333 134.5,282C 140.377,278.798 145.711,274.798 150.5,270C 151.777,269.873 152.943,270.373 154,271.5C 157.116,269.38 160.449,267.714 164,266.5C 164.833,266.833 165.667,267.167 166.5,267.5C 164.5,268.5 162.5,269.5 160.5,270.5C 162.833,271.167 165.167,271.833 167.5,272.5C 158.167,273.833 158.167,275.167 167.5,276.5C 161.579,277.913 161.246,279.58 166.5,281.5 Z"/></g>
<g><path style="opacity:1" fill="#820f0d" d="M 119.5,193.5 C 121.912,193.694 122.912,195.027 122.5,197.5C 121.5,197.5 120.5,197.5 119.5,197.5C 119.5,196.167 119.5,194.833 119.5,193.5 Z"/></g>
<g><path style="opacity:1" fill="#8a221c" d="M 98.5,188.5 C 100.681,188.284 102.347,189.117 103.5,191C 100.972,191.514 98.8051,192.68 97,194.5C 96.9637,192.428 97.4637,190.428 98.5,188.5 Z"/></g>
<g><path style="opacity:1" fill="#922e26" d="M 114.5,187.5 C 115.978,187.238 117.311,187.571 118.5,188.5C 117.167,190.167 115.833,191.833 114.5,193.5C 113.167,192.5 111.833,191.5 110.5,190.5C 112.184,189.85 113.517,188.85 114.5,187.5 Z"/></g>
<g><path style="opacity:1" fill="#871c17" d="M 110.5,184.5 C 113.115,186.477 112.615,187.81 109,188.5C 107.941,188.37 107.108,187.87 106.5,187C 108.066,186.392 109.4,185.558 110.5,184.5 Z"/></g>
<g><path style="opacity:1" fill="#8c231e" d="M 106.5,180.5 C 107.756,180.461 108.756,180.961 109.5,182C 107.61,183.873 105.61,184.706 103.5,184.5C 105.288,183.717 106.288,182.384 106.5,180.5 Z"/></g>
<g><path style="opacity:1" fill="#af5f5b" d="M 87.5,198.5 C 89.6516,199.077 89.985,200.244 88.5,202C 86.597,202.774 84.9304,202.44 83.5,201C 85.437,200.878 86.7703,200.045 87.5,198.5 Z"/></g>
<g><path style="opacity:1" fill="#8f2a23" d="M 139.5,156.5 C 140.376,156.369 141.043,156.702 141.5,157.5C 140.572,158.768 140.405,160.101 141,161.5C 144.397,163.558 146.063,166.558 146,170.5C 149.104,172.638 149.27,174.971 146.5,177.5C 151.713,179.139 152.713,182.139 149.5,186.5C 150.973,188.395 152.64,190.061 154.5,191.5C 152.903,192.791 151.57,194.291 150.5,196C 151.987,198.411 152.821,200.911 153,203.5C 151.933,204.191 150.766,204.691 149.5,205C 154.623,207.199 154.623,209.199 149.5,211C 152.274,212.605 152.94,214.772 151.5,217.5C 150.585,215.082 149.085,213.082 147,211.5C 146.517,210.552 146.351,209.552 146.5,208.5C 147.873,208.657 149.207,208.49 150.5,208C 146.87,207.729 145.87,206.062 147.5,203C 148.938,202.781 150.271,202.281 151.5,201.5C 146.315,198.016 146.315,194.682 151.5,191.5C 147.123,189.157 146.457,185.99 149.5,182C 144.422,180.921 143.422,178.421 146.5,174.5C 144.233,171.971 142.899,168.971 142.5,165.5C 138.892,163.299 137.892,160.299 139.5,156.5 Z"/></g>
<g><path style="opacity:0.004" fill="#9a4b3f" d="M 269.5,204.5 C 270.833,205.167 270.833,205.167 269.5,204.5 Z"/></g>
<g><path style="opacity:1" fill="#a3283f" d="M 71.5,210.5 C 67.0686,209.268 62.5686,208.268 58,207.5C 55.7794,207.393 53.9461,208.06 52.5,209.5C 51.4937,209.938 51.4937,210.604 52.5,211.5C 47.7651,213.044 43.0985,214.878 38.5,217C 20.2829,230.583 9.61628,248.749 6.5,271.5C 6.16667,271.5 5.83333,271.5 5.5,271.5C 5.5,270.167 5.5,268.833 5.5,267.5C 10.5681,237.941 26.9015,217.441 54.5,206C 60.1167,205.05 65.45,205.883 70.5,208.5C 71.2975,208.957 71.6309,209.624 71.5,210.5 Z"/></g>
<g><path style="opacity:1" fill="#f5e8e9" d="M 71.5,210.5 C 63.7222,213.431 56.0556,216.765 48.5,220.5C 51.1288,217.369 53.9621,214.369 57,211.5C 57.7494,210.365 57.5827,209.365 56.5,208.5C 55.2638,209.246 53.9305,209.579 52.5,209.5C 53.9461,208.06 55.7794,207.393 58,207.5C 62.5686,208.268 67.0686,209.268 71.5,210.5 Z"/></g>
<g><path style="opacity:1" fill="#871714" d="M 48.5,220.5 C 44.562,223.098 40.8953,226.098 37.5,229.5C 42.5,223.5 47.5,217.5 52.5,211.5C 51.4937,210.604 51.4937,209.938 52.5,209.5C 53.9305,209.579 55.2638,209.246 56.5,208.5C 57.5827,209.365 57.7494,210.365 57,211.5C 53.9621,214.369 51.1288,217.369 48.5,220.5 Z"/></g>
<g><path style="opacity:1" fill="#830c0a" d="M 112.5,209.5 C 115.188,209.166 117.521,209.832 119.5,211.5C 118.928,214.244 117.262,215.077 114.5,214C 113.313,212.981 112.313,211.814 111.5,210.5C 111.624,209.893 111.957,209.56 112.5,209.5 Z"/></g>
<g><path style="opacity:1" fill="#b15f5c" d="M 119.5,211.5 C 117.521,209.832 115.188,209.166 112.5,209.5C 115.64,206.881 118.64,207.381 121.5,211C 120.906,211.464 120.239,211.631 119.5,211.5 Z"/></g>
<g><path style="opacity:1" fill="#9c3551" d="M 234.5,170.5 C 234.667,182.838 234.5,195.171 234,207.5C 233.821,211.025 233.321,214.359 232.5,217.5C 232.672,216.508 232.338,215.842 231.5,215.5C 232.284,201.848 232.618,188.181 232.5,174.5C 233.167,173.167 233.833,171.833 234.5,170.5 Z"/></g>
<g><path style="opacity:1" fill="#fbf6f6" d="M 277.5,239.5 C 275.239,253.727 272.739,268.061 270,282.5C 265.652,296.188 260.486,309.521 254.5,322.5C 253.033,322.106 251.533,321.773 250,321.5C 248.091,322.156 246.258,322.656 244.5,323C 261.201,292.372 270.201,259.538 271.5,224.5C 273.903,224.393 275.736,225.393 277,227.5C 277.499,231.486 277.666,235.486 277.5,239.5 Z"/></g>
<g><path style="opacity:1" fill="#8e251f" d="M 32.5,235.5 C 32.6633,237.857 32.4966,240.19 32,242.5C 31.7679,241.263 31.2679,240.263 30.5,239.5C 29.4891,237.598 29.3224,235.598 30,233.5C 31.813,232.391 32.6463,233.058 32.5,235.5 Z"/></g>
<g><path style="opacity:1" fill="#881915" d="M 29.5,242.5 C 29.5,248.5 29.5,254.5 29.5,260.5C 29.8833,264.319 30.8833,267.986 32.5,271.5C 32.3333,271.833 32.1667,272.167 32,272.5C 31.0853,271.672 30.4186,270.672 30,269.5C 27.1969,260.233 27.0302,251.233 29.5,242.5 Z"/></g>
<g><path style="opacity:1" fill="#cf9c9b" d="M 17.5,245.5 C 17.56,244.957 17.8933,244.624 18.5,244.5C 19.8333,251.833 19.8333,259.167 18.5,266.5C 17.5481,264.955 17.2148,263.288 17.5,261.5C 18.8333,256.167 18.8333,250.833 17.5,245.5 Z"/></g>
<g><path style="opacity:1" fill="#912a26" d="M 17.5,245.5 C 18.8333,250.833 18.8333,256.167 17.5,261.5C 16.3389,256.114 16.3389,250.78 17.5,245.5 Z"/></g>
<g><path style="opacity:1" fill="#8f2821" d="M 13.5,258.5 C 14.824,262.107 15.4907,266.107 15.5,270.5C 15.9452,277.844 16.1119,285.177 16,292.5C 15.4888,290.122 14.8221,287.788 14,285.5C 12.6575,286.902 11.8242,286.569 11.5,284.5C 9.56393,280.955 9.2306,277.289 10.5,273.5C 11.6497,276.747 12.483,280.08 13,283.5C 13.0475,275.113 13.2142,266.78 13.5,258.5 Z"/></g>
<g><path style="opacity:1" fill="#f2e2e3" d="M 32.5,235.5 C 33.1667,236.5 33.8333,237.5 34.5,238.5C 30.9122,257.5 38.2456,270 56.5,276C 60.9654,276.734 65.2987,276.234 69.5,274.5C 70.4164,274.543 71.0831,274.876 71.5,275.5C 63.5611,277.9 55.5611,278.066 47.5,276C 40.8909,272.635 36.2243,267.468 33.5,260.5C 32.6143,261.325 32.281,262.325 32.5,263.5C 31.71,262.391 31.21,261.058 31,259.5C 30.6174,260.056 30.1174,260.389 29.5,260.5C 29.5,254.5 29.5,248.5 29.5,242.5C 30.404,241.791 30.7373,240.791 30.5,239.5C 31.2679,240.263 31.7679,241.263 32,242.5C 32.4966,240.19 32.6633,237.857 32.5,235.5 Z"/></g>
<g><path style="opacity:1" fill="#861611" d="M 71.5,275.5 C 71.1601,278.675 69.4934,280.841 66.5,282C 60.8333,282.667 55.1667,282.667 49.5,282C 41.1831,278.15 35.5164,271.984 32.5,263.5C 32.281,262.325 32.6143,261.325 33.5,260.5C 36.2243,267.468 40.8909,272.635 47.5,276C 55.5611,278.066 63.5611,277.9 71.5,275.5 Z"/></g>
<g><path style="opacity:0.741" fill="#ba4c57" d="M 277.5,239.5 C 277.343,240.873 277.51,242.207 278,243.5C 278.383,242.944 278.883,242.611 279.5,242.5C 279.5,245.5 279.5,248.5 279.5,251.5C 277.468,262.737 275.135,273.737 272.5,284.5C 268.545,298.36 263.212,311.694 256.5,324.5C 255.833,325.167 255.167,325.833 254.5,326.5C 254.5,325.167 254.5,323.833 254.5,322.5C 260.486,309.521 265.652,296.188 270,282.5C 272.739,268.061 275.239,253.727 277.5,239.5 Z"/></g>
<g><path style="opacity:1" fill="#ab1436" d="M 231.5,215.5 C 232.338,215.842 232.672,216.508 232.5,217.5C 231.269,229.093 228.769,240.427 225,251.5C 218.99,268.414 212.157,284.747 204.5,300.5C 203.957,300.56 203.624,300.893 203.5,301.5C 204.243,302.182 204.909,302.849 205.5,303.5C 204.448,303.351 203.448,303.517 202.5,304C 199.968,307.702 197.635,311.535 195.5,315.5C 194.675,316.386 193.675,316.719 192.5,316.5C 190.664,322.515 189.664,328.681 189.5,335C 190.941,345.155 192.275,355.322 193.5,365.5C 193.331,374.514 191.998,383.348 189.5,392C 193.992,404.984 200.325,416.984 208.5,428C 214.167,429.333 215.833,427.333 213.5,422C 218.182,422.464 222.849,422.297 227.5,421.5C 225.833,419.5 224.167,417.5 222.5,415.5C 225.428,414.516 228.428,414.183 231.5,414.5C 231.731,411.215 230.397,408.715 227.5,407C 228,406.5 228.5,406 229,405.5C 232.003,407.641 235.169,407.974 238.5,406.5C 238.833,407.167 239.167,407.833 239.5,408.5C 237.52,420.455 236.854,432.788 237.5,445.5C 225.162,445.333 212.829,445.5 200.5,446C 198.825,446.985 197.158,447.819 195.5,448.5C 191.167,448.5 186.833,448.5 182.5,448.5C 182.047,447.542 181.381,446.708 180.5,446C 148.835,445.5 117.168,445.333 85.5,445.5C 117.331,444.336 149.331,444.169 181.5,445C 183.338,447.303 185.672,447.969 188.5,447C 187.263,446.768 186.263,446.268 185.5,445.5C 186.239,445.631 186.906,445.464 187.5,445C 185.983,443.315 184.316,441.815 182.5,440.5C 182.833,440.167 183.167,439.833 183.5,439.5C 186.483,441.32 189.316,443.32 192,445.5C 192.5,445.333 193,445.167 193.5,445C 192,443.5 190.5,442 189,440.5C 188.312,439.668 188.479,439.002 189.5,438.5C 191.535,440.372 193.702,442.039 196,443.5C 196.5,443.333 197,443.167 197.5,443C 196.315,441.647 194.981,440.48 193.5,439.5C 195.562,438.239 197.228,438.739 198.5,441C 199.944,441.781 201.277,441.614 202.5,440.5C 200.333,439.052 198,437.885 195.5,437C 195.833,436.667 196.167,436.333 196.5,436C 198.616,436.282 200.783,436.782 203,437.5C 204.662,437.612 205.829,436.946 206.5,435.5C 201.618,434.781 196.951,433.447 192.5,431.5C 193.263,430.732 194.263,430.232 195.5,430C 195.272,429.601 194.938,429.435 194.5,429.5C 190.925,422.589 186.925,415.922 182.5,409.5C 181.478,409.855 180.811,410.522 180.5,411.5C 179.833,411.5 179.167,411.5 178.5,411.5C 179.237,409.695 180.237,408.029 181.5,406.5C 172.853,390.872 167.353,374.205 165,356.5C 165.139,344.464 165.973,332.464 167.5,320.5C 168.434,319.432 168.768,318.099 168.5,316.5C 160.493,316.334 152.493,316.5 144.5,317C 145.044,317.717 145.711,318.217 146.5,318.5C 147.833,319.167 148.833,320.167 149.5,321.5C 147.5,321.5 145.5,321.5 143.5,321.5C 141.352,321.611 141.019,320.944 142.5,319.5C 141.271,318.719 139.938,318.219 138.5,318C 127.833,317.333 117.167,317.333 106.5,318C 108.044,318.29 109.377,318.956 110.5,320C 104.985,318.18 101.152,320.013 99,325.5C 98.879,323.273 98.0456,321.44 96.5,320C 92.7789,319.322 89.1122,319.489 85.5,320.5C 85.5,319.833 85.1667,319.5 84.5,319.5C 81.5817,316.781 79.5817,313.447 78.5,309.5C 76.1384,309.026 73.805,308.692 71.5,308.5C 72.9652,306.401 74.2985,304.234 75.5,302C 73.9833,300.316 72.3166,298.816 70.5,297.5C 70.1667,297.5 69.8333,297.5 69.5,297.5C 70.1997,293.467 72.533,291.134 76.5,290.5C 76.8076,288.076 76.4742,285.743 75.5,283.5C 71.8677,284.984 68.5344,286.984 65.5,289.5C 64.5318,288.511 63.3651,287.844 62,287.5C 50.9372,290.724 39.7705,293.557 28.5,296C 24.8459,297.297 22.1792,296.297 20.5,293C 35.7716,291.433 50.7716,288.433 65.5,284C 68.7542,282.973 71.7542,281.473 74.5,279.5C 73.9649,277.739 72.9649,276.406 71.5,275.5C 71.0831,274.876 70.4164,274.543 69.5,274.5C 65.2987,276.234 60.9654,276.734 56.5,276C 38.2456,270 30.9122,257.5 34.5,238.5C 35.0768,237.227 35.7435,237.227 36.5,238.5C 35.8879,240.943 35.5546,243.443 35.5,246C 36.4636,264.464 46.1303,273.964 64.5,274.5C 62.4518,269.388 61.2851,264.055 61,258.5C 56.6769,253.833 57.5103,253.333 63.5,257C 68.5411,265.583 73.7077,274.083 79,282.5C 83.7489,286.578 87.7489,291.245 91,296.5C 94.758,299.962 99.258,301.629 104.5,301.5C 120.175,299.835 134.841,295.001 148.5,287C 152.167,286.667 155.833,286.333 159.5,286C 161.551,283.98 163.884,282.48 166.5,281.5C 166.328,282.492 166.662,283.158 167.5,283.5C 169.25,284.742 170.917,286.242 172.5,288C 175.518,288.499 178.518,288.332 181.5,287.5C 184.029,288.025 186.362,289.025 188.5,290.5C 191.979,291.99 195.312,291.657 198.5,289.5C 201.135,290.729 203.801,290.729 206.5,289.5C 218.82,266.207 227.153,241.54 231.5,215.5 Z"/></g>
<g><path style="opacity:1" fill="#fbf6f6" d="M 188.5,290.5 C 186.362,289.025 184.029,288.025 181.5,287.5C 178.518,288.332 175.518,288.499 172.5,288C 170.917,286.242 169.25,284.742 167.5,283.5C 169.816,277.733 169.982,271.733 168,265.5C 165.4,263.109 162.733,263.109 160,265.5C 157.191,262.633 157.357,260.633 160.5,259.5C 163.96,260.929 167.627,261.762 171.5,262C 178.721,272.227 187.054,281.56 196.5,290C 193.854,290.497 191.187,290.664 188.5,290.5 Z"/></g>
<g><path style="opacity:1" fill="#faf4f4" d="M 145.5,248.5 C 159.905,247.268 173.239,250.435 185.5,258C 188.409,260.839 188.075,263.006 184.5,264.5C 175.233,260.513 165.566,258.18 155.5,257.5C 155.647,260.443 156.313,263.276 157.5,266C 156.991,267.169 156.158,268.002 155,268.5C 153.629,264.927 152.129,261.427 150.5,258C 143.791,257.801 137.124,258.301 130.5,259.5C 130.5,256.5 130.5,253.5 130.5,250.5C 135.71,250.392 140.71,249.725 145.5,248.5 Z"/></g>
<g><path style="opacity:0.004" fill="#d2aba7" d="M 272.5,284.5 C 273.833,285.167 273.833,285.167 272.5,284.5 Z"/></g>
<g><path style="opacity:1" fill="#eed7d9" d="M 162.5,285.5 C 164.48,287.895 165.813,290.729 166.5,294C 166.167,294.5 165.833,295 165.5,295.5C 162.453,292.701 161.453,289.367 162.5,285.5 Z"/></g>
<g><path style="opacity:1" fill="#973732" d="M 13.5,296.5 C 16.7359,295.6 19.4026,296.767 21.5,300C 29.2083,300.706 36.875,300.372 44.5,299C 48.1504,297.555 51.817,296.555 55.5,296C 44.6348,302.074 32.9681,304.074 20.5,302C 18.0043,300.334 15.671,298.5 13.5,296.5 Z"/></g>
<g><path style="opacity:1" fill="#8a231d" d="M 64.5,292.5 C 65.2389,292.369 65.9056,292.536 66.5,293C 62.3333,297.167 58.1667,301.333 54,305.5C 53.6121,304.572 52.9454,303.905 52,303.5C 46.6263,305.554 41.1263,306.721 35.5,307C 41.9629,304.052 48.6296,301.719 55.5,300C 59.2748,298.389 62.2748,295.889 64.5,292.5 Z"/></g>
<g><path style="opacity:1" fill="#fcf9f9" d="M 205.5,303.5 C 206.209,307.196 206.543,310.862 206.5,314.5C 207.803,312.063 209.47,309.896 211.5,308C 212.449,307.383 213.282,307.549 214,308.5C 214.543,311.17 214.043,313.67 212.5,316C 212.833,316.5 213.167,317 213.5,317.5C 215.38,314.909 217.38,312.409 219.5,310C 220.448,309.517 221.448,309.351 222.5,309.5C 219.925,315.143 216.925,320.643 213.5,326C 214.635,326.749 215.635,326.583 216.5,325.5C 219.31,320.856 222.977,317.023 227.5,314C 229.167,313.333 230.833,313.333 232.5,314C 233.022,314.561 233.355,315.228 233.5,316C 230.847,319.322 228.18,322.656 225.5,326C 226,326.5 226.5,327 227,327.5C 229.5,325 232,322.5 234.5,320C 237.206,318.092 240.206,317.259 243.5,317.5C 242.856,322.647 240.356,326.647 236,329.5C 235.312,330.332 235.479,330.998 236.5,331.5C 241.189,327.462 246.522,324.795 252.5,323.5C 252.649,324.552 252.483,325.552 252,326.5C 248.167,329.667 244.333,332.833 240.5,336C 244.035,336.07 247.035,334.737 249.5,332C 251.436,331.187 253.436,330.687 255.5,330.5C 255.509,332.308 255.009,333.975 254,335.5C 251.291,338.378 248.458,341.044 245.5,343.5C 246.79,344.408 248.123,344.241 249.5,343C 251.403,340.595 253.736,338.761 256.5,337.5C 257.519,339.46 257.519,341.46 256.5,343.5C 254.095,347.229 250.762,349.896 246.5,351.5C 258.753,355.75 258.42,357.417 245.5,356.5C 245.5,357.5 245.5,358.5 245.5,359.5C 248.518,359.335 251.518,359.502 254.5,360C 257.372,362.532 257.039,364.365 253.5,365.5C 249.933,364.733 246.433,363.733 243,362.5C 242.5,362.833 242,363.167 241.5,363.5C 246.154,365.344 250.654,367.677 255,370.5C 255.986,372.925 255.319,374.591 253,375.5C 248.94,373.297 244.773,372.297 240.5,372.5C 244.079,373.872 247.246,375.872 250,378.5C 250.494,380.134 250.66,381.801 250.5,383.5C 246.486,383.334 242.486,383.501 238.5,384C 244.329,385.804 246.829,389.637 246,395.5C 242.051,396.208 238.718,394.875 236,391.5C 235.5,392 235,392.5 234.5,393C 237.219,395.382 239.553,398.049 241.5,401C 240.876,403.085 239.876,404.918 238.5,406.5C 235.169,407.974 232.003,407.641 229,405.5C 228.5,406 228,406.5 227.5,407C 230.397,408.715 231.731,411.215 231.5,414.5C 228.428,414.183 225.428,414.516 222.5,415.5C 224.167,417.5 225.833,419.5 227.5,421.5C 222.849,422.297 218.182,422.464 213.5,422C 215.833,427.333 214.167,429.333 208.5,428C 200.325,416.984 193.992,404.984 189.5,392C 191.998,383.348 193.331,374.514 193.5,365.5C 192.275,355.322 190.941,345.155 189.5,335C 189.664,328.681 190.664,322.515 192.5,316.5C 193.675,316.719 194.675,316.386 195.5,315.5C 197.635,311.535 199.968,307.702 202.5,304C 203.448,303.517 204.448,303.351 205.5,303.5 Z"/></g>
<g><path style="opacity:1" fill="#faf5f5" d="M 70.5,297.5 C 72.3166,298.816 73.9833,300.316 75.5,302C 74.2985,304.234 72.9652,306.401 71.5,308.5C 73.805,308.692 76.1384,309.026 78.5,309.5C 79.5817,313.447 81.5817,316.781 84.5,319.5C 73.7586,319.343 63.092,320.176 52.5,322C 47.1719,323.163 42.1719,325.163 37.5,328C 31.9346,335.194 27.768,343.028 25,351.5C 29,344.833 33,338.167 37,331.5C 40.7423,326.709 45.5756,324.876 51.5,326C 49.0465,327.74 47.5465,329.907 47,332.5C 51.7384,328.759 56.7384,325.426 62,322.5C 64.3193,323.409 64.9859,325.075 64,327.5C 61.9205,329.123 59.7538,330.623 57.5,332C 58.5,332.167 59.5,332.333 60.5,332.5C 66.2695,330.44 71.2695,327.106 75.5,322.5C 75.8333,322.833 76.1667,323.167 76.5,323.5C 74.7892,325.24 73.9558,327.24 74,329.5C 77.1551,325.497 80.9885,322.497 85.5,320.5C 89.1122,319.489 92.7789,319.322 96.5,320C 98.0456,321.44 98.879,323.273 99,325.5C 101.152,320.013 104.985,318.18 110.5,320C 109.377,318.956 108.044,318.29 106.5,318C 117.167,317.333 127.833,317.333 138.5,318C 139.938,318.219 141.271,318.719 142.5,319.5C 141.019,320.944 141.352,321.611 143.5,321.5C 138.882,324.118 135.216,327.784 132.5,332.5C 130.667,331.948 129,331.115 127.5,330C 128.167,329.333 128.833,328.667 129.5,328C 128.069,327.535 126.903,326.701 126,325.5C 125.417,327.002 124.584,328.335 123.5,329.5C 122.264,328.754 120.93,328.421 119.5,328.5C 118.774,323.963 116.107,322.13 111.5,323C 110.244,323.417 109.577,324.25 109.5,325.5C 110.091,326.151 110.757,326.818 111.5,327.5C 111.376,328.107 111.043,328.44 110.5,328.5C 110.44,327.957 110.107,327.624 109.5,327.5C 105.093,330.419 101.927,334.419 100,339.5C 96.4658,351.226 94.4658,363.226 94,375.5C 93.1524,378.56 92.1524,381.56 91,384.5C 89.2417,386.083 87.7417,387.75 86.5,389.5C 85.8826,389.389 85.3826,389.056 85,388.5C 81.4895,391.667 81.8229,394.333 86,396.5C 88.5524,402.353 89.0524,408.353 87.5,414.5C 86.8333,414.5 86.1667,414.5 85.5,414.5C 84.7004,419.694 83.8671,425.028 83,430.5C 82.6924,431.308 82.1924,431.975 81.5,432.5C 80.5,431.833 79.5,431.167 78.5,430.5C 78.1667,430.833 77.8333,431.167 77.5,431.5C 79.3706,434.234 80.3706,437.234 80.5,440.5C 78.901,440.232 77.5676,440.566 76.5,441.5C 75.6829,439.031 75.1829,436.365 75,433.5C 72.9404,430.714 71.4404,427.714 70.5,424.5C 67.0441,424.404 63.8774,423.404 61,421.5C 60.7586,418.711 60.092,416.044 59,413.5C 56,411.5 53,409.5 50,407.5C 46.1068,398.94 40.1068,392.273 32,387.5C 30.478,385.259 29.1447,382.926 28,380.5C 25.9102,383.147 23.4102,383.814 20.5,382.5C 19.8443,380.516 19.1776,378.516 18.5,376.5C 18.6799,375.446 19.0133,374.446 19.5,373.5C 16.2832,373.342 12.9499,373.175 9.5,373C 9,372.5 8.5,372 8,371.5C 7.00389,367.569 6.50389,363.569 6.5,359.5C 6.86841,353.063 7.86841,346.73 9.5,340.5C 10.3382,340.158 10.6716,339.492 10.5,338.5C 11.3138,340.631 11.8138,342.964 12,345.5C 12.21,343.942 12.71,342.609 13.5,341.5C 13.3444,338.934 13.6777,336.434 14.5,334C 13.3246,332.141 12.3246,330.308 11.5,328.5C 7.83423,323.834 6.16757,318.501 6.5,312.5C 6.35055,311.448 6.51722,310.448 7,309.5C 9.23359,311.7 11.7336,313.533 14.5,315C 14.799,316.32 14.9657,317.82 15,319.5C 18.7611,322.243 22.9278,323.076 27.5,322C 33.7561,319.871 39.7561,317.204 45.5,314C 52.1477,312.405 58.8144,311.072 65.5,310C 67.5,308.667 69.5,307.333 71.5,306C 68.8404,306.476 66.1737,307.31 63.5,308.5C 63.1667,308 62.8333,307.5 62.5,307C 64.9882,303.679 67.6549,300.512 70.5,297.5 Z"/></g>
<g><path style="opacity:1" fill="#b02d41" d="M 244.5,174.5 C 244.5,176.5 244.5,178.5 244.5,180.5C 245.833,180.5 247.167,180.5 248.5,180.5C 252.76,182.352 254.427,185.686 253.5,190.5C 256.188,190.166 258.521,190.832 260.5,192.5C 262.567,195.87 263.9,199.537 264.5,203.5C 266.075,204.456 267.742,205.123 269.5,205.5C 272.168,210.407 273.168,215.74 272.5,221.5C 275.326,221.998 277.66,223.331 279.5,225.5C 279.5,231.167 279.5,236.833 279.5,242.5C 278.883,242.611 278.383,242.944 278,243.5C 277.51,242.207 277.343,240.873 277.5,239.5C 277.666,235.486 277.499,231.486 277,227.5C 275.736,225.393 273.903,224.393 271.5,224.5C 270.201,259.538 261.201,292.372 244.5,323C 246.258,322.656 248.091,322.156 250,321.5C 251.533,321.773 253.033,322.106 254.5,322.5C 254.5,323.833 254.5,325.167 254.5,326.5C 255.795,327.488 257.128,328.488 258.5,329.5C 258.5,331.167 258.5,332.833 258.5,334.5C 257.167,334.833 257.167,335.167 258.5,335.5C 261.039,338.149 261.039,340.816 258.5,343.5C 257.833,343.5 257.167,343.5 256.5,343.5C 257.519,341.46 257.519,339.46 256.5,337.5C 253.736,338.761 251.403,340.595 249.5,343C 248.123,344.241 246.79,344.408 245.5,343.5C 248.458,341.044 251.291,338.378 254,335.5C 255.009,333.975 255.509,332.308 255.5,330.5C 253.436,330.687 251.436,331.187 249.5,332C 247.035,334.737 244.035,336.07 240.5,336C 244.333,332.833 248.167,329.667 252,326.5C 252.483,325.552 252.649,324.552 252.5,323.5C 246.522,324.795 241.189,327.462 236.5,331.5C 235.479,330.998 235.312,330.332 236,329.5C 240.356,326.647 242.856,322.647 243.5,317.5C 240.206,317.259 237.206,318.092 234.5,320C 232,322.5 229.5,325 227,327.5C 226.5,327 226,326.5 225.5,326C 228.18,322.656 230.847,319.322 233.5,316C 233.355,315.228 233.022,314.561 232.5,314C 230.833,313.333 229.167,313.333 227.5,314C 222.977,317.023 219.31,320.856 216.5,325.5C 215.635,326.583 214.635,326.749 213.5,326C 216.925,320.643 219.925,315.143 222.5,309.5C 221.448,309.351 220.448,309.517 219.5,310C 217.38,312.409 215.38,314.909 213.5,317.5C 213.167,317 212.833,316.5 212.5,316C 214.043,313.67 214.543,311.17 214,308.5C 213.282,307.549 212.449,307.383 211.5,308C 209.47,309.896 207.803,312.063 206.5,314.5C 206.543,310.862 206.209,307.196 205.5,303.5C 204.909,302.849 204.243,302.182 203.5,301.5C 203.624,300.893 203.957,300.56 204.5,300.5C 206.474,302.428 207.974,304.761 209,307.5C 234.944,268.476 246.11,225.476 242.5,178.5C 243.167,177.167 243.833,175.833 244.5,174.5 Z"/></g>
<g><path style="opacity:1" fill="#fbf6f6" d="M 263.5,206.5 C 265.903,206.393 267.736,207.393 269,209.5C 270.755,247.043 262.921,282.377 245.5,315.5C 242.606,315.339 239.606,315.672 236.5,316.5C 235.417,315.635 235.251,314.635 236,313.5C 254.481,280.273 263.648,244.606 263.5,206.5 Z"/></g>
<g><path style="opacity:1" fill="#fbf5f6" d="M 253.5,193.5 C 255.722,193.178 257.556,193.845 259,195.5C 263.002,235.823 255.335,273.823 236,309.5C 234.683,312.389 232.683,313.056 230,311.5C 227.684,311.934 225.684,312.934 224,314.5C 223.986,312.529 224.319,310.529 225,308.5C 245.462,273.06 254.962,234.726 253.5,193.5 Z"/></g>
<g><path style="opacity:1" fill="#fbf7f7" d="M 244.5,182.5 C 247.522,182.428 249.688,183.762 251,186.5C 253.574,227.183 245.574,265.516 227,301.5C 225.708,303.249 224.542,305.082 223.5,307C 220.993,307.093 218.826,307.926 217,309.5C 216.363,307.697 215.197,306.364 213.5,305.5C 237.127,267.993 247.46,226.993 244.5,182.5 Z"/></g>
<g><path style="opacity:1" fill="#805f85" d="M 167.5,320.5 C 167.5,319.5 167.5,318.5 167.5,317.5C 160.313,317.175 153.313,317.509 146.5,318.5C 145.711,318.217 145.044,317.717 144.5,317C 152.493,316.5 160.493,316.334 168.5,316.5C 168.768,318.099 168.434,319.432 167.5,320.5 Z"/></g>
<g><path style="opacity:1" fill="#943029" d="M 69.5,297.5 C 69.8333,297.5 70.1667,297.5 70.5,297.5C 67.6549,300.512 64.9882,303.679 62.5,307C 62.8333,307.5 63.1667,308 63.5,308.5C 66.1737,307.31 68.8404,306.476 71.5,306C 69.5,307.333 67.5,308.667 65.5,310C 58.8144,311.072 52.1477,312.405 45.5,314C 39.7561,317.204 33.7561,319.871 27.5,322C 22.9278,323.076 18.7611,322.243 15,319.5C 14.9657,317.82 14.799,316.32 14.5,315C 11.7336,313.533 9.23359,311.7 7,309.5C 6.51722,310.448 6.35055,311.448 6.5,312.5C 5.53178,310.393 5.19845,308.059 5.5,305.5C 6.53069,304.645 7.69736,303.978 9,303.5C 14.2585,306.194 19.7585,308.36 25.5,310C 26.6039,311.131 26.2705,311.965 24.5,312.5C 20.0309,310.381 15.3642,309.547 10.5,310C 14.9931,313.244 19.9931,315.411 25.5,316.5C 23.1667,317.167 20.8333,317.833 18.5,318.5C 26.5572,321.786 33.8905,320.286 40.5,314C 46.5169,311.999 52.5169,309.999 58.5,308C 62.0357,304.296 65.7024,300.796 69.5,297.5 Z"/></g>
<g><path style="opacity:1" fill="#7cbae4" d="M 146.5,318.5 C 153.313,317.509 160.313,317.175 167.5,317.5C 167.5,318.5 167.5,319.5 167.5,320.5C 165.973,332.464 165.139,344.464 165,356.5C 167.353,374.205 172.853,390.872 181.5,406.5C 180.237,408.029 179.237,409.695 178.5,411.5C 176.463,413.53 174.13,415.196 171.5,416.5C 169.247,415.747 167.413,414.414 166,412.5C 156.91,397.887 150.577,382.221 147,365.5C 153.47,357.257 157.304,347.924 158.5,337.5C 158.572,330.299 155.572,324.966 149.5,321.5C 148.833,320.167 147.833,319.167 146.5,318.5 Z"/></g>
<g><path style="opacity:1" fill="#8b201a" d="M 84.5,319.5 C 85.1667,319.5 85.5,319.833 85.5,320.5C 80.9885,322.497 77.1551,325.497 74,329.5C 73.9558,327.24 74.7892,325.24 76.5,323.5C 76.1667,323.167 75.8333,322.833 75.5,322.5C 71.2695,327.106 66.2695,330.44 60.5,332.5C 59.5,332.333 58.5,332.167 57.5,332C 59.7538,330.623 61.9205,329.123 64,327.5C 64.9859,325.075 64.3193,323.409 62,322.5C 56.7384,325.426 51.7384,328.759 47,332.5C 47.5465,329.907 49.0465,327.74 51.5,326C 45.5756,324.876 40.7423,326.709 37,331.5C 33,338.167 29,344.833 25,351.5C 27.768,343.028 31.9346,335.194 37.5,328C 42.1719,325.163 47.1719,323.163 52.5,322C 63.092,320.176 73.7586,319.343 84.5,319.5 Z"/></g>
<g><path style="opacity:1" fill="#8b201a" d="M 124.5,318.5 C 128.338,319.692 132.172,319.692 136,318.5C 137.059,318.63 137.892,319.13 138.5,320C 133.134,323.737 128.467,323.237 124.5,318.5 Z"/></g>
<g><path style="opacity:1" fill="#fdfafa" d="M 192.5,431.5 C 196.951,433.447 201.618,434.781 206.5,435.5C 205.829,436.946 204.662,437.612 203,437.5C 200.783,436.782 198.616,436.282 196.5,436C 196.167,436.333 195.833,436.667 195.5,437C 198,437.885 200.333,439.052 202.5,440.5C 201.277,441.614 199.944,441.781 198.5,441C 197.228,438.739 195.562,438.239 193.5,439.5C 194.981,440.48 196.315,441.647 197.5,443C 197,443.167 196.5,443.333 196,443.5C 193.702,442.039 191.535,440.372 189.5,438.5C 188.479,439.002 188.312,439.668 189,440.5C 190.5,442 192,443.5 193.5,445C 193,445.167 192.5,445.333 192,445.5C 189.316,443.32 186.483,441.32 183.5,439.5C 183.167,439.833 182.833,440.167 182.5,440.5C 184.316,441.815 185.983,443.315 187.5,445C 186.906,445.464 186.239,445.631 185.5,445.5C 180.061,441.963 174.061,439.629 167.5,438.5C 163.297,436.472 159.464,433.805 156,430.5C 153.606,424.713 150.94,419.046 148,413.5C 139.955,404.458 132.289,395.124 125,385.5C 120.06,378.188 118.227,370.188 119.5,361.5C 121.405,363.058 122.239,362.725 122,360.5C 116.381,358.41 110.548,357.41 104.5,357.5C 102.44,356.189 100.274,356.189 98,357.5C 97.8333,357 97.6667,356.5 97.5,356C 99.5492,347.85 102.383,340.017 106,332.5C 107.371,330.959 108.871,329.625 110.5,328.5C 111.043,328.44 111.376,328.107 111.5,327.5C 110.757,326.818 110.091,326.151 109.5,325.5C 111.856,324.425 114.189,324.425 116.5,325.5C 115.718,327.329 116.384,328.829 118.5,330C 125.891,331.457 132.391,334.623 138,339.5C 140.285,344.972 140.952,350.638 140,356.5C 139.07,358.552 137.57,360.052 135.5,361C 138.298,361.561 140.131,360.394 141,357.5C 146.368,376.264 153.702,394.264 163,411.5C 171.109,420.797 180.942,427.464 192.5,431.5 Z"/></g>
<g><path style="opacity:0.004" fill="#e3d4cc" d="M 256.5,324.5 C 257.833,325.167 257.833,325.167 256.5,324.5 Z"/></g>
<g><path style="opacity:1" fill="#7cb4de" d="M 5.5,320.5 C 6.52203,323.361 8.02203,326.028 10,328.5C 10.4954,331.531 10.3287,334.531 9.5,337.5C 7.43692,341.623 6.10359,345.957 5.5,350.5C 4.16667,340.5 4.16667,330.5 5.5,320.5 Z"/></g>
<g><path style="opacity:0.004" fill="#ca7988" d="M 258.5,328.5 C 259.833,329.167 259.833,329.167 258.5,328.5 Z"/></g>
<g><path style="opacity:1" fill="#841310" d="M 103.5,323.5 C 104.766,324.09 106.099,324.59 107.5,325C 103.528,329.123 100.194,333.623 97.5,338.5C 96.3861,337.277 96.2195,335.944 97,334.5C 98.6743,330.476 100.841,326.809 103.5,323.5 Z"/></g>
<g><path style="opacity:1" fill="#89201a" d="M 13.5,341.5 C 14.6462,338.36 15.9796,335.193 17.5,332C 16.6721,331.085 15.6721,330.419 14.5,330C 17.0631,329.082 19.2298,329.582 21,331.5C 21.414,331.043 21.914,330.709 22.5,330.5C 23.6139,331.723 23.7805,333.056 23,334.5C 20.8484,337.634 19.1817,340.968 18,344.5C 17.8333,344 17.6667,343.5 17.5,343C 18.4091,341.211 18.5758,339.377 18,337.5C 16.9431,339.219 16.1097,341.053 15.5,343C 14.184,343.528 13.5173,343.028 13.5,341.5 Z"/></g>
<g><path style="opacity:1" fill="#8d241e" d="M 26.5,330.5 C 27.9778,330.238 29.3112,330.571 30.5,331.5C 27.5542,337.071 23.8875,342.071 19.5,346.5C 19.1667,346.333 18.8333,346.167 18.5,346C 21.8762,341.145 24.5429,335.978 26.5,330.5 Z"/></g>
<g><path style="opacity:1" fill="#8a1c17" d="M 86.5,321.5 C 87.8734,321.343 89.2068,321.51 90.5,322C 82.2835,324.606 76.2835,329.773 72.5,337.5C 70.4235,339.288 68.2568,340.954 66,342.5C 65.3333,341.833 65.3333,341.167 66,340.5C 69.7026,337.133 73.036,333.466 76,329.5C 78.94,325.963 82.44,323.297 86.5,321.5 Z"/></g>
<g><path style="opacity:0.004" fill="#be6f76" d="M 258.5,334.5 C 259.833,335.167 259.833,335.167 258.5,334.5 Z"/></g>
<g><path style="opacity:1" fill="#b05c59" d="M 11.5,328.5 C 12.3246,330.308 13.3246,332.141 14.5,334C 13.6777,336.434 13.3444,338.934 13.5,341.5C 12.71,342.609 12.21,343.942 12,345.5C 11.8138,342.964 11.3138,340.631 10.5,338.5C 11.4137,335.272 11.7471,331.939 11.5,328.5 Z"/></g>
<g><path style="opacity:1" fill="#79b5de" d="M 187.5,324.5 C 188.376,324.369 189.043,324.702 189.5,325.5C 188.034,329.004 187.367,332.67 187.5,336.5C 189.473,346.319 190.807,356.319 191.5,366.5C 191.414,373.683 190.247,380.683 188,387.5C 182.021,373.353 180.354,358.686 183,343.5C 184.816,337.223 186.316,330.889 187.5,324.5 Z"/></g>
<g><path style="opacity:1" fill="#891f1a" d="M 52.5,336.5 C 54.1033,336.312 55.4366,336.812 56.5,338C 52.5,339.333 48.5,340.667 44.5,342C 37.2398,349.36 31.0731,357.527 26,366.5C 25.1627,368.007 23.9961,368.507 22.5,368C 28.6816,357.482 36.0149,347.815 44.5,339C 47.2507,338.057 49.9174,337.224 52.5,336.5 Z"/></g>
<g><path style="opacity:1" fill="#891d16" d="M 85.5,345.5 C 86.0431,345.56 86.3764,345.893 86.5,346.5C 84.2569,351.985 81.7569,357.318 79,362.5C 78.2496,361.874 77.4162,361.374 76.5,361C 71.757,360.457 67.0903,360.457 62.5,361C 63.1667,360.333 63.8333,359.667 64.5,359C 68.5,358.333 72.5,357.667 76.5,357C 79.7146,353.291 82.7146,349.458 85.5,345.5 Z"/></g>
<g><path style="opacity:1" fill="#8b2823" d="M 90.5,349.5 C 91.8182,352.258 92.4848,355.424 92.5,359C 92.453,367.309 91.453,375.475 89.5,383.5C 86.8333,380.167 83.8333,377.167 80.5,374.5C 81.365,373.417 82.365,373.251 83.5,374C 85.3589,375.558 86.8589,377.391 88,379.5C 88.4709,377.754 89.1376,376.087 90,374.5C 90.4997,366.173 90.6664,357.84 90.5,349.5 Z"/></g>
<g><path style="opacity:1" fill="#830f0d" d="M 13.5,352.5 C 14.4778,352.811 15.1445,353.478 15.5,354.5C 14.3607,359.481 14.3607,364.147 15.5,368.5C 14.0295,367.619 13.1962,366.286 13,364.5C 12.2375,360.413 12.4042,356.413 13.5,352.5 Z"/></g>
<g><path style="opacity:1" fill="#ab5654" d="M 10.5,347.5 C 11.5326,352.032 11.366,356.698 10,361.5C 9.53859,356.816 9.70526,352.149 10.5,347.5 Z"/></g>
<g><path style="opacity:1" fill="#aa2a3f" d="M 143.5,321.5 C 145.5,321.5 147.5,321.5 149.5,321.5C 155.572,324.966 158.572,330.299 158.5,337.5C 157.304,347.924 153.47,357.257 147,365.5C 150.577,382.221 156.91,397.887 166,412.5C 167.413,414.414 169.247,415.747 171.5,416.5C 174.13,415.196 176.463,413.53 178.5,411.5C 179.167,411.5 179.833,411.5 180.5,411.5C 178.494,414.173 176.161,416.506 173.5,418.5C 179.572,424.035 186.572,427.702 194.5,429.5C 194.938,429.435 195.272,429.601 195.5,430C 194.263,430.232 193.263,430.732 192.5,431.5C 180.942,427.464 171.109,420.797 163,411.5C 153.702,394.264 146.368,376.264 141,357.5C 140.131,360.394 138.298,361.561 135.5,361C 137.57,360.052 139.07,358.552 140,356.5C 140.952,350.638 140.285,344.972 138,339.5C 132.391,334.623 125.891,331.457 118.5,330C 116.384,328.829 115.718,327.329 116.5,325.5C 114.189,324.425 111.856,324.425 109.5,325.5C 109.577,324.25 110.244,323.417 111.5,323C 116.107,322.13 118.774,323.963 119.5,328.5C 120.93,328.421 122.264,328.754 123.5,329.5C 124.584,328.335 125.417,327.002 126,325.5C 126.903,326.701 128.069,327.535 129.5,328C 128.833,328.667 128.167,329.333 127.5,330C 129,331.115 130.667,331.948 132.5,332.5C 135.216,327.784 138.882,324.118 143.5,321.5 Z"/></g>
<g><path style="opacity:1" fill="#fcf9f9" d="M 143.5,323.5 C 152.231,323.418 156.564,328.085 156.5,337.5C 155.32,347.524 151.654,356.524 145.5,364.5C 143.129,358.07 141.962,351.403 142,344.5C 141.333,342.5 140.667,340.5 140,338.5C 137.889,336.898 136.389,334.898 135.5,332.5C 137.474,328.861 140.14,325.861 143.5,323.5 Z"/></g>
<g><path style="opacity:1" fill="#a44944" d="M 151.5,346.5 C 152.774,347.189 152.774,348.023 151.5,349C 150.275,349.563 149.275,349.23 148.5,348C 149.737,347.768 150.737,347.268 151.5,346.5 Z"/></g>
<g><path style="opacity:1" fill="#8d261f" d="M 58.5,347.5 C 59.3764,347.369 60.0431,347.702 60.5,348.5C 59.627,350.413 58.627,352.247 57.5,354C 58,354.167 58.5,354.333 59,354.5C 62.9348,352.485 66.7681,350.652 70.5,349C 67.9784,353.034 64.9784,356.701 61.5,360C 58.2467,361.656 54.9133,361.823 51.5,360.5C 55.114,355.619 54.114,355.119 48.5,359C 46.1667,359.667 43.8333,359.667 41.5,359C 47.5526,357.474 52.886,354.641 57.5,350.5C 58.1272,349.583 58.4606,348.583 58.5,347.5 Z"/></g>
<g><path style="opacity:1" fill="#8a231c" d="M 17.5,355.5 C 18.1279,358.61 20.1279,360.11 23.5,360C 21.9431,362.296 20.2764,364.462 18.5,366.5C 17.5108,362.893 17.1774,359.226 17.5,355.5 Z"/></g>
<g><path style="opacity:1" fill="#797ca4" d="M 112.5,360.5 C 110.5,360.5 108.5,360.5 106.5,360.5C 106.072,371.058 106.738,381.391 108.5,391.5C 108.573,393.027 107.906,394.027 106.5,394.5C 105.734,385.521 105.401,376.521 105.5,367.5C 105.5,364.833 105.5,362.167 105.5,359.5C 108.059,359.198 110.393,359.532 112.5,360.5 Z"/></g>
<g><path style="opacity:1" fill="#7bb8e2" d="M 112.5,360.5 C 113.833,360.5 115.167,360.5 116.5,360.5C 116.665,364.182 116.499,367.848 116,371.5C 113.192,378.077 110.692,384.744 108.5,391.5C 106.738,381.391 106.072,371.058 106.5,360.5C 108.5,360.5 110.5,360.5 112.5,360.5 Z"/></g>
<g><path style="opacity:0.004" fill="#d5afad" d="M 259.5,365.5 C 260.833,366.167 260.833,366.167 259.5,365.5 Z"/></g>
<g><path style="opacity:0.004" fill="#a73d46" d="M 258.5,366.5 C 258.833,366.5 259.167,366.5 259.5,366.5C 259.315,367.17 258.981,367.17 258.5,366.5 Z"/></g>
<g><path style="opacity:1" fill="#8c2822" d="M 62.5,366.5 C 62.56,365.957 62.8933,365.624 63.5,365.5C 69.007,367.401 74.6736,368.401 80.5,368.5C 80.6841,371.321 79.3507,372.988 76.5,373.5C 76.598,372.384 76.098,371.384 75,370.5C 70.7073,369.458 66.5407,368.124 62.5,366.5 Z"/></g>
<g><path style="opacity:1" fill="#a41a47" d="M 3.5,307.5 C 2.83852,352.179 3.50518,396.513 5.5,440.5C 4.79105,441.404 3.79105,441.737 2.5,441.5C 2.16793,396.664 2.50126,351.997 3.5,307.5 Z"/></g>
<g><path style="opacity:1" fill="#94332c" d="M 39.5,368.5 C 42.3245,368.081 44.4912,369.081 46,371.5C 46.8236,374.882 46.657,378.216 45.5,381.5C 44.6816,378.893 44.1816,376.226 44,373.5C 41.595,372.726 39.095,372.226 36.5,372C 37.7101,370.961 38.7101,369.794 39.5,368.5 Z"/></g>
<g><path style="opacity:1" fill="#9a3a34" d="M 48.5,367.5 C 52.4397,367.818 56.2731,367.818 60,367.5C 63.9135,368.502 67.4135,370.169 70.5,372.5C 67.2506,376.522 66.5839,376.522 68.5,372.5C 65.5815,371.686 62.7481,370.686 60,369.5C 60.5021,373.092 60.5021,376.759 60,380.5C 59.5621,377.624 58.5621,374.957 57,372.5C 53.9518,370.906 51.1185,369.24 48.5,367.5 Z"/></g>
<g><path style="opacity:1" fill="#8489b4" d="M 3.5,307.5 C 4.89548,311.591 5.56214,315.924 5.5,320.5C 4.16667,330.5 4.16667,340.5 5.5,350.5C 4.27564,357.18 4.27564,363.846 5.5,370.5C 4.16667,391.5 4.16667,412.5 5.5,433.5C 5.5,435.833 5.5,438.167 5.5,440.5C 3.50518,396.513 2.83852,352.179 3.5,307.5 Z"/></g>
<g><path style="opacity:1" fill="#942e2a" d="M 51.5,373.5 C 55.3236,371.806 57.1569,373.139 57,377.5C 56.1253,374.785 54.2919,373.452 51.5,373.5 Z"/></g>
<g><path style="opacity:1" fill="#7cbae5" d="M 5.5,370.5 C 5.91563,372.752 7.24896,374.252 9.5,375C 11.8098,375.497 14.1432,375.663 16.5,375.5C 16.7073,378.241 17.7073,380.574 19.5,382.5C 18.3027,394.655 16.1361,406.655 13,418.5C 11.1454,423.946 8.64543,428.946 5.5,433.5C 4.16667,412.5 4.16667,391.5 5.5,370.5 Z"/></g>
<g><path style="opacity:1" fill="#ad3346" d="M 9.5,337.5 C 9.5,338.5 9.5,339.5 9.5,340.5C 7.86841,346.73 6.86841,353.063 6.5,359.5C 6.50389,363.569 7.00389,367.569 8,371.5C 8.5,372 9,372.5 9.5,373C 12.9499,373.175 16.2832,373.342 19.5,373.5C 19.0133,374.446 18.6799,375.446 18.5,376.5C 19.1776,378.516 19.8443,380.516 20.5,382.5C 20.1667,382.5 19.8333,382.5 19.5,382.5C 17.7073,380.574 16.7073,378.241 16.5,375.5C 14.1432,375.663 11.8098,375.497 9.5,375C 7.24896,374.252 5.91563,372.752 5.5,370.5C 4.27564,363.846 4.27564,357.18 5.5,350.5C 6.10359,345.957 7.43692,341.623 9.5,337.5 Z"/></g>
<g><path style="opacity:1" fill="#fcf8f8" d="M 137.5,440.5 C 135.473,440.662 133.473,440.495 131.5,440C 125.072,436.303 118.239,433.803 111,432.5C 108.306,425.558 106.473,418.392 105.5,411C 106.397,406.143 107.397,401.31 108.5,396.5C 111.165,388.892 113.998,381.225 117,373.5C 119.765,381.536 123.931,388.703 129.5,395C 125.353,400.793 121.853,406.959 119,413.5C 117.493,420.344 119.993,425.177 126.5,428C 133.864,430.505 141.198,433.005 148.5,435.5C 148.67,436.822 148.337,437.989 147.5,439C 143.975,439.179 140.641,439.679 137.5,440.5 Z"/></g>
<g><path style="opacity:1" fill="#b6424f" d="M 256.5,343.5 C 257.167,343.5 257.833,343.5 258.5,343.5C 257.622,346.056 256.289,348.39 254.5,350.5C 258.307,352.391 259.307,355.224 257.5,359C 259.229,360.789 259.896,362.956 259.5,365.5C 258.833,365.5 258.5,365.833 258.5,366.5C 257.711,366.783 257.044,367.283 256.5,368C 258.457,370.121 258.957,372.621 258,375.5C 257.092,377.439 255.592,378.439 253.5,378.5C 254.763,383.727 252.763,386.56 247.5,387C 250.128,390.868 250.128,394.701 247.5,398.5C 246.264,399.246 244.93,399.579 243.5,399.5C 244.039,403.416 242.706,406.416 239.5,408.5C 239.167,407.833 238.833,407.167 238.5,406.5C 239.876,404.918 240.876,403.085 241.5,401C 239.553,398.049 237.219,395.382 234.5,393C 235,392.5 235.5,392 236,391.5C 238.718,394.875 242.051,396.208 246,395.5C 246.829,389.637 244.329,385.804 238.5,384C 242.486,383.501 246.486,383.334 250.5,383.5C 250.66,381.801 250.494,380.134 250,378.5C 247.246,375.872 244.079,373.872 240.5,372.5C 244.773,372.297 248.94,373.297 253,375.5C 255.319,374.591 255.986,372.925 255,370.5C 250.654,367.677 246.154,365.344 241.5,363.5C 242,363.167 242.5,362.833 243,362.5C 246.433,363.733 249.933,364.733 253.5,365.5C 257.039,364.365 257.372,362.532 254.5,360C 251.518,359.502 248.518,359.335 245.5,359.5C 245.5,358.5 245.5,357.5 245.5,356.5C 258.42,357.417 258.753,355.75 246.5,351.5C 250.762,349.896 254.095,347.229 256.5,343.5 Z"/></g>
<g><path style="opacity:1" fill="#a04440" d="M 32.5,376.5 C 33.8734,376.343 35.2068,376.51 36.5,377C 34.1693,378.8 34.1693,380.8 36.5,383C 35.8333,383.667 35.1667,383.667 34.5,383C 32.3109,381.089 31.6442,378.923 32.5,376.5 Z"/></g>
<g><path style="opacity:1" fill="#8c241d" d="M 202.5,328.5 C 204.909,331.348 206.576,334.682 207.5,338.5C 207.278,340.055 206.611,341.389 205.5,342.5C 207.225,344.957 207.725,347.623 207,350.5C 206.25,351.126 205.416,351.626 204.5,352C 209.366,354.357 210.366,357.69 207.5,362C 209.852,362.576 210.852,364.076 210.5,366.5C 210.21,368.044 209.544,369.377 208.5,370.5C 209.022,371.607 209.355,372.774 209.5,374C 207.944,377.946 207.111,382.113 207,386.5C 206.333,387.167 205.667,387.833 205,388.5C 205.129,392.582 203.462,395.582 200,397.5C 200.463,395.474 201.296,393.474 202.5,391.5C 202.32,390.446 201.987,389.446 201.5,388.5C 205.6,386.523 206.6,383.356 204.5,379C 205.5,377.333 206.5,375.667 207.5,374C 207.097,372.527 206.43,371.194 205.5,370C 206.99,369.255 207.99,368.088 208.5,366.5C 207.115,364.295 205.115,362.795 202.5,362C 209.055,358.886 208.889,355.72 202,352.5C 201.517,351.552 201.351,350.552 201.5,349.5C 202.833,349.5 204.167,349.5 205.5,349.5C 204.798,345.594 203.131,342.094 200.5,339C 201.873,337.521 203.373,337.688 205,339.5C 205.167,339 205.333,338.5 205.5,338C 203.811,335.083 202.811,331.916 202.5,328.5 Z"/></g>
<g><path style="opacity:1" fill="#942e2a" d="M 40.5,386.5 C 42.3925,387.702 44.2258,389.035 46,390.5C 46.3076,389.692 46.8076,389.025 47.5,388.5C 48.6474,390.765 48.8141,393.098 48,395.5C 44.8883,392.899 42.3883,389.899 40.5,386.5 Z"/></g>
<g><path style="opacity:1" fill="#8c231d" d="M 86.5,389.5 C 89.7357,398.408 90.2357,407.408 88,416.5C 87.5357,415.906 87.369,415.239 87.5,414.5C 89.0524,408.353 88.5524,402.353 86,396.5C 81.8229,394.333 81.4895,391.667 85,388.5C 85.3826,389.056 85.8826,389.389 86.5,389.5 Z"/></g>
<g><path style="opacity:1" fill="#ab2c42" d="M 104.5,357.5 C 110.548,357.41 116.381,358.41 122,360.5C 122.239,362.725 121.405,363.058 119.5,361.5C 118.227,370.188 120.06,378.188 125,385.5C 132.289,395.124 139.955,404.458 148,413.5C 150.94,419.046 153.606,424.713 156,430.5C 159.464,433.805 163.297,436.472 167.5,438.5C 167.5,438.833 167.5,439.167 167.5,439.5C 162.866,438.097 158.699,435.764 155,432.5C 151.667,425.833 148.333,419.167 145,412.5C 140.631,407.135 135.965,402.135 131,397.5C 124.329,404.167 120.996,412.167 121,421.5C 124.114,424.306 127.614,426.473 131.5,428C 137.549,430.016 143.549,432.016 149.5,434C 150.605,436.12 150.605,438.287 149.5,440.5C 149.167,440.5 148.833,440.5 148.5,440.5C 144.833,440.5 141.167,440.5 137.5,440.5C 140.641,439.679 143.975,439.179 147.5,439C 148.337,437.989 148.67,436.822 148.5,435.5C 141.198,433.005 133.864,430.505 126.5,428C 119.993,425.177 117.493,420.344 119,413.5C 121.853,406.959 125.353,400.793 129.5,395C 123.931,388.703 119.765,381.536 117,373.5C 113.998,381.225 111.165,388.892 108.5,396.5C 107.833,395.833 107.167,395.167 106.5,394.5C 107.906,394.027 108.573,393.027 108.5,391.5C 110.692,384.744 113.192,378.077 116,371.5C 116.499,367.848 116.665,364.182 116.5,360.5C 115.167,360.5 113.833,360.5 112.5,360.5C 110.393,359.532 108.059,359.198 105.5,359.5C 105.5,362.167 105.5,364.833 105.5,367.5C 104.521,364.375 104.187,361.042 104.5,357.5 Z"/></g>
<g><path style="opacity:1" fill="#7bb9e3" d="M 167.5,439.5 C 161.69,440.49 155.69,440.823 149.5,440.5C 150.605,438.287 150.605,436.12 149.5,434C 143.549,432.016 137.549,430.016 131.5,428C 127.614,426.473 124.114,424.306 121,421.5C 120.996,412.167 124.329,404.167 131,397.5C 135.965,402.135 140.631,407.135 145,412.5C 148.333,419.167 151.667,425.833 155,432.5C 158.699,435.764 162.866,438.097 167.5,439.5 Z"/></g>
<g><path style="opacity:1" fill="#953028" d="M 58.5,399.5 C 60.4387,400.014 61.4387,401.347 61.5,403.5C 61.5472,405 60.8805,406 59.5,406.5C 54.2405,405.55 53.7405,404.216 58,402.5C 58.4828,401.552 58.6495,400.552 58.5,399.5 Z"/></g>
<g><path style="opacity:1" fill="#831210" d="M 63.5,404.5 C 64.6721,406.877 64.3388,409.21 62.5,411.5C 61.3054,411.134 60.6387,410.301 60.5,409C 61.3479,407.334 62.3479,405.834 63.5,404.5 Z"/></g>
<g><path style="opacity:1" fill="#c28584" d="M 66.5,407.5 C 65.4884,408.872 64.4884,410.205 63.5,411.5C 63.1667,411.5 62.8333,411.5 62.5,411.5C 64.3388,409.21 64.6721,406.877 63.5,404.5C 63.4614,403.244 63.9614,402.244 65,401.5C 65.1909,403.708 65.6909,405.708 66.5,407.5 Z"/></g>
<g><path style="opacity:1" fill="#faf5f5" d="M 194.5,429.5 C 186.572,427.702 179.572,424.035 173.5,418.5C 176.161,416.506 178.494,414.173 180.5,411.5C 180.811,410.522 181.478,409.855 182.5,409.5C 186.925,415.922 190.925,422.589 194.5,429.5 Z"/></g>
<g><path style="opacity:0.98" fill="#c6697d" d="M 239.5,408.5 C 238.852,420.932 238.185,433.265 237.5,445.5C 236.854,432.788 237.52,420.455 239.5,408.5 Z"/></g>
<g><path style="opacity:1" fill="#892019" d="M 66.5,407.5 C 67.675,407.281 68.675,407.614 69.5,408.5C 67.7658,410.234 66.4324,412.234 65.5,414.5C 64.0815,413.995 63.4148,412.995 63.5,411.5C 64.4884,410.205 65.4884,408.872 66.5,407.5 Z"/></g>
<g><path style="opacity:1" fill="#a44c45" d="M 75.5,411.5 C 77.6516,412.077 77.985,413.244 76.5,415C 77.624,415.249 78.624,415.749 79.5,416.5C 77.4333,419.902 76.1,423.569 75.5,427.5C 73.3432,426.034 73.0099,424.2 74.5,422C 72.8956,420.763 71.229,419.597 69.5,418.5C 72.9872,417.353 74.9872,415.019 75.5,411.5 Z"/></g>
<g><path style="opacity:1" fill="#683f58" d="M 233.5,440.5 C 233.826,431.983 233.493,423.65 232.5,415.5C 232.854,413.52 233.187,411.52 233.5,409.5C 234.823,419.993 234.823,430.326 233.5,440.5 Z"/></g>
<g><path style="opacity:1" fill="#eaced0" d="M 86.5,389.5 C 89.0128,391.533 90.5128,394.199 91,397.5C 91.2111,413.445 88.2111,428.778 82,443.5C 80.5557,441.845 78.7224,441.178 76.5,441.5C 77.5676,440.566 78.901,440.232 80.5,440.5C 84.9447,432.396 86.6114,423.73 85.5,414.5C 86.1667,414.5 86.8333,414.5 87.5,414.5C 87.369,415.239 87.5357,415.906 88,416.5C 90.2357,407.408 89.7357,398.408 86.5,389.5 Z"/></g>
<g><path style="opacity:1" fill="#7abae4" d="M 232.5,415.5 C 233.493,423.65 233.826,431.983 233.5,440.5C 223.985,440.827 214.652,440.494 205.5,439.5C 207.943,436.948 209.61,433.948 210.5,430.5C 215.373,430.627 217.373,428.294 216.5,423.5C 220.463,424.44 224.463,424.607 228.5,424C 229.661,421.279 228.994,418.946 226.5,417C 228.708,416.809 230.708,416.309 232.5,415.5 Z"/></g>
<g><path style="opacity:1" fill="#8e261f" d="M 85.5,414.5 C 86.6114,423.73 84.9447,432.396 80.5,440.5C 80.3706,437.234 79.3706,434.234 77.5,431.5C 77.8333,431.167 78.1667,430.833 78.5,430.5C 79.5,431.167 80.5,431.833 81.5,432.5C 82.1924,431.975 82.6924,431.308 83,430.5C 83.8671,425.028 84.7004,419.694 85.5,414.5 Z"/></g>
<g><path style="opacity:1" fill="#71bae5" d="M 126.5,439.5 C 123.375,440.479 120.042,440.813 116.5,440.5C 116.461,439.417 116.127,438.417 115.5,437.5C 119.379,436.585 123.046,437.252 126.5,439.5 Z"/></g>
<g><path style="opacity:1" fill="#5f3e72" d="M 126.5,439.5 C 127.043,439.56 127.376,439.893 127.5,440.5C 123.685,441.808 120.019,441.808 116.5,440.5C 120.042,440.813 123.375,440.479 126.5,439.5 Z"/></g>
<g><path style="opacity:1" fill="#653b6d" d="M 167.5,439.5 C 168.376,439.369 169.043,439.702 169.5,440.5C 162.344,441.819 155.344,441.819 148.5,440.5C 148.833,440.5 149.167,440.5 149.5,440.5C 155.69,440.823 161.69,440.49 167.5,439.5 Z"/></g>
<g><path style="opacity:1" fill="#623b6e" d="M 205.5,439.5 C 214.652,440.494 223.985,440.827 233.5,440.5C 223.992,441.823 214.325,441.823 204.5,440.5C 204.624,439.893 204.957,439.56 205.5,439.5 Z"/></g>
</svg>
